<?xml version="1.0" standalone="no"?>
<!DOCTYPE svg PUBLIC "-//W3C//DTD SVG 1.1//EN" "http://www.w3.org/Graphics/SVG/1.1/DTD/svg11.dtd" >
<svg>
<metadata>
Created by FontForge 20090622 at Mon Dec  2 09:53:13 2019
 By deploy user
The programs to draw the splines of this font are Copyright 251 2000 by George Williams.
</metadata>
<defs>
<font id="MonospaceBold" horiz-adv-x="600" >
  <font-face 
    font-family="Monospace"
    font-weight="700"
    font-stretch="normal"
    units-per-em="1000"
    panose-1="2 0 8 3 0 0 0 0 0 0"
    ascent="800"
    descent="-200"
    x-height="426"
    cap-height="562"
    bbox="-923 -391.923 846.143 999"
    underline-thickness="37"
    underline-position="-82"
    unicode-range="U+000D-U+FFFD"
  />
<missing-glyph horiz-adv-x="432" 
d="M33 0v666h333v-666h-333zM66 33h267v600h-267v-600z" />
    <glyph glyph-name="IJ" unicode="IJ" 
d="M333 278q0 -96 2 -112q10 -79 62 -79q60 0 64 78v18v295h-129v84h284v-84h-65v-335q0 -97 -77 -130q-32 -14 -77 -14q-93 0 -132 83q-19 40 -19 86v110h87zM79 478h-71v84h236v-84h-75v-394h74v-84h-236v84h72v394z" />
    <glyph glyph-name="ij" unicode="ij" 
d="M219 342h-159v84h249v-342h147v-84h-396v84h159v258zM283 562v-97h-74v97h74zM294 -84q33 -23 98 -26h11q31 0 59 35q19 22 19 44v373h-104v84h194v-457q0 -81 -61 -130q-45 -36 -107 -36q-80 0 -125 30zM544 562v-97h-74v97h74z" />
    <glyph glyph-name=".notdef" horiz-adv-x="432" 
d="M33 0v666h333v-666h-333zM66 33h267v600h-267v-600z" />
    <glyph glyph-name=".null" horiz-adv-x="0" 
 />
    <glyph glyph-name="nonmarkingreturn" unicode="&#xd;" horiz-adv-x="333" 
 />
    <glyph glyph-name="space" unicode=" " 
 />
    <glyph glyph-name="exclam" unicode="!" 
d="M323 610l-10 -454h-88l-10 454h108zM194 38q0 39 39 57q16 8 35 8q45 0 66 -35q8 -14 8 -30q0 -37 -37 -56q-17 -8 -37 -8q-45 0 -66 35q-8 14 -8 29z" />
    <glyph glyph-name="quotedbl" unicode="&#x22;" 
d="M228 591v-182h-87v182h87zM391 591v-182h-87v182h87z" />
    <glyph glyph-name="numbersign" unicode="#" 
d="M260 378l-37 -143h93l37 143h-93zM323 616l-40 -151h92l40 151h87l-40 -151h139v-87h-162l-37 -143h106v-87h-129l-38 -148h-86l38 148h-93l-38 -148h-86l38 148h-116v87h139l37 143h-85v87h107l40 151h87z" />
    <glyph glyph-name="dollar" unicode="$" 
d="M483 577q-9 -23 -13 -88q0 -47 24 -76l-79 2q-9 47 -65 67q-22 8 -46 8q-62 0 -84 -34q-7 -11 -7 -24q0 -47 58 -74l106 -42q86 -42 97 -128q2 -14 2 -29q0 -78 -67 -131q-30 -24 -66 -34v-69h-90v69q-38 14 -69 40q-8 8 -11 -7q-5 -20 -15 -44l-62 -1l15 42q9 27 9 62
q0 28 -18 81q-4 10 -6 14h62l13 -29q29 -52 87 -72q21 -7 40 -7q75 0 89 63q2 11 2 23q0 61 -62 90l-113 42q-78 36 -87 115q-2 12 -2 26q0 79 82 121q23 12 49 18v83h90v-84q29 -8 51 -24q11 -8 12 1q0 19 9 35z" />
    <glyph glyph-name="percent" unicode="%" 
d="M350 104q14 -15 58 -19q42 0 58 21q-14 15 -58 19q-38 0 -55 -17q-2 -2 -3 -4zM408 215q69 0 115 -40q34 -29 34 -70q0 -63 -74 -95q-36 -15 -75 -15q-69 0 -115 40q-34 29 -34 70q0 63 74 95q36 15 75 15zM120 463q14 -14 58 -18q42 0 58 21q-14 14 -58 18
q-42 0 -58 -21zM178 574q68 0 114 -39q35 -29 35 -70q0 -63 -74 -95q-36 -15 -75 -15q-68 0 -114 39q-35 29 -35 70q0 64 74 95q36 15 75 15zM34 177l479 297l48 -76l-479 -297z" />
    <glyph glyph-name="ampersand" unicode="&#x26;" 
d="M368 238l103 142l74 -52l-113 -155l141 -141l-64 -64l-132 133q-52 -66 -90 -86q-33 -17 -72 -17q-87 0 -142 61q-41 47 -41 112q0 82 114 153q3 1 6 3q-60 58 -60 124q0 72 85 102q31 11 56 11h70v-90h-70q-53 0 -51 -31q2 -21 28 -47zM217 261q-95 -55 -95 -90
q0 -50 46 -73q21 -10 47 -10q39 0 81 54l17 23z" />
    <glyph glyph-name="quotesingle" unicode="'" 
d="M310 591v-182h-87v182h87z" />
    <glyph glyph-name="parenleft" unicode="(" 
d="M451 614l-31 -38q-115 -145 -125 -316q-1 -14 -1 -28q0 -123 73 -259q42 -77 93 -127h-98l-18 19q-123 147 -136 330q-1 18 -1 37q0 145 74 281q33 60 74 102z" />
    <glyph glyph-name="parenright" unicode=")" 
d="M147 614l95 1q93 -95 131 -250q17 -69 17 -133q0 -184 -115 -341l-21 -26l-18 -19h-98q89 87 137 232q28 83 28 154q0 173 -110 324l-16 20z" />
    <glyph glyph-name="asterisk" unicode="*" 
d="M221 309l-159 49l26 86l161 -49v167h90v-167l164 49l26 -86l-162 -49l101 -139l-74 -52l-100 139l-98 -138l-74 52z" />
    <glyph glyph-name="plus" unicode="+" 
d="M77 316h144v145h90v-145h149v-90h-149v-149h-90v149h-144v90z" />
    <glyph glyph-name="comma" unicode="," 
d="M245 112l-120 -246h-79l82 246h117z" />
    <glyph glyph-name="hyphen" unicode="-" 
d="M77 315h385v-87h-385v87z" />
    <glyph glyph-name="period" unicode="." 
d="M108 46q0 40 40 61q19 10 42 10q48 0 72 -37q10 -16 10 -34q0 -40 -40 -61q-19 -10 -42 -10q-48 0 -72 37q-10 16 -10 34z" />
    <glyph glyph-name="slash" unicode="/" 
d="M55 -84l368 715h93l-367 -715h-94z" />
    <glyph glyph-name="zero" unicode="0" 
d="M215 282q0 -126 29 -169q20 -32 56 -32q85 0 85 187q0 -19 0 13q0 126 -29 169q-20 32 -56 32q-84 0 -85 -186v-14zM300 572q176 0 176 -290q0 -291 -176 -291t-176 290q0 291 176 291z" />
    <glyph glyph-name="one" unicode="1" 
d="M109 459l148 103h94v-472h127v-90h-350v90h129v362l-97 -67z" />
    <glyph glyph-name="two" unicode="2" 
d="M97 362v26q0 97 89 150q56 34 122 34q76 0 136 -44q59 -43 59 -108q0 -96 -107 -172q-11 -8 -103 -64q-72 -45 -83 -78q-3 -8 -3 -16h176v64h90v-154h-360v89q0 86 101 156l102 62q76 45 89 82q4 11 4 22q0 21 -30 44q-31 23 -71 23q-117 0 -117 -116h-94z" />
    <glyph glyph-name="three" unicode="3" 
d="M183 150q45 -56 85 -63q9 -2 19 -2q63 0 97 48q16 23 16 46q0 65 -47 83q-10 4 -19 4h-48v94h41q42 0 64 33q8 13 8 25q0 32 -41 50q-24 11 -57 11q-51 0 -102 -52q-9 -8 -19 -20l-70 62q69 81 140 98q25 6 51 6q83 0 140 -46q52 -42 52 -109q0 -60 -49 -101q-3 -2 -5 -4
q44 -37 53 -122q2 -13 2 -25q0 -96 -92 -146q-54 -29 -115 -29q-91 0 -164 83q-7 7 -14 16z" />
    <glyph glyph-name="four" unicode="4" 
d="M86 201l273 361h94v-331h52v-94h-52v-47h61v-90h-217v90h62v47h-273v64zM359 404l-134 -173h134v173z" />
    <glyph glyph-name="five" unicode="5" 
d="M239 472v-116h65q142 0 194 -86q25 -40 25 -95q0 -104 -102 -155q-59 -30 -126 -30q-91 0 -184 59q-12 7 -27 17l52 78q75 -51 128 -58q15 -2 31 -2q82 0 118 48q16 20 16 43q0 72 -83 84q-19 3 -42 3h-159v300h368v-90h-274z" />
    <glyph glyph-name="six" unicode="6" 
d="M298 350q89 0 147 -64q45 -50 45 -116q0 -87 -71 -141q-53 -40 -121 -40q-88 0 -146 64q-45 50 -45 117v190q0 81 71 143q67 59 155 59h134v-94h-134q-67 0 -110 -53q-22 -29 -22 -55v-35q45 25 97 25zM298 256q-57 0 -85 -45q-12 -19 -12 -41q0 -46 43 -72
q24 -15 54 -15q58 0 86 45q12 20 12 42q0 45 -42 71q-25 15 -56 15z" />
    <glyph glyph-name="seven" unicode="7" 
d="M219 0l149 472h-181v-49h-90v139h389v-29q-8 -24 -168 -533h-99z" />
    <glyph glyph-name="eight" unicode="8" 
d="M383 199q0 47 -41 71q-19 12 -42 12q-47 0 -71 -43q-12 -20 -12 -45q0 -99 66 -108q8 -1 17 -1q83 0 83 114zM223 431q0 -55 77 -55t77 57q0 25 -33 39q-19 8 -44 8q-55 0 -73 -34q-4 -7 -4 -15zM129 431q0 85 85 124q41 19 86 19q77 0 128 -45q43 -38 43 -96
q0 -66 -46 -109q52 -52 52 -125q0 -118 -69 -173q-44 -35 -108 -35q-121 0 -161 108q-16 42 -16 95q0 74 52 129q-46 39 -46 108z" />
    <glyph glyph-name="nine" unicode="9" 
d="M281 213q-89 0 -146 65q-44 50 -44 116q0 87 71 141q52 40 119 40q88 0 146 -64q45 -50 45 -117v-191q0 -80 -70 -142q-67 -60 -155 -60h-134v94h134q67 0 109 54q22 28 22 54v35q-45 -25 -97 -25zM281 307q56 0 84 44q13 20 13 43q0 45 -42 71q-24 16 -55 16
q-56 0 -84 -44q-13 -20 -13 -43q0 -45 42 -71q24 -16 55 -16z" />
    <glyph glyph-name="colon" unicode=":" 
d="M183 351q0 42 41 62q19 10 41 10q48 0 72 -37q10 -16 10 -35q0 -40 -40 -61q-19 -10 -42 -10q-48 0 -72 37q-10 16 -10 34zM184 46q0 41 40 61q19 10 41 10q48 0 72 -37q10 -16 10 -34q0 -40 -40 -61q-19 -10 -42 -10q-49 0 -72 38q-9 15 -9 33z" />
    <glyph glyph-name="semicolon" unicode=";" 
d="M183 351q0 42 41 62q19 10 41 10q48 0 72 -37q10 -16 10 -35q0 -40 -40 -61q-19 -10 -42 -10q-48 0 -72 37q-10 16 -10 34zM335 112l-120 -246h-79l82 246h117z" />
    <glyph glyph-name="less" unicode="&#x3c;" 
d="M545 390l-292 -138l292 -149v-88l-484 237l484 229v-91z" />
    <glyph glyph-name="equal" unicode="=" 
d="M118 422h311v-87h-311v87zM118 250h311v-87h-311v87z" />
    <glyph glyph-name="greater" unicode="&#x3e;" 
d="M52 390v91l484 -229l-484 -237v88l292 149z" />
    <glyph glyph-name="question" unicode="?" 
d="M200 147v58q0 45 55 92l57 48q42 41 42 86q0 48 -65 64q-61 15 -114 -7q-35 -15 -35 -39v-18h-86v18q0 67 84 100q85 32 180 9q98 -24 121 -93q5 -16 5 -34q0 -63 -67 -121l-59 -52q-28 -28 -28 -53v-58h-90zM166 46q0 40 40 61q19 10 42 10q48 0 72 -37q10 -16 10 -34
q0 -40 -40 -61q-19 -10 -42 -10q-48 0 -72 37q-10 16 -10 34z" />
    <glyph glyph-name="at" unicode="@" 
d="M360 438q-17 45 -85 45q-60 0 -84 -91q-13 -48 -13 -114q0 -168 71 -195q11 -5 25 -5h108v-78h-107q-135 0 -170 130q-15 56 -15 148q0 188 71 248q43 37 114 37q136 0 170 -136q14 -57 14 -149v-119q-5 -34 -42 -36h-76q-65 0 -92 84q-11 35 -11 75q0 98 46 138
q22 18 51 18h25zM380 210v68q0 30 -5 80h-22q-36 0 -36 -76q0 -65 28 -71q4 -1 8 -1h27z" />
    <glyph glyph-name="A" unicode="A" 
d="M255 295h93l-49 134zM361 84h53l-50 149h-125l-50 -149h53v-84h-213v84h68l126 394h-101v84h233l150 -478h66v-84h-210v84z" />
    <glyph glyph-name="B" unicode="B" 
d="M233 386h150q69 0 69 48q0 37 -46 43q-9 1 -22 1h-151v-92zM233 84h137q51 0 74 47q14 26 14 65q0 69 -53 96q-17 9 -34 9h-138v-217zM470 340q74 -49 74 -156t-62 -158q-32 -26 -72 -26h-329v84h62v394h-62v84h328q64 0 104 -46q26 -31 26 -72q0 -78 -69 -104z" />
    <glyph glyph-name="C" unicode="C" 
d="M325 564q63 0 94 -24q4 -2 8 -6q10 -7 11 -5t1 5q3 22 12 41l62 -16q-19 -52 -19 -67q0 -22 19 -69l-73 -17q-21 41 -69 63q-23 10 -46 10q-63 0 -107 -61q-39 -55 -39 -137q0 -92 54 -154q40 -46 92 -46t100 54q3 3 6 7l65 -63q-45 -56 -125 -75q-24 -6 -46 -6
q-104 0 -174 89q-64 82 -64 194q0 124 76 208q68 75 162 75z" />
    <glyph glyph-name="D" unicode="D" 
d="M212 84h85q75 0 124 66q42 56 42 134q0 74 -46 133q-47 61 -120 61h-85v-394zM52 84h70v394h-70v84h276q113 0 178 -121q41 -78 42 -155q1 -83 -44 -166q-64 -120 -176 -120h-276v84z" />
    <glyph glyph-name="E" unicode="E" 
d="M448 391v-176h-71v57h-144v-188h247l12 76h60l-12 -160h-466v84h70v394h-70v84h464l9 -151h-58l-9 67h-247v-122h144v35h71z" />
    <glyph glyph-name="F" unicode="F" 
d="M233 478v-113h108v47h73v-193h-73v62h-108v-197h169v-84h-357v84h97v394h-97v84h512l12 -190h-52l-11 106h-273z" />
    <glyph glyph-name="G" unicode="G" 
d="M326 564q72 0 100 -32q10 -8 12 1q3 26 12 40l63 -14q-18 -49 -18 -66q0 -21 19 -69l-74 -18q-33 59 -94 71q-11 2 -21 2q-80 0 -120 -86q-24 -50 -24 -109q0 -119 72 -177q34 -28 69 -28q117 0 122 156h-69v72h145v-72q-6 -166 -109 -217q-39 -20 -90 -20
q-104 0 -173 91q-62 82 -62 193q0 121 77 206q70 76 163 76z" />
    <glyph glyph-name="H" unicode="H" 
d="M190 386h220v92h-71v84h230v-84h-69v-394h68v-84h-230v84h72v214h-220v-214h71v-84h-230v84h69v394h-69v84h230v-84h-71v-92z" />
    <glyph glyph-name="I" unicode="I" 
d="M258 478h-168v84h421v-84h-164v-394h163v-84h-421v84h169v394z" />
    <glyph glyph-name="J" unicode="J" 
d="M146 278q0 -87 6 -114q17 -77 92 -77t94 64q5 16 5 32v295h-174v84h361v-84h-97v-335q0 -54 -50 -98q-54 -46 -138 -46q-87 0 -145 67q-41 48 -41 102v110h87z" />
    <glyph glyph-name="K" unicode="K" 
d="M293 562h260v-84h-111l-161 -171q112 -31 207 -193l16 -29h90v-85h-143q-79 144 -137 193q-41 35 -95 48l-43 -46v-111h91v-84h-262v84h82v394h-82v84h247v-84h-76v-155l145 155h-28v84z" />
    <glyph glyph-name="L" unicode="L" 
d="M156 478h-84v84h261v-84h-87v-394h198l17 139h87l-20 -223h-457v84h85v394z" />
    <glyph glyph-name="M" unicode="M" 
d="M546 478v-394h42v-84h-210v84h78v302h-4l-140 -265h-21l-140 260h-7v-297h77v-84h-213v84h46v394h-46v84h148v-11l144 -251l149 254v8h143v-84h-46z" />
    <glyph glyph-name="N" unicode="N" 
d="M150 561l305 -405v322h-77v84h222v-84h-55v-485h-80l-317 422h-2v-331h78v-84h-224v84h56v394h-56v84h150v-1z" />
    <glyph glyph-name="O" unicode="O" 
d="M300 571q101 0 172 -91q66 -85 66 -199q0 -122 -74 -209q-69 -81 -164 -81q-101 0 -172 91q-66 85 -66 199q0 122 74 209q69 81 164 81zM300 480q-66 0 -110 -68q-37 -56 -37 -131q0 -100 60 -160q39 -39 87 -39q66 0 110 68q37 56 37 131q0 100 -60 160q-39 39 -87 39z
" />
    <glyph glyph-name="P" unicode="P" 
d="M212 270h152q53 0 85 37q24 27 24 67q0 87 -81 102q-14 2 -28 2h-152v-208zM53 84h69v394h-69v84h333q87 0 135 -61q36 -46 36 -115q0 -98 -69 -159q-47 -41 -102 -41h-174v-102h110v-84h-269v84z" />
    <glyph glyph-name="Q" unicode="Q" 
d="M232 10l-37 -46q17 3 37 3q28 0 67 -35q29 -26 44 -26q26 0 61 30q7 7 11 10l47 -55l-53 -43q-36 -25 -65 -25q-28 0 -68 35q-29 26 -43 26q-52 0 -125 -50q-2 -2 -4 -3l-47 59l119 151q-62 39 -94 128q-20 54 -20 112q0 124 77 208q68 75 161 75q103 0 173 -89
q65 -82 65 -194q0 -124 -77 -208q-68 -75 -161 -75q-32 0 -68 12zM300 480q-66 0 -110 -68q-37 -56 -37 -131q0 -100 60 -160q39 -39 87 -39q66 0 110 68q37 56 37 131q0 100 -60 160q-39 39 -87 39z" />
    <glyph glyph-name="R" unicode="R" 
d="M169 306h184q78 0 105 45q11 18 11 41q0 74 -76 84q-16 2 -40 2h-184v-172zM359 222q39 -22 87 -101q14 -22 20 -37h91v-84h-148q-37 99 -72 142q-29 36 -85 80h-83v-138h103v-84h-263v84h70v394h-70v84h377q83 0 132 -51q39 -41 39 -107q0 -106 -77 -155
q-42 -27 -94 -27h-27z" />
    <glyph glyph-name="S" unicode="S" 
d="M483 577q-9 -23 -13 -88q0 -47 24 -76l-79 2q-9 47 -65 67q-22 8 -46 8q-62 0 -84 -34q-7 -11 -7 -24q0 -47 58 -74l106 -42q86 -42 97 -128q2 -14 2 -29q0 -78 -68 -132q-51 -40 -110 -40q-58 0 -114 47q-8 8 -11 -7q-5 -20 -15 -44l-62 -1l15 42q9 27 9 62q0 28 -18 81
q-4 10 -6 14h62l13 -29q29 -52 87 -72q21 -7 40 -7q75 0 89 63q2 11 2 23q0 61 -62 90l-113 42q-78 36 -87 115q-2 12 -2 26q0 79 80 120q46 24 99 24q51 0 101 -35q10 -7 12 0q2 22 9 36h57z" />
    <glyph glyph-name="T" unicode="T" 
d="M495 343l-10 135h-140v-394h122v-84h-333v84h121v394h-140l-10 -135h-71l10 219h512l10 -219h-71z" />
    <glyph glyph-name="U" unicode="U" 
d="M572 478h-47v-299q0 -59 -54 -115q-70 -71 -175 -71q-99 0 -171 77q-52 56 -52 109v299h-45v84h204v-84h-75v-259q0 -54 38 -97q39 -42 101 -42q84 0 125 71q20 34 20 68v259h-73v84h204v-84z" />
    <glyph glyph-name="V" unicode="V" 
d="M587 478h-44l-199 -494h-87l-201 494h-43v84h196v-84h-59l150 -384l151 384h-60v84h196v-84z" />
    <glyph glyph-name="W" unicode="W" 
d="M402 562h198v-84h-24l-129 -493h-57l-90 325l-91 -325h-51l-130 493h-28v84h198v-84h-92l72 -280l78 259h84l78 -254l75 275h-91v84z" />
    <glyph glyph-name="X" unicode="X" 
d="M501 478l-146 -197l146 -197h79v-84h-241v84h53l-91 118l-91 -118h53v-84h-243v84h80l144 197l-145 197h-72v84h243v-84h-60l91 -120l90 120h-60v84h242v-84h-72z" />
    <glyph glyph-name="Y" unicode="Y" 
d="M343 84h58v-84h-205v84h57v139l-186 255h-35v84h204v-84h-60l124 -166l123 166h-60v84h204v-84h-35l-189 -255v-139z" />
    <glyph glyph-name="Z" unicode="Z" 
d="M412 84l9 119h83l-15 -203h-390v20l258 458h-178l-4 -119h-84l9 203h388v-23l-258 -455h182z" />
    <glyph glyph-name="bracketleft" unicode="[" 
d="M200 562h175v-85h-87v-531h86v-84h-175l1 699v1z" />
    <glyph glyph-name="backslash" unicode="\" 
d="M557 -84h-95l-366 715h93z" />
    <glyph glyph-name="bracketright" unicode="]" 
d="M346 562l1 -699v-1h-175v84h86v531h-87v85h175z" />
    <glyph glyph-name="asciicircum" unicode="^" 
d="M505 355l-46 -46l-164 136l-163 -123l-37 33l206 205z" />
    <glyph glyph-name="underscore" unicode="_" 
d="M35 -53h531v-91h-531v91z" />
    <glyph glyph-name="grave" unicode="`" 
d="M191 657h93l122 -175h-47z" />
    <glyph glyph-name="a" unicode="a" 
d="M382 186q-90 26 -159 26q-66 0 -86 -48q-5 -11 -5 -21q0 -26 40 -48q31 -18 67 -18q81 0 143 63v46zM472 84h94v-84h-184v43q-51 -45 -104 -54q-18 -3 -39 -3q-89 0 -149 52q-49 43 -49 105q0 83 75 129q48 31 107 31q57 0 159 -26v10q0 45 -63 65q-34 11 -82 11
q-62 0 -146 -37l-28 65l59 23q71 23 115 23q96 0 171 -48q64 -42 64 -95v-210z" />
    <glyph glyph-name="b" unicode="b" 
d="M112 540l-71 -14l-6 84l167 23v-254q61 55 141 55q100 0 169 -74q60 -64 60 -147q0 -94 -75 -161q-66 -60 -154 -60q-74 0 -137 51l-3 3v-46h-164v84h73v456zM343 344q-64 0 -109 -52q-31 -37 -31 -79q0 -59 54 -101q40 -30 86 -30q65 0 109 53q30 36 30 78q0 60 -54 101
q-39 30 -85 30z" />
    <glyph glyph-name="c" unicode="c" 
d="M424 394l15 32l62 -25l-15 -44q-4 -14 -2 -21l15 -36l-78 -26q-22 45 -79 63q-21 7 -42 7q-68 0 -113 -58q-26 -34 -26 -68q0 -66 59 -109q38 -28 79 -28q70 0 124 38q2 2 4 3l42 -67q-50 -41 -134 -53q-17 -2 -32 -2q-111 0 -180 75q-54 59 -54 138q0 96 76 160
q64 54 149 54q64 0 116 -35q10 -7 14 2z" />
    <glyph glyph-name="d" unicode="d" 
d="M574 0h-164v46q-52 -42 -102 -51q-18 -3 -38 -3q-98 0 -168 73q-61 64 -61 148q0 94 74 161q67 60 155 60q82 0 140 -55v149l-99 -19v87l190 37v-549h73v-84zM410 213q0 59 -54 101q-40 30 -86 30q-65 0 -109 -53q-30 -36 -30 -78q0 -60 54 -101q39 -30 85 -30
q64 0 109 52q31 37 31 79z" />
    <glyph glyph-name="e" unicode="e" 
d="M422 268q-38 75 -128 75q-63 0 -103 -51q-11 -13 -14 -24h245zM519 189h-356q16 -53 60 -84q33 -23 76 -23q84 0 146 45l42 -63q-62 -52 -157 -62q-16 -2 -31 -2q-101 0 -171 71q-59 61 -59 142q0 96 76 160q64 54 149 54q103 0 170 -72q52 -57 55 -133v-33z" />
    <glyph glyph-name="f" unicode="f" 
d="M158 84v257h-73v85h73v79q0 77 90 110q41 15 86 15q83 0 148 -47l-38 -76q-36 26 -60 31q-17 4 -40 4q-72 0 -91 -57q-5 -14 -5 -30v-29h223v-84h-223v-258h167v-84h-330v84h73z" />
    <glyph glyph-name="g" unicode="g" 
d="M575 426v-84h-76v-373q0 -63 -77 -115q-75 -51 -156 -51q-94 0 -193 58l16 82q46 -32 126 -48q28 -6 50 -6q82 0 122 50q20 25 21 55v65q-29 -38 -81 -57q-28 -10 -58 -10q-99 0 -169 73q-61 65 -61 148q0 94 75 161q66 60 154 60q92 0 140 -66v58h167zM269 344
q-64 0 -109 -52q-31 -37 -31 -79q0 -59 54 -101q40 -30 86 -30q65 0 109 53q30 36 30 78q0 60 -54 101q-39 30 -85 30z" />
    <glyph glyph-name="h" unicode="h" 
d="M172 388h-1q88 52 150 52q67 0 134 -50q62 -47 62 -94v-212h59v-84h-208v84h60v162q0 43 -36 78q-30 29 -71 29q-58 0 -142 -54q-4 -3 -8 -5v-210h59v-84h-208v84h60v446l-60 -18v84l150 37v-245z" />
    <glyph glyph-name="i" unicode="i" 
d="M262 342h-159v84h249v-342h147v-84h-396v84h159v258zM344 562v-97h-74v97h74z" />
    <glyph glyph-name="j" unicode="j" 
d="M76 -84q33 -23 98 -26h11q31 0 59 35q19 22 19 44v373h-104v84h194v-457q0 -81 -61 -130q-45 -36 -107 -36q-81 0 -125 30zM342 562v-97h-74v97h74z" />
    <glyph glyph-name="k" unicode="k" 
d="M309 84h35l-100 125l-26 -22v-187h-163v84h73v438l-73 -23v84l163 49v-354l78 64h-33v84h257v-84h-117l-101 -84l143 -174h134v-84h-270v84z" />
    <glyph glyph-name="l" unicode="l" 
d="M228 534l-136 -35v84l226 49v-548h190v-84h-416v84h136v450z" />
    <glyph glyph-name="m" unicode="m" 
d="M313 373q35 44 88 63q11 4 18 4q88 0 114 -87q8 -27 8 -57v-211h59v-85h-149v259q0 94 -30 94q-39 0 -71 -49l-4 -8l-1 -211h59v-85h-149l-1 257v2q0 70 -12 85q-6 9 -18 9q-44 0 -69 -44q-4 -7 -6 -14v-210h59v-85h-208v85h60v257h-60v84h123v-50q16 30 70 55q20 9 31 9
q71 0 89 -67z" />
    <glyph glyph-name="n" unicode="n" 
d="M172 388h-1q88 52 150 52q67 0 134 -50q62 -47 62 -94v-212h59v-84h-208v84h60v162q0 43 -36 78q-30 29 -71 29q-58 0 -142 -54q-4 -3 -8 -5v-210h59v-84h-208v84h60v258h-60v84h150v-38z" />
    <glyph glyph-name="o" unicode="o" 
d="M300 434q98 0 168 -73q61 -64 61 -148q0 -94 -75 -161q-66 -60 -154 -60q-98 0 -168 72q-62 65 -62 149q0 94 76 161q67 60 154 60zM300 344q-64 0 -109 -52q-31 -37 -31 -79q0 -59 54 -101q40 -30 86 -30q65 0 109 53q30 36 30 78q0 60 -54 101q-39 30 -85 30z" />
    <glyph glyph-name="p" unicode="p" 
d="M109 -102v444h-73v84h164v-46q52 42 102 51q18 3 38 3q98 0 168 -73q61 -64 61 -148q0 -94 -74 -161q-67 -60 -155 -60q-82 0 -140 55v-149h78v-90h-245v90h76zM340 82q65 0 109 53q30 36 30 78q0 60 -54 101q-39 30 -85 30q-64 0 -109 -52q-31 -37 -31 -79
q0 -59 54 -101q40 -30 86 -30z" />
    <glyph glyph-name="q" unicode="q" 
d="M488 -102h76v-90h-245v90h78v149q-58 -55 -140 -55q-99 0 -169 73q-61 65 -61 148q0 94 75 161q66 60 154 60q73 0 135 -49q5 -4 6 -5v46h164v-84h-73v-444zM256 82q66 0 110 53q31 36 31 78q0 59 -54 101q-40 30 -86 30q-66 0 -110 -53q-30 -36 -30 -78q0 -60 54 -101
q39 -30 85 -30z" />
    <glyph glyph-name="r" unicode="r" 
d="M406 307q-33 46 -85 46q-58 0 -142 -54q-4 -3 -8 -5v-210h59v-84h-208v84h60v258h-60v84h149v-38q88 52 150 52t124 -41q23 -16 36 -32z" />
    <glyph glyph-name="s" unicode="s" 
d="M480 432q-11 -23 -13 -49q0 -40 24 -62l-66 1q-28 40 -121 40q-67 0 -86 -24q-5 -6 -5 -13q0 -34 58 -57l111 -38q91 -45 94 -118q0 -64 -78 -98q-46 -19 -100 -19q-78 0 -116 26q-8 5 -11 -6l-13 -27h-63l15 33q9 20 9 39q0 18 -20 50q-2 4 -4 6h63q21 -43 118 -43
q102 0 112 33q1 3 1 6q0 30 -57 50l-104 35q-96 39 -102 115q-1 6 -1 13q0 62 84 92q44 15 95 15q72 0 102 -17q10 -7 12 1q1 8 4 12q2 2 4 5z" />
    <glyph glyph-name="t" unicode="t" 
d="M27 426h78v136h90v-136h225v-84h-225v-151q0 -58 51 -96q36 -27 82 -27q71 0 155 93l11 13l37 -65q-75 -83 -155 -115q-33 -13 -60 -13q-113 0 -174 67q-37 41 -37 93v201h-78v84z" />
    <glyph glyph-name="u" unicode="u" 
d="M427 38q-88 -52 -150 -52q-85 0 -149 57q-47 42 -47 87v212h-59v84h208v-84h-60v-162q0 -43 36 -78q30 -29 71 -29q58 0 142 54q4 3 8 5v210h-59v84h208v-84h-60v-258h60v-84h-149v38z" />
    <glyph glyph-name="v" unicode="v" 
d="M590 342h-74l-173 -355h-83l-175 355h-75v84h218v-84h-49l121 -253l122 253h-49v84h217v-84z" />
    <glyph glyph-name="w" unicode="w" 
d="M131 342l56 -205l73 188h80l70 -188l62 205h-73v84h201v-84h-36l-114 -366h-66l-84 220l-87 -220h-61l-113 366h-39v84h201v-84h-70z" />
    <glyph glyph-name="x" unicode="x" 
d="M254 0h-241v84h85l146 128l-148 130h-83v84h242v-84h-49l94 -82l92 82h-49v84h244v-84h-86l-147 -130l145 -128h88v-84h-244v84h47l-91 79l-91 -79h46v-84z" />
    <glyph glyph-name="y" unicode="y" 
d="M339 -168h-339v84h213l38 81l-174 345h-67v84h216v-84h-53l126 -248l121 248h-46v84h222v-84h-76l-211 -426h30v-84z" />
    <glyph glyph-name="z" unicode="z" 
d="M499 355l-268 -271h211v36h75v-120h-418v74l265 268h-204v-36h-77v120h416v-71z" />
    <glyph glyph-name="braceleft" unicode="{" 
d="M232 245q42 -37 47 -90v-111q0 -76 37 -94q16 -7 40 -7h20v-63h-20q-160 9 -165 139v111q0 37 -29 63q-18 16 -43 16v72q44 0 64 47q7 17 7 32v111q0 98 93 129q32 10 73 10h20v-62h-20q-62 0 -73 -56q-4 -18 -4 -46v-111q0 -49 -37 -82z" />
    <glyph glyph-name="bar" unicode="|" 
d="M344 562v-705h-88v705h88z" />
    <glyph glyph-name="braceright" unicode="}" 
d="M295 245q-42 37 -47 90v111q0 77 -37 95q-16 7 -40 7h-20v62h20q115 0 152 -75q14 -27 14 -64v-111q0 -37 28 -63q18 -16 43 -16v-72q-44 0 -64 -47q-7 -17 -7 -32v-111q0 -139 -166 -139h-20v63h20q62 0 73 55q4 18 4 46v111q0 49 37 82z" />
    <glyph glyph-name="asciitilde" unicode="~" 
d="M7 240q78 70 152 79q8 1 16 1q58 0 121 -47q54 -41 71 -49q28 -14 58 -14q47 0 101 48q4 4 13 12l50 -54q-81 -72 -131 -85q-17 -5 -33 -5q-59 0 -122 48q-55 41 -72 49q-27 13 -56 13q-47 0 -96 -44q-4 -4 -18 -16z" />
    <glyph glyph-name="uni00A0" unicode="&#xa0;" 
 />
    <glyph glyph-name="exclamdown" unicode="&#xa1;" 
d="M212 -18l10 454h88l10 -454h-108zM342 554q0 -39 -39 -57q-16 -8 -35 -8q-45 0 -66 35q-8 14 -8 30q0 37 37 56q17 8 37 8q45 0 66 -35q8 -14 8 -29z" />
    <glyph glyph-name="cent" unicode="&#xa2;" 
d="M248 481v132h90v-131q36 -7 72 -30q9 -7 14 1l15 32l62 -24l-15 -45q-4 -14 -2 -20l15 -36l-78 -27q-22 45 -78 64q-21 7 -43 7q-68 0 -113 -58q-26 -34 -26 -68q0 -67 59 -110q38 -28 79 -28q70 0 123 39q3 1 5 3l42 -68q-44 -36 -122 -50v-127h-90v126q-101 18 -154 98
q-34 51 -34 111q0 96 76 160q45 38 103 49z" />
    <glyph glyph-name="sterling" unicode="&#xa3;" 
d="M55 355h60q-12 39 -13 63q0 96 93 150q63 36 135 36q89 0 167 -69q10 -8 20 -18l-58 -58q-64 61 -136 61q-81 0 -119 -49q-18 -24 -18 -53t13 -59l2 -4h208v-84h-169q13 -30 13 -66q0 -61 -28 -119q1 0 40 4q30 0 75 -37q29 -24 40 -24q51 0 83 33q6 6 12 13l36 -67
q-51 -63 -131 -63q-34 0 -79 31q-38 27 -61 27q-54 0 -79 -17q-10 -7 -20 -17l-57 43q41 41 68 112q17 44 17 81q0 26 -12 59q-1 4 -2 7h-100v84z" />
    <glyph glyph-name="currency" unicode="&#xa4;" 
d="M301 456q65 0 121 -35l70 70l64 -64l-68 -68q42 -57 42 -124t-41 -124l64 -64l-64 -64l-66 66q-57 -35 -122 -35q-64 0 -121 35l-67 -68l-64 64l65 65q-43 57 -43 125t41 123l-69 69l64 64l71 -71q56 36 123 36zM301 366q-64 0 -109 -52q-31 -37 -31 -79q0 -59 54 -101
q40 -30 86 -30q65 0 109 53q30 36 30 78q0 60 -54 101q-39 30 -85 30z" />
    <glyph glyph-name="yen" unicode="&#xa5;" 
d="M323 343h-46l23 -31zM61 433h39l-33 45h-35v84h204v-84h-60l34 -45h180l33 45h-60v84h204v-84h-35l-33 -45h40v-90h-107l-63 -85h170v-90h-196v-84h58v-84h-205v84h57v84h-192v90h166l-62 85h-104v90z" />
    <glyph glyph-name="brokenbar" unicode="&#xa6;" 
d="M344 167v-310h-88v310h88zM256 321v241h88v-241h-88z" />
    <glyph glyph-name="section" unicode="&#xa7;" 
d="M232 364q-36 -28 -48 -66q-4 -11 -4 -20q0 -55 93 -115l17 -11l50 -31q55 45 58 86q0 49 -86 105q139 -91 -35 22q-13 8 -45 30zM130 502q0 76 81 76h280v-152h-83v68h-113q-40 0 -45 -19q-2 -6 -2 -14q0 -17 51 -47q85 -51 111 -73q72 -61 72 -134q0 -46 -55 -112
q-17 -19 -28 -27q28 -34 34 -55q4 -13 4 -29q0 -64 -61 -74q-9 -2 -20 -2h-280v152h83v-68h113q40 0 45 19q2 6 2 14q0 17 -49 47q-81 51 -106 73q-68 61 -68 134q0 65 59 124q10 9 18 15q-43 35 -43 84z" />
    <glyph glyph-name="dieresis" unicode="&#xa8;" 
d="M129 520q0 27 25 36q6 2 13 2q27 0 36 -25q2 -6 2 -13q0 -27 -25 -36q-6 -2 -13 -2q-27 0 -36 25q-2 6 -2 13zM286 520q0 27 25 36q6 2 13 2q27 0 36 -25q2 -6 2 -13q0 -27 -25 -36q-6 -2 -13 -2q-27 0 -36 25q-2 6 -2 13z" />
    <glyph glyph-name="copyright" unicode="&#xa9;" 
d="M410 155q-44 -49 -108 -49q-75 0 -120 62q-32 44 -32 98q0 78 58 126q41 34 93 34q70 0 114 -55l-49 -42q-23 29 -56 34q-4 1 -8 1q-50 0 -72 -48q-11 -22 -11 -50q0 -58 47 -85q19 -11 39 -11q37 0 57 20l5 5zM95 271q0 -94 72 -156q57 -49 133 -49q93 0 155 71
q50 57 50 133q0 94 -72 156q-57 49 -133 49q-93 0 -155 -71q-50 -57 -50 -133zM5 271v-1q0 124 89 211q86 84 206 84q124 0 211 -89q84 -86 84 -205q0 -124 -89 -211q-86 -84 -206 -84q-124 0 -211 89q-84 86 -84 206z" />
    <glyph glyph-name="ordfeminine" unicode="&#xaa;" 
d="M467 133h-306v63h306v-63zM358 400q-61 16 -96 16q-43 0 -53 -33q-1 -5 -1 -9q0 -18 30 -32q16 -7 34 -7q49 0 86 37v28zM412 339h56v-51h-110v26q-36 -29 -69 -33q-8 -1 -17 -1q-62 0 -97 39q-22 24 -22 55q0 56 54 83q26 13 55 13q31 0 96 -15v6q0 30 -48 41
q-17 4 -39 4q-36 0 -88 -22l-17 39l36 14q43 13 69 13q66 0 112 -35q29 -23 29 -50v-126z" />
    <glyph glyph-name="guillemotleft" unicode="&#xab;" 
d="M346 397l-167 -157l172 -160l-50 -53l-288 213l288 213zM570 397l-167 -157l172 -160l-49 -53l-288 213l288 213z" />
    <glyph glyph-name="logicalnot" unicode="&#xac;" 
d="M71 347h418v-222h-87v134h-331v88z" />
    <glyph glyph-name="uni00AD" unicode="&#xad;" 
d="M118 315h311v-87h-311v87z" />
    <glyph glyph-name="registered" unicode="&#xae;" 
d="M269 312h54q29 0 33 27t-18 40q-8 5 -18 5h-51v-72zM346 266l66 -122h-63l-68 122h-12v-125h-59v289h136q45 0 63 -48q19 -48 -6 -86q-19 -30 -57 -30zM95 271q0 -94 72 -156q57 -49 133 -49q93 0 155 71q50 57 50 133q0 94 -72 156q-57 49 -133 49q-93 0 -155 -71
q-50 -57 -50 -133zM5 271v-1q0 124 89 211q86 84 206 84q124 0 211 -89q84 -86 84 -205q0 -124 -89 -211q-86 -84 -206 -84q-124 0 -211 89q-84 86 -84 206z" />
    <glyph glyph-name="macron" unicode="&#xaf;" 
d="M71 562h347v-84h-347v84z" />
    <glyph glyph-name="degree" unicode="&#xb0;" 
d="M364 486h-1q0 -32 29 -45q9 -4 20 -4q31 0 45 28q4 10 4 20q0 32 -29 45q-9 4 -20 4q-32 0 -44 -30q-4 -8 -4 -18zM273 486v-1q0 70 57 112q37 27 82 27q70 0 112 -56q27 -37 27 -82q0 -70 -57 -112q-37 -27 -82 -27q-70 0 -112 56q-27 37 -27 83z" />
    <glyph glyph-name="plusminus" unicode="&#xb1;" 
d="M77 380h144v70h90v-70h149v-90h-149v-67h-90v67h-144v90zM77 149h385v-87h-385v87z" />
    <glyph glyph-name="twosuperior" unicode="&#xb2;" 
d="M178 507v15q0 65 63 96q30 15 64 15q53 0 90 -33q27 -25 27 -58q0 -61 -75 -110l-75 -48q-28 -20 -28 -40h106v38h54v-92h-216v53q0 55 71 101l75 46q31 23 31 46q0 16 -24 30q-16 10 -36 10q-70 0 -70 -69h-57z" />
    <glyph glyph-name="threesuperior" unicode="&#xb3;" 
d="M230 380q30 -37 62 -38q43 0 62 34q6 11 6 22q0 42 -32 51q-4 1 -8 1h-28v57h24q28 0 40 23q3 6 3 11q0 23 -31 33q-12 4 -27 4q-34 0 -69 -39l-4 -4l-42 37q59 60 115 63q59 0 93 -36q22 -24 22 -57q0 -38 -33 -64q30 -30 33 -88q0 -64 -65 -93q-29 -12 -59 -12
q-58 0 -106 60z" />
    <glyph glyph-name="acute" unicode="&#xb4;" 
d="M403 657l-169 -175h-46l122 175h93z" />
    <glyph glyph-name="mu" unicode="&#xb5;" 
d="M427 38q-88 -52 -150 -52q-55 0 -106 28v-206h-90v534h-59v84h149v-254q6 -48 45 -79q27 -20 61 -20q58 0 142 54q4 3 8 5v210h-59v84h148v-342h60v-84h-149v38z" />
    <glyph glyph-name="paragraph" unicode="&#xb6;" 
d="M373 -99h-163v84h73v201h-106q-88 0 -137 75q-34 53 -34 125q0 112 87 156q38 20 84 20h418v-84h-53v-493h52v-84h-142v577h-79v-577z" />
    <glyph glyph-name="periodcentered" unicode="&#xb7;" 
d="M221 248q0 41 41 62q19 9 41 9q50 0 73 -38q9 -15 9 -33q0 -40 -40 -61q-19 -10 -42 -10q-48 0 -72 37q-10 16 -10 34z" />
    <glyph glyph-name="cedilla" unicode="&#xb8;" 
d="M334 26l-10 -54q62 13 97 -30q31 -38 12 -79q-27 -57 -130 -57q-17 0 -35 2l5 34q90 -12 122 26q9 10 8 20q-6 67 -93 49l-25 -6l12 94z" />
    <glyph glyph-name="onesuperior" unicode="&#xb9;" 
d="M185 568l89 62h57v-283h76v-54h-210v54h77v217l-58 -40z" />
    <glyph glyph-name="ordmasculine" unicode="&#xba;" 
d="M449 133h-288v63h288v-63zM298 553q65 0 108 -53q29 -36 29 -80q0 -63 -55 -105q-37 -28 -82 -28q-66 0 -109 53q-29 37 -29 80q0 63 54 104q38 29 84 29zM298 499q-44 0 -70 -38q-14 -20 -14 -41q0 -40 39 -65q21 -14 45 -14q43 0 69 37q14 20 14 42q0 39 -38 65
q-21 14 -45 14z" />
    <glyph glyph-name="guillemotright" unicode="&#xbb;" 
d="M249 397l45 56l288 -213l-288 -213l-50 53l172 160zM27 397l45 56l288 -213l-288 -213l-50 53l172 160z" />
    <glyph glyph-name="onequarter" unicode="&#xbc;" 
d="M174 13l207 628l55 -18l-207 -628zM300 136l182 241h63v-221h34v-63h-34v-31h40v-60h-144v60h41v31h-182v43zM482 271l-90 -115h90v115zM19 566l89 61h56v-283h76v-54h-210v54h78v217l-58 -40z" />
    <glyph glyph-name="onehalf" unicode="&#xbd;" 
d="M174 13l207 628l55 -18l-207 -628zM19 566l89 61h56v-283h76v-54h-210v54h78v217l-58 -40zM356 216v15q0 65 63 96q30 15 64 15q53 0 90 -33q27 -25 27 -58q0 -61 -75 -110l-75 -48q-28 -20 -28 -40h106v38h54v-92h-216v53q0 55 71 101l75 46q31 23 31 46q0 16 -24 30
q-16 10 -36 10q-71 0 -71 -69h-56z" />
    <glyph glyph-name="threequarters" unicode="&#xbe;" 
d="M171 13l207 628l55 -18l-207 -628zM300 136l182 241h63v-221h34v-63h-34v-31h40v-60h-144v60h41v31h-182v43zM482 271l-90 -115h90v115zM69 380q31 -37 63 -38q43 0 62 34q6 11 6 22q0 42 -32 51q-4 1 -8 1h-29v57h25q28 0 40 23q3 6 3 11q0 23 -31 33q-13 4 -28 4
q-35 0 -72 -43l-42 37q58 61 114 63q59 0 94 -37q22 -23 22 -56q0 -38 -33 -64q30 -30 33 -88q0 -64 -65 -93q-29 -12 -59 -12q-58 0 -106 60z" />
    <glyph glyph-name="questiondown" unicode="&#xbf;" 
d="M282 403v-58q0 -45 -55 -92l-57 -48q-42 -41 -42 -86q0 -48 65 -64q61 -15 114 7q35 15 35 39v18h86v-18q0 -67 -84 -99q-85 -32 -180 -9q-98 24 -121 92q-5 16 -5 34q0 63 67 121l59 52q28 28 28 53v58h90zM316 504q0 -40 -40 -61q-19 -10 -42 -10q-48 0 -72 37
q-10 16 -10 34q0 40 40 61q19 10 42 10q48 0 72 -37q10 -16 10 -34z" />
    <glyph glyph-name="Agrave" unicode="&#xc0;" 
d="M192 777h93l122 -175h-47zM255 295h93l-49 134zM361 84h53l-50 149h-125l-50 -149h53v-84h-213v84h68l126 394h-101v84h233l150 -478h66v-84h-210v84z" />
    <glyph glyph-name="Aacute" unicode="&#xc1;" 
d="M407 777l-169 -175h-46l122 175h93zM255 295h93l-49 134zM361 84h53l-50 149h-125l-50 -149h53v-84h-213v84h68l126 394h-101v84h233l150 -478h66v-84h-210v84z" />
    <glyph glyph-name="Acircumflex" unicode="&#xc2;" 
d="M431 616l-14 -14l-115 93l-119 -93l-14 14l121 121h21zM255 295h93l-49 134zM361 84h53l-50 149h-125l-50 -149h53v-84h-213v84h68l126 394h-101v84h233l150 -478h66v-84h-210v84z" />
    <glyph glyph-name="Atilde" unicode="&#xc3;" 
d="M199 603q1 43 39 67q18 11 36 11q15 1 44 -22q16 -13 25 -12q34 3 54 30h5q3 -40 -25 -63q-14 -11 -32 -11q-23 1 -48 22q-15 13 -26 13q-40 -1 -62 -35h-10zM255 295h93l-49 134zM361 84h53l-50 149h-125l-50 -149h53v-84h-213v84h68l126 394h-101v84h233l150 -478h66
v-84h-210v84z" />
    <glyph glyph-name="Adieresis" unicode="&#xc4;" 
d="M183 640q0 27 25 36q6 2 13 2q27 0 36 -25q2 -6 2 -13q0 -27 -25 -36q-6 -2 -13 -2q-27 0 -36 25q-2 6 -2 13zM340 640q0 27 25 36q6 2 13 2q27 0 36 -25q2 -6 2 -13q0 -27 -25 -36q-6 -2 -13 -2q-27 0 -36 25q-2 6 -2 13zM255 295h93l-49 134zM361 84h53l-50 149h-125
l-50 -149h53v-84h-213v84h68l126 394h-101v84h233l150 -478h66v-84h-210v84z" />
    <glyph glyph-name="Aring" unicode="&#xc5;" 
d="M300 784q50 0 77 -43q14 -22 14 -48q0 -50 -43 -77q-22 -14 -48 -14q-50 0 -77 43q-14 22 -14 48q0 50 43 77q22 14 48 14zM300 750q-34 0 -51 -31q-6 -12 -6 -26q0 -34 31 -51q12 -6 26 -6q34 0 51 31q6 12 6 26q0 34 -31 51q-12 6 -26 6zM255 295h93l-49 134zM361 84
h53l-50 149h-125l-50 -149h53v-84h-213v84h68l126 394h-101v84h233l150 -478h66v-84h-210v84z" />
    <glyph glyph-name="AE" unicode="&#xc6;" 
d="M291 295v134l-44 -134h44zM487 391v-176h-71v57h-36v-188h139l12 76h60l-12 -160h-288v233h-60l-50 -149h53v-84h-213v84h68l126 394h-101v84h463l9 -151h-58l-9 67h-139v-122h36v35h71z" />
    <glyph glyph-name="Ccedilla" unicode="&#xc7;" 
d="M281 -2l-10 -54q62 13 97 -30q31 -38 12 -79q-27 -57 -130 -57q-17 0 -35 2l5 34q90 -12 122 26q9 10 8 20q-6 67 -93 49l-25 -6l12 94zM325 564q63 0 94 -24q4 -2 8 -6q10 -7 11 -5t1 5q3 22 12 41l62 -16q-19 -52 -19 -67q0 -22 19 -69l-73 -17q-21 41 -69 63
q-23 10 -46 10q-63 0 -107 -61q-39 -55 -39 -137q0 -92 54 -154q40 -46 92 -46t100 54q3 3 6 7l65 -63q-45 -56 -125 -75q-24 -6 -46 -6q-104 0 -174 89q-64 82 -64 194q0 124 76 208q68 75 162 75z" />
    <glyph glyph-name="Egrave" unicode="&#xc8;" 
d="M205 777h93l122 -175h-47zM448 391v-176h-71v57h-144v-188h247l12 76h60l-12 -160h-466v84h70v394h-70v84h464l9 -151h-58l-9 67h-247v-122h144v35h71z" />
    <glyph glyph-name="Eacute" unicode="&#xc9;" 
d="M420 777l-169 -175h-46l122 175h93zM448 391v-176h-71v57h-144v-188h247l12 76h60l-12 -160h-466v84h70v394h-70v84h464l9 -151h-58l-9 67h-247v-122h144v35h71z" />
    <glyph glyph-name="Ecircumflex" unicode="&#xca;" 
d="M444 616l-14 -14l-115 93l-119 -93l-14 14l121 121h21zM448 391v-176h-71v57h-144v-188h247l12 76h60l-12 -160h-466v84h70v394h-70v84h464l9 -151h-58l-9 67h-247v-122h144v35h71z" />
    <glyph glyph-name="Edieresis" unicode="&#xcb;" 
d="M196 640q0 27 25 36q6 2 13 2q27 0 36 -25q2 -6 2 -13q0 -27 -25 -36q-6 -2 -13 -2q-27 0 -36 25q-2 6 -2 13zM353 640q0 27 25 36q6 2 13 2q27 0 36 -25q2 -6 2 -13q0 -27 -25 -36q-6 -2 -13 -2q-27 0 -36 25q-2 6 -2 13zM448 391v-176h-71v57h-144v-188h247l12 76h60
l-12 -160h-466v84h70v394h-70v84h464l9 -151h-58l-9 67h-247v-122h144v35h71z" />
    <glyph glyph-name="Igrave" unicode="&#xcc;" 
d="M192 777h93l122 -175h-47zM258 478h-168v84h421v-84h-164v-394h163v-84h-421v84h169v394z" />
    <glyph glyph-name="Iacute" unicode="&#xcd;" 
d="M407 777l-169 -175h-46l122 175h93zM258 478h-168v84h421v-84h-164v-394h163v-84h-421v84h169v394z" />
    <glyph glyph-name="Icircumflex" unicode="&#xce;" 
d="M431 616l-14 -14l-115 93l-119 -93l-14 14l121 121h21zM258 478h-168v84h421v-84h-164v-394h163v-84h-421v84h169v394z" />
    <glyph glyph-name="Idieresis" unicode="&#xcf;" 
d="M183 640q0 27 25 36q6 2 13 2q27 0 36 -25q2 -6 2 -13q0 -27 -25 -36q-6 -2 -13 -2q-27 0 -36 25q-2 6 -2 13zM340 640q0 27 25 36q6 2 13 2q27 0 36 -25q2 -6 2 -13q0 -27 -25 -36q-6 -2 -13 -2q-27 0 -36 25q-2 6 -2 13zM258 478h-168v84h421v-84h-164v-394h163v-84
h-421v84h169v394z" />
    <glyph glyph-name="Eth" unicode="&#xd0;" 
d="M212 84h85q75 0 124 66q42 56 42 134q0 74 -46 133q-47 61 -120 61h-85v-134h74v-90h-74v-170zM52 84h70v170h-74v90h74v134h-70v84h276q113 0 178 -121q41 -78 42 -155q1 -83 -44 -166q-64 -120 -176 -120h-276v84z" />
    <glyph glyph-name="Ntilde" unicode="&#xd1;" 
d="M199 603q1 43 39 67q18 11 36 11q15 1 44 -22q16 -13 25 -12q34 3 54 30h5q3 -40 -25 -63q-14 -11 -32 -11q-23 1 -48 22q-15 13 -26 13q-40 -1 -62 -35h-10zM150 561l305 -405v322h-77v84h222v-84h-55v-485h-80l-317 422h-2v-331h78v-84h-224v84h56v394h-56v84h150v-1z
" />
    <glyph glyph-name="Ograve" unicode="&#xd2;" 
d="M192 786h93l122 -175h-47zM300 571q101 0 172 -91q66 -85 66 -199q0 -122 -74 -209q-69 -81 -164 -81q-101 0 -172 91q-66 85 -66 199q0 122 74 209q69 81 164 81zM300 480q-66 0 -110 -68q-37 -56 -37 -131q0 -100 60 -160q39 -39 87 -39q66 0 110 68q37 56 37 131
q0 100 -60 160q-39 39 -87 39z" />
    <glyph glyph-name="Oacute" unicode="&#xd3;" 
d="M407 786l-169 -175h-46l122 175h93zM300 571q101 0 172 -91q66 -85 66 -199q0 -122 -74 -209q-69 -81 -164 -81q-101 0 -172 91q-66 85 -66 199q0 122 74 209q69 81 164 81zM300 480q-66 0 -110 -68q-37 -56 -37 -131q0 -100 60 -160q39 -39 87 -39q66 0 110 68
q37 56 37 131q0 100 -60 160q-39 39 -87 39z" />
    <glyph glyph-name="Ocircumflex" unicode="&#xd4;" 
d="M431 625l-14 -14l-115 93l-119 -93l-14 14l121 121h21zM300 571q101 0 172 -91q66 -85 66 -199q0 -122 -74 -209q-69 -81 -164 -81q-101 0 -172 91q-66 85 -66 199q0 122 74 209q69 81 164 81zM300 480q-66 0 -110 -68q-37 -56 -37 -131q0 -100 60 -160q39 -39 87 -39
q66 0 110 68q37 56 37 131q0 100 -60 160q-39 39 -87 39z" />
    <glyph glyph-name="Otilde" unicode="&#xd5;" 
d="M199 612q1 43 39 67q18 11 36 11q15 1 44 -22q16 -13 25 -12q34 3 54 30h5q3 -40 -25 -63q-14 -11 -32 -11q-23 1 -48 22q-15 13 -26 13q-40 -1 -62 -35h-10zM300 571q101 0 172 -91q66 -85 66 -199q0 -122 -74 -209q-69 -81 -164 -81q-101 0 -172 91q-66 85 -66 199
q0 122 74 209q69 81 164 81zM300 480q-66 0 -110 -68q-37 -56 -37 -131q0 -100 60 -160q39 -39 87 -39q66 0 110 68q37 56 37 131q0 100 -60 160q-39 39 -87 39z" />
    <glyph glyph-name="Odieresis" unicode="&#xd6;" 
d="M183 649q0 27 25 36q6 2 13 2q27 0 36 -25q2 -6 2 -13q0 -27 -25 -36q-6 -2 -13 -2q-27 0 -36 25q-2 6 -2 13zM340 649q0 27 25 36q6 2 13 2q27 0 36 -25q2 -6 2 -13q0 -27 -25 -36q-6 -2 -13 -2q-27 0 -36 25q-2 6 -2 13zM300 571q101 0 172 -91q66 -85 66 -199
q0 -122 -74 -209q-69 -81 -164 -81q-101 0 -172 91q-66 85 -66 199q0 122 74 209q69 81 164 81zM300 480q-66 0 -110 -68q-37 -56 -37 -131q0 -100 60 -160q39 -39 87 -39q66 0 110 68q37 56 37 131q0 100 -60 160q-39 39 -87 39z" />
    <glyph glyph-name="multiply" unicode="&#xd7;" 
d="M155 174l91 90l-92 92l64 64l91 -92l91 91l64 -64l-91 -91l91 -91l-64 -64l-91 92l-90 -91z" />
    <glyph glyph-name="Oslash" unicode="&#xd8;" 
d="M300 571q61 0 118 -39l53 77l74 -52l-63 -90q56 -83 56 -186q0 -122 -74 -209q-69 -81 -164 -81q-64 0 -122 42l-53 -77l-74 52l64 92q-53 80 -53 181q0 122 74 209q69 81 164 81zM230 107q33 -25 70 -25q66 0 110 68q37 56 37 131q0 58 -22 105zM300 480q-66 0 -110 -68
q-37 -56 -37 -131q0 -54 20 -99l193 276q-31 22 -66 22z" />
    <glyph glyph-name="Ugrave" unicode="&#xd9;" 
d="M192 777h93l122 -175h-47zM572 478h-47v-299q0 -59 -54 -115q-70 -71 -175 -71q-99 0 -171 77q-52 56 -52 109v299h-45v84h204v-84h-75v-259q0 -54 38 -97q39 -42 101 -42q84 0 125 71q20 34 20 68v259h-73v84h204v-84z" />
    <glyph glyph-name="Uacute" unicode="&#xda;" 
d="M407 777l-169 -175h-46l122 175h93zM572 478h-47v-299q0 -59 -54 -115q-70 -71 -175 -71q-99 0 -171 77q-52 56 -52 109v299h-45v84h204v-84h-75v-259q0 -54 38 -97q39 -42 101 -42q84 0 125 71q20 34 20 68v259h-73v84h204v-84z" />
    <glyph glyph-name="Ucircumflex" unicode="&#xdb;" 
d="M431 616l-14 -14l-115 93l-119 -93l-14 14l121 121h21zM572 478h-47v-299q0 -59 -54 -115q-70 -71 -175 -71q-99 0 -171 77q-52 56 -52 109v299h-45v84h204v-84h-75v-259q0 -54 38 -97q39 -42 101 -42q84 0 125 71q20 34 20 68v259h-73v84h204v-84z" />
    <glyph glyph-name="Udieresis" unicode="&#xdc;" 
d="M183 640q0 27 25 36q6 2 13 2q27 0 36 -25q2 -6 2 -13q0 -27 -25 -36q-6 -2 -13 -2q-27 0 -36 25q-2 6 -2 13zM340 640q0 27 25 36q6 2 13 2q27 0 36 -25q2 -6 2 -13q0 -27 -25 -36q-6 -2 -13 -2q-27 0 -36 25q-2 6 -2 13zM572 478h-47v-299q0 -59 -54 -115
q-70 -71 -175 -71q-99 0 -171 77q-52 56 -52 109v299h-45v84h204v-84h-75v-259q0 -54 38 -97q39 -42 101 -42q84 0 125 71q20 34 20 68v259h-73v84h204v-84z" />
    <glyph glyph-name="Yacute" unicode="&#xdd;" 
d="M407 777l-169 -175h-46l122 175h93zM343 84h58v-84h-205v84h57v139l-186 255h-35v84h204v-84h-60l124 -166l123 166h-60v84h204v-84h-35l-189 -255v-139z" />
    <glyph glyph-name="Thorn" unicode="&#xde;" 
d="M212 223h134q66 0 104 32q23 20 23 48q0 81 -137 81h-124v-161zM53 84h69v394h-69v84h230v-86h-70v-16h173q86 0 134 -52q37 -40 37 -105q0 -95 -88 -140q-42 -22 -83 -22h-174v-57h70v-84h-229v84z" />
    <glyph glyph-name="germandbls" unicode="&#xdf;" 
d="M281 630q97 0 169 -62q64 -55 56 -112q-8 -68 -116 -94q-39 -9 -45 -15q-8 -7 -8 -22q0 -34 56 -58l97 -37q86 -40 87 -118q0 -69 -75 -101q-40 -16 -89 -16q-71 0 -109 26q-8 5 -11 -6q-1 -3 -13 -27h-62l14 33q9 20 9 39t-19 50q-2 4 -4 6h62q21 -43 112 -43
q98 0 98 39q0 29 -51 50l-97 35q-92 47 -95 128q0 72 103 100q10 3 23 6q35 8 31 41q-5 35 -49 56q-28 14 -64 14q-73 0 -91 -57q-5 -15 -5 -31v-454h-163v84h73v258h-73v84h73v79q0 77 90 110q41 15 86 15z" />
    <glyph glyph-name="agrave" unicode="&#xe0;" 
d="M196 652h93l122 -175h-47zM382 186q-90 26 -159 26q-66 0 -86 -48q-5 -11 -5 -21q0 -26 40 -48q31 -18 67 -18q81 0 143 63v46zM472 84h94v-84h-184v43q-51 -45 -104 -54q-18 -3 -39 -3q-89 0 -149 52q-49 43 -49 105q0 83 75 129q48 31 107 31q57 0 159 -26v10
q0 45 -63 65q-34 11 -82 11q-62 0 -146 -37l-28 65l59 23q71 23 115 23q96 0 171 -48q64 -42 64 -95v-210z" />
    <glyph glyph-name="aacute" unicode="&#xe1;" 
d="M411 652l-169 -175h-46l122 175h93zM382 186q-90 26 -159 26q-66 0 -86 -48q-5 -11 -5 -21q0 -26 40 -48q31 -18 67 -18q81 0 143 63v46zM472 84h94v-84h-184v43q-51 -45 -104 -54q-18 -3 -39 -3q-89 0 -149 52q-49 43 -49 105q0 83 75 129q48 31 107 31q57 0 159 -26v10
q0 45 -63 65q-34 11 -82 11q-62 0 -146 -37l-28 65l59 23q71 23 115 23q96 0 171 -48q64 -42 64 -95v-210z" />
    <glyph glyph-name="acircumflex" unicode="&#xe2;" 
d="M434 491l-14 -14l-115 93l-119 -93l-14 14l121 121h21zM382 186q-90 26 -159 26q-66 0 -86 -48q-5 -11 -5 -21q0 -26 40 -48q31 -18 67 -18q81 0 143 63v46zM472 84h94v-84h-184v43q-51 -45 -104 -54q-18 -3 -39 -3q-89 0 -149 52q-49 43 -49 105q0 83 75 129
q48 31 107 31q57 0 159 -26v10q0 45 -63 65q-34 11 -82 11q-62 0 -146 -37l-28 65l59 23q71 23 115 23q96 0 171 -48q64 -42 64 -95v-210z" />
    <glyph glyph-name="atilde" unicode="&#xe3;" 
d="M202 478q1 43 39 67q18 11 36 11q15 1 44 -22q16 -13 25 -12q34 3 54 30h5q3 -40 -25 -63q-14 -11 -32 -11q-23 1 -48 22q-15 13 -26 13q-40 -1 -62 -35h-10zM382 186q-90 26 -159 26q-66 0 -86 -48q-5 -11 -5 -21q0 -26 40 -48q31 -18 67 -18q81 0 143 63v46zM472 84h94
v-84h-184v43q-51 -45 -104 -54q-18 -3 -39 -3q-89 0 -149 52q-49 43 -49 105q0 83 75 129q48 31 107 31q57 0 159 -26v10q0 45 -63 65q-34 11 -82 11q-62 0 -146 -37l-28 65l59 23q71 23 115 23q96 0 171 -48q64 -42 64 -95v-210z" />
    <glyph glyph-name="adieresis" unicode="&#xe4;" 
d="M187 515q0 27 25 36q6 2 13 2q27 0 36 -25q2 -6 2 -13q0 -27 -25 -36q-6 -2 -13 -2q-27 0 -36 25q-2 6 -2 13zM344 515q0 27 25 36q6 2 13 2q27 0 36 -25q2 -6 2 -13q0 -27 -25 -36q-6 -2 -13 -2q-27 0 -36 25q-2 6 -2 13zM382 186q-90 26 -159 26q-66 0 -86 -48
q-5 -11 -5 -21q0 -26 40 -48q31 -18 67 -18q81 0 143 63v46zM472 84h94v-84h-184v43q-51 -45 -104 -54q-18 -3 -39 -3q-89 0 -149 52q-49 43 -49 105q0 83 75 129q48 31 107 31q57 0 159 -26v10q0 45 -63 65q-34 11 -82 11q-62 0 -146 -37l-28 65l59 23q71 23 115 23
q96 0 171 -48q64 -42 64 -95v-210z" />
    <glyph glyph-name="aring" unicode="&#xe5;" 
d="M303 659q50 0 77 -43q14 -22 14 -48q0 -50 -43 -77q-22 -14 -48 -14q-50 0 -77 43q-14 22 -14 48q0 50 43 77q22 14 48 14zM303 625q-34 0 -51 -31q-6 -12 -6 -26q0 -34 31 -51q12 -6 26 -6q34 0 51 31q6 12 6 26q0 34 -31 51q-12 6 -26 6zM382 186q-90 26 -159 26
q-66 0 -86 -48q-5 -11 -5 -21q0 -26 40 -48q31 -18 67 -18q81 0 143 63v46zM472 84h94v-84h-184v43q-51 -45 -104 -54q-18 -3 -39 -3q-89 0 -149 52q-49 43 -49 105q0 83 75 129q48 31 107 31q57 0 159 -26v10q0 45 -63 65q-34 11 -82 11q-62 0 -146 -37l-28 65l59 23
q71 23 115 23q96 0 171 -48q64 -42 64 -95v-210z" />
    <glyph glyph-name="ae" unicode="&#xe6;" 
d="M504 268q0 75 -70 75q-64 0 -73 -61q-1 -7 -1 -14h144zM270 186l-54 20q-22 6 -53 6q-62 0 -66 -52v-17q0 -35 35 -55q20 -11 47 -11q45 0 82 44q8 9 9 10v55zM319 58q-57 -69 -140 -72q-94 0 -142 62q-31 39 -31 95q0 95 71 138q37 22 86 22q40 0 77 -15q17 -7 31 -11
q0 80 -79 85q-7 1 -15 1q-40 0 -102 -29q-13 -5 -19 -8l-28 65l59 23l59 20q15 3 31 3q96 0 150 -57q39 39 80 45q12 2 26 2q160 0 160 -205l1 -33h-234q0 -72 42 -97q16 -10 36 -10q46 0 71 26q-11 -12 17 19l43 -63q-50 -50 -97 -60q-16 -4 -33 -4q-64 0 -106 43
q-7 6 -14 15z" />
    <glyph glyph-name="ccedilla" unicode="&#xe7;" 
d="M266 0l-10 -54q62 13 97 -30q31 -38 12 -79q-27 -57 -130 -57q-17 0 -35 2l5 34q90 -12 122 26q9 10 8 20q-6 67 -93 49l-25 -6l12 94zM424 394l15 32l62 -25l-15 -44q-4 -14 -2 -21l15 -36l-78 -26q-22 45 -79 63q-21 7 -42 7q-68 0 -113 -58q-26 -34 -26 -68
q0 -66 59 -109q38 -28 79 -28q70 0 124 38q2 2 4 3l42 -67q-50 -41 -134 -53q-17 -2 -32 -2q-111 0 -180 75q-54 59 -54 138q0 96 76 160q64 54 149 54q64 0 116 -35q10 -7 14 2z" />
    <glyph glyph-name="egrave" unicode="&#xe8;" 
d="M187 642h93l122 -175h-47zM422 268q-38 75 -128 75q-63 0 -103 -51q-11 -13 -14 -24h245zM519 189h-356q16 -53 60 -84q33 -23 76 -23q84 0 146 45l42 -63q-62 -52 -157 -62q-16 -2 -31 -2q-101 0 -171 71q-59 61 -59 142q0 96 76 160q64 54 149 54q103 0 170 -72
q52 -57 55 -133v-33z" />
    <glyph glyph-name="eacute" unicode="&#xe9;" 
d="M402 642l-169 -175h-46l122 175h93zM422 268q-38 75 -128 75q-63 0 -103 -51q-11 -13 -14 -24h245zM519 189h-356q16 -53 60 -84q33 -23 76 -23q84 0 146 45l42 -63q-62 -52 -157 -62q-16 -2 -31 -2q-101 0 -171 71q-59 61 -59 142q0 96 76 160q64 54 149 54
q103 0 170 -72q52 -57 55 -133v-33z" />
    <glyph glyph-name="ecircumflex" unicode="&#xea;" 
d="M425 481l-14 -14l-115 93l-119 -93l-14 14l121 121h21zM422 268q-38 75 -128 75q-63 0 -103 -51q-11 -13 -14 -24h245zM519 189h-356q16 -53 60 -84q33 -23 76 -23q84 0 146 45l42 -63q-62 -52 -157 -62q-16 -2 -31 -2q-101 0 -171 71q-59 61 -59 142q0 96 76 160
q64 54 149 54q103 0 170 -72q52 -57 55 -133v-33z" />
    <glyph glyph-name="edieresis" unicode="&#xeb;" 
d="M177 505q0 27 25 36q6 2 13 2q27 0 36 -25q2 -6 2 -13q0 -27 -25 -36q-6 -2 -13 -2q-27 0 -36 25q-2 6 -2 13zM334 505q0 27 25 36q6 2 13 2q27 0 36 -25q2 -6 2 -13q0 -27 -25 -36q-6 -2 -13 -2q-27 0 -36 25q-2 6 -2 13zM422 268q-38 75 -128 75q-63 0 -103 -51
q-11 -13 -14 -24h245zM519 189h-356q16 -53 60 -84q33 -23 76 -23q84 0 146 45l42 -63q-62 -52 -157 -62q-16 -2 -31 -2q-101 0 -171 71q-59 61 -59 142q0 96 76 160q64 54 149 54q103 0 170 -72q52 -57 55 -133v-33z" />
    <glyph glyph-name="igrave" unicode="&#xec;" 
d="M193 641h93l122 -175h-47zM262 342h-159v84h249v-342h147v-84h-396v84h159v258z" />
    <glyph glyph-name="iacute" unicode="&#xed;" 
d="M408 641l-169 -175h-46l122 175h93zM262 342h-159v84h249v-342h147v-84h-396v84h159v258z" />
    <glyph glyph-name="icircumflex" unicode="&#xee;" 
d="M432 480l-14 -14l-115 93l-119 -93l-14 14l121 121h21zM262 342h-159v84h249v-342h147v-84h-396v84h159v258z" />
    <glyph glyph-name="idieresis" unicode="&#xef;" 
d="M184 504q0 27 25 36q6 2 13 2q27 0 36 -25q2 -6 2 -13q0 -27 -25 -36q-6 -2 -13 -2q-27 0 -36 25q-2 6 -2 13zM341 504q0 27 25 36q6 2 13 2q27 0 36 -25q2 -6 2 -13q0 -27 -25 -36q-6 -2 -13 -2q-27 0 -36 25q-2 6 -2 13zM262 342h-159v84h249v-342h147v-84h-396v84h159
v258z" />
    <glyph glyph-name="eth" unicode="&#xf0;" 
d="M300 344q-64 0 -109 -52q-31 -37 -31 -79q0 -59 54 -101q40 -30 86 -30q65 0 109 53q30 36 30 78q0 60 -54 101q-39 30 -85 30zM209 494l41 51q-17 9 -42 18l27 70q29 -10 63 -29l61 76l71 -52l-62 -78q103 -98 137 -235q13 -51 13 -100q0 -105 -81 -168
q-61 -48 -143 -48q-101 0 -169 72q-56 61 -56 142q0 96 76 160q64 54 149 54q54 0 87 -19q5 -2 13 -7q-20 49 -70 94l-40 -51z" />
    <glyph glyph-name="ntilde" unicode="&#xf1;" 
d="M198 481q1 43 39 67q18 11 36 11q15 1 44 -22q16 -13 25 -12q34 3 54 30h5q3 -40 -25 -63q-14 -11 -32 -11q-23 1 -48 22q-15 13 -26 13q-40 -1 -62 -35h-10zM172 388h-1q88 52 150 52q67 0 134 -50q62 -47 62 -94v-212h59v-84h-208v84h60v162q0 43 -36 78q-30 29 -71 29
q-58 0 -142 -54q-4 -3 -8 -5v-210h59v-84h-208v84h60v258h-60v84h150v-38z" />
    <glyph glyph-name="ograve" unicode="&#xf2;" 
d="M192 649h93l122 -175h-47zM300 434q98 0 168 -73q61 -64 61 -148q0 -94 -75 -161q-66 -60 -154 -60q-98 0 -168 72q-62 65 -62 149q0 94 76 161q67 60 154 60zM300 344q-64 0 -109 -52q-31 -37 -31 -79q0 -59 54 -101q40 -30 86 -30q65 0 109 53q30 36 30 78
q0 60 -54 101q-39 30 -85 30z" />
    <glyph glyph-name="oacute" unicode="&#xf3;" 
d="M407 649l-169 -175h-46l122 175h93zM300 434q98 0 168 -73q61 -64 61 -148q0 -94 -75 -161q-66 -60 -154 -60q-98 0 -168 72q-62 65 -62 149q0 94 76 161q67 60 154 60zM300 344q-64 0 -109 -52q-31 -37 -31 -79q0 -59 54 -101q40 -30 86 -30q65 0 109 53q30 36 30 78
q0 60 -54 101q-39 30 -85 30z" />
    <glyph glyph-name="ocircumflex" unicode="&#xf4;" 
d="M431 488l-14 -14l-115 93l-119 -93l-14 14l121 121h21zM300 434q98 0 168 -73q61 -64 61 -148q0 -94 -75 -161q-66 -60 -154 -60q-98 0 -168 72q-62 65 -62 149q0 94 76 161q67 60 154 60zM300 344q-64 0 -109 -52q-31 -37 -31 -79q0 -59 54 -101q40 -30 86 -30
q65 0 109 53q30 36 30 78q0 60 -54 101q-39 30 -85 30z" />
    <glyph glyph-name="otilde" unicode="&#xf5;" 
d="M198 475q1 43 39 67q18 11 36 11q15 1 44 -22q16 -13 25 -12q34 3 54 30h5q3 -40 -25 -63q-14 -11 -32 -11q-23 1 -48 22q-15 13 -26 13q-40 -1 -62 -35h-10zM300 434q98 0 168 -73q61 -64 61 -148q0 -94 -75 -161q-66 -60 -154 -60q-98 0 -168 72q-62 65 -62 149
q0 94 76 161q67 60 154 60zM300 344q-64 0 -109 -52q-31 -37 -31 -79q0 -59 54 -101q40 -30 86 -30q65 0 109 53q30 36 30 78q0 60 -54 101q-39 30 -85 30z" />
    <glyph glyph-name="odieresis" unicode="&#xf6;" 
d="M183 512q0 27 25 36q6 2 13 2q27 0 36 -25q2 -6 2 -13q0 -27 -25 -36q-6 -2 -13 -2q-27 0 -36 25q-2 6 -2 13zM340 512q0 27 25 36q6 2 13 2q27 0 36 -25q2 -6 2 -13q0 -27 -25 -36q-6 -2 -13 -2q-27 0 -36 25q-2 6 -2 13zM300 434q98 0 168 -73q61 -64 61 -148
q0 -94 -75 -161q-66 -60 -154 -60q-98 0 -168 72q-62 65 -62 149q0 94 76 161q67 60 154 60zM300 344q-64 0 -109 -52q-31 -37 -31 -79q0 -59 54 -101q40 -30 86 -30q65 0 109 53q30 36 30 78q0 60 -54 101q-39 30 -85 30z" />
    <glyph glyph-name="divide" unicode="&#xf7;" 
d="M207 438q0 39 35 57q13 6 28 6q39 0 57 -35q6 -13 6 -28q0 -39 -35 -57q-13 -6 -28 -6q-39 0 -57 35q-6 13 -6 28zM207 110q0 39 35 57q13 6 28 6q39 0 57 -35q6 -13 6 -28q0 -39 -35 -57q-13 -6 -28 -6q-39 0 -57 35q-6 13 -6 28zM77 315h385v-87h-385v87z" />
    <glyph glyph-name="oslash" unicode="&#xf8;" 
d="M180 149l165 187q-22 8 -45 8q-64 0 -109 -52q-31 -37 -31 -79q0 -35 20 -64zM416 281l-166 -189q27 -10 50 -10q65 0 109 53q30 36 30 78q0 37 -23 68zM534 414l-57 -64q52 -62 52 -137q0 -94 -75 -161q-66 -60 -154 -60q-58 0 -112 30l-60 -69l-68 60l59 66
q-49 62 -49 134q0 94 76 161q67 60 154 60q56 0 107 -27l59 67z" />
    <glyph glyph-name="ugrave" unicode="&#xf9;" 
d="M191 641h93l122 -175h-47zM427 38q-88 -52 -150 -52q-85 0 -149 57q-47 42 -47 87v212h-59v84h208v-84h-60v-162q0 -43 36 -78q30 -29 71 -29q58 0 142 54q4 3 8 5v210h-59v84h208v-84h-60v-258h60v-84h-149v38z" />
    <glyph glyph-name="uacute" unicode="&#xfa;" 
d="M406 641l-169 -175h-46l122 175h93zM427 38q-88 -52 -150 -52q-85 0 -149 57q-47 42 -47 87v212h-59v84h208v-84h-60v-162q0 -43 36 -78q30 -29 71 -29q58 0 142 54q4 3 8 5v210h-59v84h208v-84h-60v-258h60v-84h-149v38z" />
    <glyph glyph-name="ucircumflex" unicode="&#xfb;" 
d="M430 480l-14 -14l-115 93l-119 -93l-14 14l121 121h21zM427 38q-88 -52 -150 -52q-85 0 -149 57q-47 42 -47 87v212h-59v84h208v-84h-60v-162q0 -43 36 -78q30 -29 71 -29q58 0 142 54q4 3 8 5v210h-59v84h208v-84h-60v-258h60v-84h-149v38z" />
    <glyph glyph-name="udieresis" unicode="&#xfc;" 
d="M182 504q0 27 25 36q6 2 13 2q27 0 36 -25q2 -6 2 -13q0 -27 -25 -36q-6 -2 -13 -2q-27 0 -36 25q-2 6 -2 13zM339 504q0 27 25 36q6 2 13 2q27 0 36 -25q2 -6 2 -13q0 -27 -25 -36q-6 -2 -13 -2q-27 0 -36 25q-2 6 -2 13zM427 38q-88 -52 -150 -52q-85 0 -149 57
q-47 42 -47 87v212h-59v84h208v-84h-60v-162q0 -43 36 -78q30 -29 71 -29q58 0 142 54q4 3 8 5v210h-59v84h208v-84h-60v-258h60v-84h-149v38z" />
    <glyph glyph-name="yacute" unicode="&#xfd;" 
d="M405 641l-169 -175h-46l122 175h93zM339 -168h-339v84h213l38 81l-174 345h-67v84h216v-84h-53l126 -248l121 248h-46v84h222v-84h-76l-211 -426h30v-84z" />
    <glyph glyph-name="thorn" unicode="&#xfe;" 
d="M109 -102v633l-71 -18v84l162 36v-253q52 42 102 51q18 3 38 3q98 0 168 -73q61 -64 61 -148q0 -94 -74 -161q-67 -60 -155 -60q-82 0 -140 55v-149h78v-90h-245v90h76zM340 82q65 0 109 53q30 36 30 78q0 60 -54 101q-39 30 -85 30q-64 0 -109 -52q-31 -37 -31 -79
q0 -59 54 -101q40 -30 86 -30z" />
    <glyph glyph-name="ydieresis" unicode="&#xff;" 
d="M181 504q0 27 25 36q6 2 13 2q27 0 36 -25q2 -6 2 -13q0 -27 -25 -36q-6 -2 -13 -2q-27 0 -36 25q-2 6 -2 13zM338 504q0 27 25 36q6 2 13 2q27 0 36 -25q2 -6 2 -13q0 -27 -25 -36q-6 -2 -13 -2q-27 0 -36 25q-2 6 -2 13zM339 -168h-339v84h213l38 81l-174 345h-67v84
h216v-84h-53l126 -248l121 248h-46v84h222v-84h-76l-211 -426h30v-84z" />
    <glyph glyph-name="Amacron" unicode="&#x100;" 
d="M126 686h347v-84h-347v84zM255 295h93l-49 134zM361 84h53l-50 149h-125l-50 -149h53v-84h-213v84h68l126 394h-101v84h233l150 -478h66v-84h-210v84z" />
    <glyph glyph-name="amacron" unicode="&#x101;" 
d="M130 561h347v-84h-347v84zM382 186q-90 26 -159 26q-66 0 -86 -48q-5 -11 -5 -21q0 -26 40 -48q31 -18 67 -18q81 0 143 63v46zM472 84h94v-84h-184v43q-51 -45 -104 -54q-18 -3 -39 -3q-89 0 -149 52q-49 43 -49 105q0 83 75 129q48 31 107 31q57 0 159 -26v10
q0 45 -63 65q-34 11 -82 11q-62 0 -146 -37l-28 65l59 23q71 23 115 23q96 0 171 -48q64 -42 64 -95v-210z" />
    <glyph glyph-name="Abreve" unicode="&#x102;" 
d="M403 698q-8 -63 -59 -87q-21 -9 -44 -9q-60 0 -89 51q-12 20 -15 45h24q13 -44 80 -44q59 0 79 44h24zM255 295h93l-49 134zM361 84h53l-50 149h-125l-50 -149h53v-84h-213v84h68l126 394h-101v84h233l150 -478h66v-84h-210v84z" />
    <glyph glyph-name="abreve" unicode="&#x103;" 
d="M407 573q-8 -63 -59 -87q-21 -9 -44 -9q-60 0 -89 51q-12 20 -15 45h24q13 -44 80 -44q59 0 79 44h24zM382 186q-90 26 -159 26q-66 0 -86 -48q-5 -11 -5 -21q0 -26 40 -48q31 -18 67 -18q81 0 143 63v46zM472 84h94v-84h-184v43q-51 -45 -104 -54q-18 -3 -39 -3
q-89 0 -149 52q-49 43 -49 105q0 83 75 129q48 31 107 31q57 0 159 -26v10q0 45 -63 65q-34 11 -82 11q-62 0 -146 -37l-28 65l59 23q71 23 115 23q96 0 171 -48q64 -42 64 -95v-210z" />
    <glyph glyph-name="Aogonek" unicode="&#x104;" 
d="M243 0h42q-38 -6 -48 -49q-4 -15 -2 -31q5 -35 65 -45q53 -9 85 35l20 -25q-35 -56 -100 -55q-62 1 -93 42q-17 21 -17 48q0 54 48 80zM255 295h93l-49 134zM361 84h53l-50 149h-125l-50 -149h53v-84h-213v84h68l126 394h-101v84h233l150 -478h66v-84h-210v84z" />
    <glyph glyph-name="aogonek" unicode="&#x105;" 
d="M246 -14h42q-38 -6 -48 -49q-4 -15 -2 -31q5 -35 65 -45q53 -9 85 35l20 -25q-35 -56 -100 -55q-62 1 -93 42q-17 21 -17 48q0 54 48 80zM382 186q-90 26 -159 26q-66 0 -86 -48q-5 -11 -5 -21q0 -26 40 -48q31 -18 67 -18q81 0 143 63v46zM472 84h94v-84h-184v43
q-51 -45 -104 -54q-18 -3 -39 -3q-89 0 -149 52q-49 43 -49 105q0 83 75 129q48 31 107 31q57 0 159 -26v10q0 45 -63 65q-34 11 -82 11q-62 0 -146 -37l-28 65l59 23q71 23 115 23q96 0 171 -48q64 -42 64 -95v-210z" />
    <glyph glyph-name="Cacute" unicode="&#x106;" 
d="M407 790l-169 -175h-46l122 175h93zM325 564q63 0 94 -24q4 -2 8 -6q10 -7 11 -5t1 5q3 22 12 41l62 -16q-19 -52 -19 -67q0 -22 19 -69l-73 -17q-21 41 -69 63q-23 10 -46 10q-63 0 -107 -61q-39 -55 -39 -137q0 -92 54 -154q40 -46 92 -46t100 54q3 3 6 7l65 -63
q-45 -56 -125 -75q-24 -6 -46 -6q-104 0 -174 89q-64 82 -64 194q0 124 76 208q68 75 162 75z" />
    <glyph glyph-name="cacute" unicode="&#x107;" 
d="M393 642l-169 -175h-46l122 175h93zM424 394l15 32l62 -25l-15 -44q-4 -14 -2 -21l15 -36l-78 -26q-22 45 -79 63q-21 7 -42 7q-68 0 -113 -58q-26 -34 -26 -68q0 -66 59 -109q38 -28 79 -28q70 0 124 38q2 2 4 3l42 -67q-50 -41 -134 -53q-17 -2 -32 -2q-111 0 -180 75
q-54 59 -54 138q0 96 76 160q64 54 149 54q64 0 116 -35q10 -7 14 2z" />
    <glyph glyph-name="Ccircumflex" unicode="&#x108;" 
d="M431 629l-14 -14l-115 93l-119 -93l-14 14l121 121h21zM325 564q63 0 94 -24q4 -2 8 -6q10 -7 11 -5t1 5q3 22 12 41l62 -16q-19 -52 -19 -67q0 -22 19 -69l-73 -17q-21 41 -69 63q-23 10 -46 10q-63 0 -107 -61q-39 -55 -39 -137q0 -92 54 -154q40 -46 92 -46t100 54
q3 3 6 7l65 -63q-45 -56 -125 -75q-24 -6 -46 -6q-104 0 -174 89q-64 82 -64 194q0 124 76 208q68 75 162 75z" />
    <glyph glyph-name="ccircumflex" unicode="&#x109;" 
d="M416 481l-14 -14l-115 93l-119 -93l-14 14l121 121h21zM424 394l15 32l62 -25l-15 -44q-4 -14 -2 -21l15 -36l-78 -26q-22 45 -79 63q-21 7 -42 7q-68 0 -113 -58q-26 -34 -26 -68q0 -66 59 -109q38 -28 79 -28q70 0 124 38q2 2 4 3l42 -67q-50 -41 -134 -53
q-17 -2 -32 -2q-111 0 -180 75q-54 59 -54 138q0 96 76 160q64 54 149 54q64 0 116 -35q10 -7 14 2z" />
    <glyph glyph-name="Cdotaccent" unicode="&#x10a;" 
d="M337 712v-97h-74v97h74zM325 564q63 0 94 -24q4 -2 8 -6q10 -7 11 -5t1 5q3 22 12 41l62 -16q-19 -52 -19 -67q0 -22 19 -69l-73 -17q-21 41 -69 63q-23 10 -46 10q-63 0 -107 -61q-39 -55 -39 -137q0 -92 54 -154q40 -46 92 -46t100 54q3 3 6 7l65 -63q-45 -56 -125 -75
q-24 -6 -46 -6q-104 0 -174 89q-64 82 -64 194q0 124 76 208q68 75 162 75z" />
    <glyph glyph-name="cdotaccent" unicode="&#x10b;" 
d="M322 564v-97h-74v97h74zM424 394l15 32l62 -25l-15 -44q-4 -14 -2 -21l15 -36l-78 -26q-22 45 -79 63q-21 7 -42 7q-68 0 -113 -58q-26 -34 -26 -68q0 -66 59 -109q38 -28 79 -28q70 0 124 38q2 2 4 3l42 -67q-50 -41 -134 -53q-17 -2 -32 -2q-111 0 -180 75
q-54 59 -54 138q0 96 76 160q64 54 149 54q64 0 116 -35q10 -7 14 2z" />
    <glyph glyph-name="Ccaron" unicode="&#x10c;" 
d="M431 736l-120 -121h-21l-121 121l14 14l119 -93l115 93zM325 564q63 0 94 -24q4 -2 8 -6q10 -7 11 -5t1 5q3 22 12 41l62 -16q-19 -52 -19 -67q0 -22 19 -69l-73 -17q-21 41 -69 63q-23 10 -46 10q-63 0 -107 -61q-39 -55 -39 -137q0 -92 54 -154q40 -46 92 -46t100 54
q3 3 6 7l65 -63q-45 -56 -125 -75q-24 -6 -46 -6q-104 0 -174 89q-64 82 -64 194q0 124 76 208q68 75 162 75z" />
    <glyph glyph-name="ccaron" unicode="&#x10d;" 
d="M416 588l-120 -121h-21l-121 121l14 14l119 -93l115 93zM424 394l15 32l62 -25l-15 -44q-4 -14 -2 -21l15 -36l-78 -26q-22 45 -79 63q-21 7 -42 7q-68 0 -113 -58q-26 -34 -26 -68q0 -66 59 -109q38 -28 79 -28q70 0 124 38q2 2 4 3l42 -67q-50 -41 -134 -53
q-17 -2 -32 -2q-111 0 -180 75q-54 59 -54 138q0 96 76 160q64 54 149 54q64 0 116 -35q10 -7 14 2z" />
    <glyph glyph-name="Dcaron" unicode="&#x10e;" 
d="M431 723l-120 -121h-21l-121 121l14 14l119 -93l115 93zM212 84h85q75 0 124 66q42 56 42 134q0 74 -46 133q-47 61 -120 61h-85v-394zM52 84h70v394h-70v84h276q113 0 178 -121q41 -78 42 -155q1 -83 -44 -166q-64 -120 -176 -120h-276v84z" />
    <glyph glyph-name="dcaron" unicode="&#x10f;" 
d="M438 794l-120 -121h-21l-121 121l14 14l119 -93l115 93zM574 0h-164v46q-52 -42 -102 -51q-18 -3 -38 -3q-98 0 -168 73q-61 64 -61 148q0 94 74 161q67 60 155 60q82 0 140 -55v149l-99 -19v87l190 37v-549h73v-84zM410 213q0 59 -54 101q-40 30 -86 30q-65 0 -109 -53
q-30 -36 -30 -78q0 -60 54 -101q39 -30 85 -30q64 0 109 52q31 37 31 79z" />
    <glyph glyph-name="Dcroat" unicode="&#x110;" 
d="M212 84h85q75 0 124 66q42 56 42 134q0 74 -46 133q-47 61 -120 61h-85v-134h74v-90h-74v-170zM52 84h70v170h-74v90h74v134h-70v84h276q113 0 178 -121q41 -78 42 -155q1 -83 -44 -166q-64 -120 -176 -120h-276v84z" />
    <glyph glyph-name="dcroat" unicode="&#x111;" 
d="M574 0h-164v46q-52 -42 -102 -51q-18 -3 -38 -3q-98 0 -168 73q-61 64 -61 148q0 94 74 161q67 60 155 60q82 0 140 -55v62h-65v50h65v37l-99 -19v87l190 37v-142h80v-50h-80v-357h73v-84zM410 213q0 59 -54 101q-40 30 -86 30q-65 0 -109 -53q-30 -36 -30 -78
q0 -60 54 -101q39 -30 85 -30q64 0 109 52q31 37 31 79z" />
    <glyph glyph-name="Emacron" unicode="&#x112;" 
d="M139 686h347v-84h-347v84zM448 391v-176h-71v57h-144v-188h247l12 76h60l-12 -160h-466v84h70v394h-70v84h464l9 -151h-58l-9 67h-247v-122h144v35h71z" />
    <glyph glyph-name="emacron" unicode="&#x113;" 
d="M120 551h347v-84h-347v84zM422 268q-38 75 -128 75q-63 0 -103 -51q-11 -13 -14 -24h245zM519 189h-356q16 -53 60 -84q33 -23 76 -23q84 0 146 45l42 -63q-62 -52 -157 -62q-16 -2 -31 -2q-101 0 -171 71q-59 61 -59 142q0 96 76 160q64 54 149 54q103 0 170 -72
q52 -57 55 -133v-33z" />
    <glyph glyph-name="Ebreve" unicode="&#x114;" 
d="M416 698q-8 -63 -59 -87q-21 -9 -44 -9q-60 0 -89 51q-12 20 -15 45h24q13 -44 80 -44q59 0 79 44h24zM448 391v-176h-71v57h-144v-188h247l12 76h60l-12 -160h-466v84h70v394h-70v84h464l9 -151h-58l-9 67h-247v-122h144v35h71z" />
    <glyph glyph-name="ebreve" unicode="&#x115;" 
d="M397 563q-8 -63 -59 -87q-21 -9 -44 -9q-60 0 -89 51q-12 20 -15 45h24q13 -44 80 -44q59 0 79 44h24zM422 268q-38 75 -128 75q-63 0 -103 -51q-11 -13 -14 -24h245zM519 189h-356q16 -53 60 -84q33 -23 76 -23q84 0 146 45l42 -63q-62 -52 -157 -62q-16 -2 -31 -2
q-101 0 -171 71q-59 61 -59 142q0 96 76 160q64 54 149 54q103 0 170 -72q52 -57 55 -133v-33z" />
    <glyph glyph-name="Edotaccent" unicode="&#x116;" 
d="M350 699v-97h-74v97h74zM448 391v-176h-71v57h-144v-188h247l12 76h60l-12 -160h-466v84h70v394h-70v84h464l9 -151h-58l-9 67h-247v-122h144v35h71z" />
    <glyph glyph-name="edotaccent" unicode="&#x117;" 
d="M331 564v-97h-74v97h74zM422 268q-38 75 -128 75q-63 0 -103 -51q-11 -13 -14 -24h245zM519 189h-356q16 -53 60 -84q33 -23 76 -23q84 0 146 45l42 -63q-62 -52 -157 -62q-16 -2 -31 -2q-101 0 -171 71q-59 61 -59 142q0 96 76 160q64 54 149 54q103 0 170 -72
q52 -57 55 -133v-33z" />
    <glyph glyph-name="Eogonek" unicode="&#x118;" 
d="M256 0h42q-38 -6 -48 -49q-4 -15 -2 -31q5 -35 65 -45q53 -9 85 35l20 -25q-35 -56 -100 -55q-62 1 -93 42q-17 21 -17 48q0 54 48 80zM448 391v-176h-71v57h-144v-188h247l12 76h60l-12 -160h-466v84h70v394h-70v84h464l9 -151h-58l-9 67h-247v-122h144v35h71z" />
    <glyph glyph-name="eogonek" unicode="&#x119;" 
d="M237 0h42q-38 -6 -48 -49q-4 -15 -2 -31q5 -35 65 -45q53 -9 85 35l20 -25q-35 -56 -100 -55q-62 1 -93 42q-17 21 -17 48q0 54 48 80zM422 268q-38 75 -128 75q-63 0 -103 -51q-11 -13 -14 -24h245zM519 189h-356q16 -53 60 -84q33 -23 76 -23q84 0 146 45l42 -63
q-62 -52 -157 -62q-16 -2 -31 -2q-101 0 -171 71q-59 61 -59 142q0 96 76 160q64 54 149 54q103 0 170 -72q52 -57 55 -133v-33z" />
    <glyph glyph-name="Ecaron" unicode="&#x11a;" 
d="M444 723l-120 -121h-21l-121 121l14 14l119 -93l115 93zM448 391v-176h-71v57h-144v-188h247l12 76h60l-12 -160h-466v84h70v394h-70v84h464l9 -151h-58l-9 67h-247v-122h144v35h71z" />
    <glyph glyph-name="ecaron" unicode="&#x11b;" 
d="M425 588l-120 -121h-21l-121 121l14 14l119 -93l115 93zM422 268q-38 75 -128 75q-63 0 -103 -51q-11 -13 -14 -24h245zM519 189h-356q16 -53 60 -84q33 -23 76 -23q84 0 146 45l42 -63q-62 -52 -157 -62q-16 -2 -31 -2q-101 0 -171 71q-59 61 -59 142q0 96 76 160
q64 54 149 54q103 0 170 -72q52 -57 55 -133v-33z" />
    <glyph glyph-name="Gcircumflex" unicode="&#x11c;" 
d="M434 627l-14 -14l-115 93l-119 -93l-14 14l121 121h21zM326 564q72 0 100 -32q10 -8 12 1q3 26 12 40l63 -14q-18 -49 -18 -66q0 -21 19 -69l-74 -18q-33 59 -94 71q-11 2 -21 2q-80 0 -120 -86q-24 -50 -24 -109q0 -119 72 -177q34 -28 69 -28q117 0 122 156h-69v72h145
v-72q-6 -166 -109 -217q-39 -20 -90 -20q-104 0 -173 91q-62 82 -62 193q0 121 77 206q70 76 163 76z" />
    <glyph glyph-name="gcircumflex" unicode="&#x11d;" 
d="M438 488l-14 -14l-115 93l-119 -93l-14 14l121 121h21zM575 426v-84h-76v-373q0 -63 -77 -115q-75 -51 -156 -51q-94 0 -193 58l16 82q46 -32 126 -48q28 -6 50 -6q82 0 122 50q20 25 21 55v65q-29 -38 -81 -57q-28 -10 -58 -10q-99 0 -169 73q-61 65 -61 148
q0 94 75 161q66 60 154 60q92 0 140 -66v58h167zM269 344q-64 0 -109 -52q-31 -37 -31 -79q0 -59 54 -101q40 -30 86 -30q65 0 109 53q30 36 30 78q0 60 -54 101q-39 30 -85 30z" />
    <glyph glyph-name="Gbreve" unicode="&#x11e;" 
d="M406 709q-8 -63 -59 -87q-21 -9 -44 -9q-60 0 -89 51q-12 20 -15 45h24q13 -44 80 -44q59 0 79 44h24zM326 564q72 0 100 -32q10 -8 12 1q3 26 12 40l63 -14q-18 -49 -18 -66q0 -21 19 -69l-74 -18q-33 59 -94 71q-11 2 -21 2q-80 0 -120 -86q-24 -50 -24 -109
q0 -119 72 -177q34 -28 69 -28q117 0 122 156h-69v72h145v-72q-6 -166 -109 -217q-39 -20 -90 -20q-104 0 -173 91q-62 82 -62 193q0 121 77 206q70 76 163 76z" />
    <glyph glyph-name="gbreve" unicode="&#x11f;" 
d="M410 570q-8 -63 -59 -87q-21 -9 -44 -9q-60 0 -89 51q-12 20 -15 45h24q13 -44 80 -44q59 0 79 44h24zM575 426v-84h-76v-373q0 -63 -77 -115q-75 -51 -156 -51q-94 0 -193 58l16 82q46 -32 126 -48q28 -6 50 -6q82 0 122 50q20 25 21 55v65q-29 -38 -81 -57
q-28 -10 -58 -10q-99 0 -169 73q-61 65 -61 148q0 94 75 161q66 60 154 60q92 0 140 -66v58h167zM269 344q-64 0 -109 -52q-31 -37 -31 -79q0 -59 54 -101q40 -30 86 -30q65 0 109 53q30 36 30 78q0 60 -54 101q-39 30 -85 30z" />
    <glyph glyph-name="Gdotaccent" unicode="&#x120;" 
d="M340 710v-97h-74v97h74zM326 564q72 0 100 -32q10 -8 12 1q3 26 12 40l63 -14q-18 -49 -18 -66q0 -21 19 -69l-74 -18q-33 59 -94 71q-11 2 -21 2q-80 0 -120 -86q-24 -50 -24 -109q0 -119 72 -177q34 -28 69 -28q117 0 122 156h-69v72h145v-72q-6 -166 -109 -217
q-39 -20 -90 -20q-104 0 -173 91q-62 82 -62 193q0 121 77 206q70 76 163 76z" />
    <glyph glyph-name="gdotaccent" unicode="&#x121;" 
d="M344 571v-97h-74v97h74zM575 426v-84h-76v-373q0 -63 -77 -115q-75 -51 -156 -51q-94 0 -193 58l16 82q46 -32 126 -48q28 -6 50 -6q82 0 122 50q20 25 21 55v65q-29 -38 -81 -57q-28 -10 -58 -10q-99 0 -169 73q-61 65 -61 148q0 94 75 161q66 60 154 60q92 0 140 -66
v58h167zM269 344q-64 0 -109 -52q-31 -37 -31 -79q0 -59 54 -101q40 -30 86 -30q65 0 109 53q30 36 30 78q0 60 -54 101q-39 30 -85 30z" />
    <glyph glyph-name="Gcommaaccent" unicode="&#x122;" 
d="M284 -2l-10 -54q62 13 97 -30q31 -38 12 -79q-27 -57 -130 -57q-17 0 -35 2l5 34q90 -12 122 26q9 10 8 20q-6 67 -93 49l-25 -6l12 94zM326 564q72 0 100 -32q10 -8 12 1q3 26 12 40l63 -14q-18 -49 -18 -66q0 -21 19 -69l-74 -18q-33 59 -94 71q-11 2 -21 2
q-80 0 -120 -86q-24 -50 -24 -109q0 -119 72 -177q34 -28 69 -28q117 0 122 156h-69v72h145v-72q-6 -166 -109 -217q-39 -20 -90 -20q-104 0 -173 91q-62 82 -62 193q0 121 77 206q70 76 163 76z" />
    <glyph glyph-name="gcommaaccent" unicode="&#x123;" 
d="M288 693l-10 -54q62 13 97 -30q31 -38 12 -79q-27 -57 -130 -57q-17 0 -35 2l5 34q90 -12 122 26q9 10 8 20q-6 67 -93 49l-25 -6l12 94zM575 426v-84h-76v-373q0 -63 -77 -115q-75 -51 -156 -51q-94 0 -193 58l16 82q46 -32 126 -48q28 -6 50 -6q82 0 122 50
q20 25 21 55v65q-29 -38 -81 -57q-28 -10 -58 -10q-99 0 -169 73q-61 65 -61 148q0 94 75 161q66 60 154 60q92 0 140 -66v58h167zM269 344q-64 0 -109 -52q-31 -37 -31 -79q0 -59 54 -101q40 -30 86 -30q65 0 109 53q30 36 30 78q0 60 -54 101q-39 30 -85 30z" />
    <glyph glyph-name="Hcircumflex" unicode="&#x124;" 
d="M431 616l-14 -14l-115 93l-119 -93l-14 14l121 121h21zM190 386h220v92h-71v84h230v-84h-69v-394h68v-84h-230v84h72v214h-220v-214h71v-84h-230v84h69v394h-69v84h230v-84h-71v-92z" />
    <glyph glyph-name="hcircumflex" unicode="&#x125;" 
d="M430 687l-14 -14l-115 93l-119 -93l-14 14l121 121h21zM172 388h-1q88 52 150 52q67 0 134 -50q62 -47 62 -94v-212h59v-84h-208v84h60v162q0 43 -36 78q-30 29 -71 29q-58 0 -142 -54q-4 -3 -8 -5v-210h59v-84h-208v84h60v446l-60 -18v84l150 37v-245z" />
    <glyph glyph-name="Hbar" unicode="&#x126;" 
d="M410 437v41h-71v84h230v-84h-69v-41h57v-50h-57v-303h68v-84h-230v84h72v165h-220v-165h71v-84h-230v84h69v303h-44v50h44v41h-69v84h230v-84h-71v-41h220zM190 337h220v50h-220v-50z" />
    <glyph glyph-name="hbar" unicode="&#x127;" 
d="M172 388h-1q88 52 150 52q67 0 134 -50q62 -47 62 -94v-212h59v-84h-208v84h60v162q0 43 -36 78q-30 29 -71 29q-58 0 -142 -54q-4 -3 -8 -5v-210h59v-84h-208v84h60v355h-52v50h52v41l-60 -18v84l149 37v-144h63v-50h-62v-51z" />
    <glyph glyph-name="Itilde" unicode="&#x128;" 
d="M199 603q1 43 39 67q18 11 36 11q15 1 44 -22q16 -13 25 -12q34 3 54 30h5q3 -40 -25 -63q-14 -11 -32 -11q-23 1 -48 22q-15 13 -26 13q-40 -1 -62 -35h-10zM258 478h-168v84h421v-84h-164v-394h163v-84h-421v84h169v394z" />
    <glyph glyph-name="itilde" unicode="&#x129;" 
d="M200 467q1 43 39 67q18 11 36 11q15 1 44 -22q16 -13 25 -12q34 3 54 30h5q3 -40 -25 -63q-14 -11 -32 -11q-23 1 -48 22q-15 13 -26 13q-40 -1 -62 -35h-10zM262 342h-159v84h249v-342h147v-84h-396v84h159v258z" />
    <glyph glyph-name="Imacron" unicode="&#x12a;" 
d="M126 686h347v-84h-347v84zM258 478h-168v84h421v-84h-164v-394h163v-84h-421v84h169v394z" />
    <glyph glyph-name="imacron" unicode="&#x12b;" 
d="M127 550h347v-84h-347v84zM262 342h-159v84h249v-342h147v-84h-396v84h159v258z" />
    <glyph glyph-name="Ibreve" unicode="&#x12c;" 
d="M403 698q-8 -63 -59 -87q-21 -9 -44 -9q-60 0 -89 51q-12 20 -15 45h24q13 -44 80 -44q59 0 79 44h24zM258 478h-168v84h421v-84h-164v-394h163v-84h-421v84h169v394z" />
    <glyph glyph-name="ibreve" unicode="&#x12d;" 
d="M404 562q-8 -63 -59 -87q-21 -9 -44 -9q-60 0 -89 51q-12 20 -15 45h24q13 -44 80 -44q59 0 79 44h24zM262 342h-159v84h249v-342h147v-84h-396v84h159v258z" />
    <glyph glyph-name="Iogonek" unicode="&#x12e;" 
d="M243 0h42q-38 -6 -48 -49q-4 -15 -2 -31q5 -35 65 -45q53 -9 85 35l20 -25q-35 -56 -100 -55q-62 1 -93 42q-17 21 -17 48q0 54 48 80zM258 478h-168v84h421v-84h-164v-394h163v-84h-421v84h169v394z" />
    <glyph glyph-name="iogonek" unicode="&#x12f;" 
d="M244 0h42q-38 -6 -48 -49q-4 -15 -2 -31q5 -35 65 -45q53 -9 85 35l20 -25q-35 -56 -100 -55q-62 1 -93 42q-17 21 -17 48q0 54 48 80zM262 342h-159v84h249v-342h147v-84h-396v84h159v258zM344 562v-97h-74v97h74z" />
    <glyph glyph-name="Idotaccent" unicode="&#x130;" 
d="M337 699v-97h-74v97h74zM258 478h-168v84h421v-84h-164v-394h163v-84h-421v84h169v394z" />
    <glyph glyph-name="dotlessi" unicode="&#x131;" 
d="M262 342h-159v84h249v-342h147v-84h-396v84h159v258z" />
    <glyph glyph-name="Jcircumflex" unicode="&#x134;" 
d="M503 616l-14 -14l-115 93l-119 -93l-14 14l121 121h21zM146 278q0 -87 6 -114q17 -77 92 -77t94 64q5 16 5 32v295h-174v84h361v-84h-97v-335q0 -54 -50 -98q-54 -46 -138 -46q-87 0 -145 67q-41 48 -41 102v110h87z" />
    <glyph glyph-name="jcircumflex" unicode="&#x135;" 
d="M424 480l-14 -14l-115 93l-119 -93l-14 14l121 121h21zM76 -84q33 -23 98 -26h11q31 0 59 35q19 22 19 44v373h-104v84h194v-457q0 -81 -61 -130q-45 -36 -107 -36q-81 0 -125 30z" />
    <glyph glyph-name="Kcommaaccent" unicode="&#x136;" 
d="M280 0l-10 -54q62 13 97 -30q31 -38 12 -79q-27 -57 -130 -57q-17 0 -35 2l5 34q90 -12 122 26q9 10 8 20q-6 67 -93 49l-25 -6l12 94zM293 562h260v-84h-111l-161 -171q112 -31 207 -193l16 -29h90v-85h-143q-79 144 -137 193q-41 35 -95 48l-43 -46v-111h91v-84h-262
v84h82v394h-82v84h247v-84h-76v-155l145 155h-28v84z" />
    <glyph glyph-name="kcommaaccent" unicode="&#x137;" 
d="M298 0l-10 -54q62 13 97 -30q31 -38 12 -79q-27 -57 -130 -57q-17 0 -35 2l5 34q90 -12 122 26q9 10 8 20q-6 67 -93 49l-25 -6l12 94zM309 84h35l-100 125l-26 -22v-187h-163v84h73v438l-73 -23v84l163 49v-354l78 64h-33v84h257v-84h-117l-101 -84l143 -174h134v-84
h-270v84z" />
    <glyph glyph-name="kgreenlandic" unicode="&#x138;" 
d="M293 426h260v-84h-111l-105 -85q-21 -16 -31 -22q95 -27 164 -103q19 -23 34 -47h90v-85h-143q-80 131 -227 174q-5 -4 -48 -33v-57h91v-84h-262v84h82v258h-82v84h247v-84h-76v-110q68 35 141 106l4 4h-28v84z" />
    <glyph glyph-name="Lacute" unicode="&#x139;" 
d="M417 777l-169 -175h-46l122 175h93zM156 478h-84v84h261v-84h-87v-394h198l17 139h87l-20 -223h-457v84h85v394z" />
    <glyph glyph-name="lacute" unicode="&#x13a;" 
d="M407 847l-169 -175h-46l122 175h93zM228 534l-136 -35v84l226 49v-548h190v-84h-416v84h136v450z" />
    <glyph glyph-name="Lcommaaccent" unicode="&#x13b;" 
d="M290 0l-10 -54q62 13 97 -30q31 -38 12 -79q-27 -57 -130 -57q-17 0 -35 2l5 34q90 -12 122 26q9 10 8 20q-6 67 -93 49l-25 -6l12 94zM156 478h-84v84h261v-84h-87v-394h198l17 139h87l-20 -223h-457v84h85v394z" />
    <glyph glyph-name="lcommaaccent" unicode="&#x13c;" 
d="M281 0l-10 -54q62 13 97 -30q31 -38 12 -79q-27 -57 -130 -57q-17 0 -35 2l5 34q90 -12 122 26q9 10 8 20q-6 67 -93 49l-25 -6l12 94zM228 534l-136 -35v84l226 49v-548h190v-84h-416v84h136v450z" />
    <glyph glyph-name="Lcaron" unicode="&#x13d;" 
d="M440 723l-120 -121h-21l-121 121l14 14l119 -93l115 93zM156 478h-84v84h261v-84h-87v-394h198l17 139h87l-20 -223h-457v84h85v394z" />
    <glyph glyph-name="lcaron" unicode="&#x13e;" 
d="M431 793l-120 -121h-21l-121 121l14 14l119 -93l115 93zM228 534l-136 -35v84l226 49v-548h190v-84h-416v84h136v450z" />
    <glyph glyph-name="Ldot" unicode="&#x13f;" 
d="M227 281q0 41 41 62q19 9 41 9q50 0 73 -38q9 -15 9 -33q0 -40 -40 -61q-19 -10 -42 -10q-48 0 -72 37q-10 16 -10 34zM156 478h-84v84h261v-84h-87v-394h198l17 139h87l-20 -223h-457v84h85v394z" />
    <glyph glyph-name="ldot" unicode="&#x140;" 
d="M368 248q0 41 41 62q19 9 41 9q50 0 73 -38q9 -15 9 -33q0 -40 -40 -61q-19 -10 -42 -10q-48 0 -72 37q-10 16 -10 34zM228 534l-136 -35v84l226 49v-548h190v-84h-416v84h136v450z" />
    <glyph glyph-name="Lslash" unicode="&#x141;" 
d="M156 478h-84v84h261v-84h-87v-90l62 35l45 -78l-107 -61v-200h198l17 139h87l-20 -223h-457v84h85v149l-68 -39l-45 78l113 64v142z" />
    <glyph glyph-name="lslash" unicode="&#x142;" 
d="M228 534l-136 -35v84l226 49v-186l60 34l44 -78l-104 -60v-258h190v-84h-416v84h136v207l-71 -40l-44 78l115 66v139z" />
    <glyph glyph-name="Nacute" unicode="&#x143;" 
d="M407 777l-169 -175h-46l122 175h93zM150 561l305 -405v322h-77v84h222v-84h-55v-485h-80l-317 422h-2v-331h78v-84h-224v84h56v394h-56v84h150v-1z" />
    <glyph glyph-name="nacute" unicode="&#x144;" 
d="M406 655l-169 -175h-46l122 175h93zM172 388h-1q88 52 150 52q67 0 134 -50q62 -47 62 -94v-212h59v-84h-208v84h60v162q0 43 -36 78q-30 29 -71 29q-58 0 -142 -54q-4 -3 -8 -5v-210h59v-84h-208v84h60v258h-60v84h150v-38z" />
    <glyph glyph-name="Ncommaaccent" unicode="&#x145;" 
d="M281 -7l-10 -54q62 13 97 -30q31 -38 12 -79q-27 -57 -130 -57q-17 0 -35 2l5 34q90 -12 122 26q9 10 8 20q-6 67 -93 49l-25 -6l12 94zM150 561l305 -405v322h-77v84h222v-84h-55v-485h-80l-317 422h-2v-331h78v-84h-224v84h56v394h-56v84h150v-1z" />
    <glyph glyph-name="ncommaaccent" unicode="&#x146;" 
d="M280 0l-10 -54q62 13 97 -30q31 -38 12 -79q-27 -57 -130 -57q-17 0 -35 2l5 34q90 -12 122 26q9 10 8 20q-6 67 -93 49l-25 -6l12 94zM172 388h-1q88 52 150 52q67 0 134 -50q62 -47 62 -94v-212h59v-84h-208v84h60v162q0 43 -36 78q-30 29 -71 29q-58 0 -142 -54
q-4 -3 -8 -5v-210h59v-84h-208v84h60v258h-60v84h150v-38z" />
    <glyph glyph-name="Ncaron" unicode="&#x147;" 
d="M431 723l-120 -121h-21l-121 121l14 14l119 -93l115 93zM150 561l305 -405v322h-77v84h222v-84h-55v-485h-80l-317 422h-2v-331h78v-84h-224v84h56v394h-56v84h150v-1z" />
    <glyph glyph-name="ncaron" unicode="&#x148;" 
d="M430 601l-120 -121h-21l-121 121l14 14l119 -93l115 93zM172 388h-1q88 52 150 52q67 0 134 -50q62 -47 62 -94v-212h59v-84h-208v84h60v162q0 43 -36 78q-30 29 -71 29q-58 0 -142 -54q-4 -3 -8 -5v-210h59v-84h-208v84h60v258h-60v84h150v-38z" />
    <glyph glyph-name="napostrophe" unicode="&#x149;" 
d="M172 388h-1q88 52 150 52q67 0 134 -50q62 -47 62 -94v-212h59v-84h-208v84h60v162q0 43 -36 78q-30 29 -71 29q-58 0 -142 -54q-4 -3 -8 -5v-210h59v-84h-208v84h60v258h-60v84h150v-38zM404 707l-117 -173h-40l78 173h79z" />
    <glyph glyph-name="Eng" unicode="&#x14a;" 
d="M321 0q0 -100 65 -100q58 0 67 47q2 13 2 59q-365 484 -309 409v-331h53v-84h-199v84h56v394h-56v84h150v-1l305 -405v322h-77v84h222v-84h-55v-522q0 -83 -62 -121q-39 -23 -97 -23q-104 0 -140 81q-13 31 -13 68v39h88z" />
    <glyph glyph-name="eng" unicode="&#x14b;" 
d="M241 -84q33 -23 98 -26h11q31 0 59 35q19 22 19 44v277q0 43 -36 78q-30 29 -71 29q-58 0 -142 -54q-4 -3 -8 -5v-210h59v-84h-208v84h60v258h-60v84h149v-38q88 52 150 52q67 0 135 -51q62 -46 62 -93v-327q0 -81 -61 -130q-45 -36 -107 -36q-81 0 -125 30z" />
    <glyph glyph-name="Omacron" unicode="&#x14c;" 
d="M126 695h347v-84h-347v84zM300 571q101 0 172 -91q66 -85 66 -199q0 -122 -74 -209q-69 -81 -164 -81q-101 0 -172 91q-66 85 -66 199q0 122 74 209q69 81 164 81zM300 480q-66 0 -110 -68q-37 -56 -37 -131q0 -100 60 -160q39 -39 87 -39q66 0 110 68q37 56 37 131
q0 100 -60 160q-39 39 -87 39z" />
    <glyph glyph-name="omacron" unicode="&#x14d;" 
d="M126 558h347v-84h-347v84zM300 434q98 0 168 -73q61 -64 61 -148q0 -94 -75 -161q-66 -60 -154 -60q-98 0 -168 72q-62 65 -62 149q0 94 76 161q67 60 154 60zM300 344q-64 0 -109 -52q-31 -37 -31 -79q0 -59 54 -101q40 -30 86 -30q65 0 109 53q30 36 30 78
q0 60 -54 101q-39 30 -85 30z" />
    <glyph glyph-name="Obreve" unicode="&#x14e;" 
d="M403 707q-8 -63 -59 -87q-21 -9 -44 -9q-60 0 -89 51q-12 20 -15 45h24q13 -44 80 -44q59 0 79 44h24zM300 571q101 0 172 -91q66 -85 66 -199q0 -122 -74 -209q-69 -81 -164 -81q-101 0 -172 91q-66 85 -66 199q0 122 74 209q69 81 164 81zM300 480q-66 0 -110 -68
q-37 -56 -37 -131q0 -100 60 -160q39 -39 87 -39q66 0 110 68q37 56 37 131q0 100 -60 160q-39 39 -87 39z" />
    <glyph glyph-name="obreve" unicode="&#x14f;" 
d="M403 570q-8 -63 -59 -87q-21 -9 -44 -9q-60 0 -89 51q-12 20 -15 45h24q13 -44 80 -44q59 0 79 44h24zM300 434q98 0 168 -73q61 -64 61 -148q0 -94 -75 -161q-66 -60 -154 -60q-98 0 -168 72q-62 65 -62 149q0 94 76 161q67 60 154 60zM300 344q-64 0 -109 -52
q-31 -37 -31 -79q0 -59 54 -101q40 -30 86 -30q65 0 109 53q30 36 30 78q0 60 -54 101q-39 30 -85 30z" />
    <glyph glyph-name="Ohungarumlaut" unicode="&#x150;" 
d="M317 786l-169 -175h-46l122 175h93zM499 786l-169 -175h-46l122 175h93zM300 571q101 0 172 -91q66 -85 66 -199q0 -122 -74 -209q-69 -81 -164 -81q-101 0 -172 91q-66 85 -66 199q0 122 74 209q69 81 164 81zM300 480q-66 0 -110 -68q-37 -56 -37 -131q0 -100 60 -160
q39 -39 87 -39q66 0 110 68q37 56 37 131q0 100 -60 160q-39 39 -87 39z" />
    <glyph glyph-name="ohungarumlaut" unicode="&#x151;" 
d="M316 649l-169 -175h-46l122 175h93zM498 649l-169 -175h-46l122 175h93zM300 434q98 0 168 -73q61 -64 61 -148q0 -94 -75 -161q-66 -60 -154 -60q-98 0 -168 72q-62 65 -62 149q0 94 76 161q67 60 154 60zM300 344q-64 0 -109 -52q-31 -37 -31 -79q0 -59 54 -101
q40 -30 86 -30q65 0 109 53q30 36 30 78q0 60 -54 101q-39 30 -85 30z" />
    <glyph glyph-name="OE" unicode="&#x152;" 
d="M274 0q-101 0 -175 84q-74 83 -74 197q0 119 80 204q72 77 169 77h299l9 -151h-58l-9 67h-152v-122h49v35h71v-176h-71v57h-49v-188h152l12 76h60l-12 -160h-301zM274 471q-67 0 -115 -60q-43 -55 -43 -130q0 -97 67 -154q42 -36 91 -36v380z" />
    <glyph glyph-name="oe" unicode="&#x153;" 
d="M185 344q-64 0 -79 -87q-3 -21 -3 -44q0 -102 54 -125q13 -6 28 -6q60 0 76 80q5 24 5 51q0 115 -64 129q-8 2 -17 2zM495 268q-4 52 -28 66q-15 9 -38 9q-59 0 -68 -59q-1 -8 -1 -16h135zM592 189h-233q0 -55 28 -86q18 -21 47 -21q35 0 72 34q9 8 12 11l42 -63
q-40 -40 -72 -53q-26 -11 -54 -11q-79 0 -122 51q-46 -59 -127 -59q-119 0 -157 118q-15 46 -15 103q0 122 67 182q43 39 105 39q81 0 125 -57q42 50 119 50q147 0 162 -170q1 -17 1 -35v-33z" />
    <glyph glyph-name="Racute" unicode="&#x154;" 
d="M391 777l-169 -175h-46l122 175h93zM169 306h184q78 0 105 45q11 18 11 41q0 74 -76 84q-16 2 -40 2h-184v-172zM359 222q39 -22 87 -101q14 -22 20 -37h91v-84h-148q-37 99 -72 142q-29 36 -85 80h-83v-138h103v-84h-263v84h70v394h-70v84h377q83 0 132 -51
q39 -41 39 -107q0 -106 -77 -155q-42 -27 -94 -27h-27z" />
    <glyph glyph-name="racute" unicode="&#x155;" 
d="M359 655l-169 -175h-46l122 175h93zM406 307q-33 46 -85 46q-58 0 -142 -54q-4 -3 -8 -5v-210h59v-84h-208v84h60v258h-60v84h149v-38q88 52 150 52t124 -41q23 -16 36 -32z" />
    <glyph glyph-name="Rcommaaccent" unicode="&#x156;" 
d="M264 0l-10 -54q62 13 97 -30q31 -38 12 -79q-27 -57 -130 -57q-17 0 -35 2l5 34q90 -12 122 26q9 10 8 20q-6 67 -93 49l-25 -6l12 94zM169 306h184q78 0 105 45q11 18 11 41q0 74 -76 84q-16 2 -40 2h-184v-172zM359 222q39 -22 87 -101q14 -22 20 -37h91v-84h-148
q-37 99 -72 142q-29 36 -85 80h-83v-138h103v-84h-263v84h70v394h-70v84h377q83 0 132 -51q39 -41 39 -107q0 -106 -77 -155q-42 -27 -94 -27h-27z" />
    <glyph glyph-name="rcommaaccent" unicode="&#x157;" 
d="M232 0l-10 -54q62 13 97 -30q31 -38 12 -79q-27 -57 -130 -57q-17 0 -35 2l5 34q90 -12 122 26q9 10 8 20q-6 67 -93 49l-25 -6l12 94zM406 307q-33 46 -85 46q-58 0 -142 -54q-4 -3 -8 -5v-210h59v-84h-208v84h60v258h-60v84h149v-38q88 52 150 52t124 -41
q23 -16 36 -32z" />
    <glyph glyph-name="Rcaron" unicode="&#x158;" 
d="M414 723l-120 -121h-21l-121 121l14 14l119 -93l115 93zM169 306h184q78 0 105 45q11 18 11 41q0 74 -76 84q-16 2 -40 2h-184v-172zM359 222q39 -22 87 -101q14 -22 20 -37h91v-84h-148q-37 99 -72 142q-29 36 -85 80h-83v-138h103v-84h-263v84h70v394h-70v84h377
q83 0 132 -51q39 -41 39 -107q0 -106 -77 -155q-42 -27 -94 -27h-27z" />
    <glyph glyph-name="rcaron" unicode="&#x159;" 
d="M383 601l-120 -121h-21l-121 121l14 14l119 -93l115 93zM406 307q-33 46 -85 46q-58 0 -142 -54q-4 -3 -8 -5v-210h59v-84h-208v84h60v258h-60v84h149v-38q88 52 150 52t124 -41q23 -16 36 -32z" />
    <glyph glyph-name="Sacute" unicode="&#x15a;" 
d="M403 792l-169 -175h-46l122 175h93zM483 577q-9 -23 -13 -88q0 -47 24 -76l-79 2q-9 47 -65 67q-22 8 -46 8q-62 0 -84 -34q-7 -11 -7 -24q0 -47 58 -74l106 -42q86 -42 97 -128q2 -14 2 -29q0 -78 -68 -132q-51 -40 -110 -40q-58 0 -114 47q-8 8 -11 -7q-5 -20 -15 -44
l-62 -1l15 42q9 27 9 62q0 28 -18 81q-4 10 -6 14h62l13 -29q29 -52 87 -72q21 -7 40 -7q75 0 89 63q2 11 2 23q0 61 -62 90l-113 42q-78 36 -87 115q-2 12 -2 26q0 79 80 120q46 24 99 24q51 0 101 -35q10 -7 12 0q2 22 9 36h57z" />
    <glyph glyph-name="sacute" unicode="&#x15b;" 
d="M401 648l-169 -175h-46l122 175h93zM480 432q-11 -23 -13 -49q0 -40 24 -62l-66 1q-28 40 -121 40q-67 0 -86 -24q-5 -6 -5 -13q0 -34 58 -57l111 -38q91 -45 94 -118q0 -64 -78 -98q-46 -19 -100 -19q-78 0 -116 26q-8 5 -11 -6l-13 -27h-63l15 33q9 20 9 39
q0 18 -20 50q-2 4 -4 6h63q21 -43 118 -43q102 0 112 33q1 3 1 6q0 30 -57 50l-104 35q-96 39 -102 115q-1 6 -1 13q0 62 84 92q44 15 95 15q72 0 102 -17q10 -7 12 1q1 8 4 12q2 2 4 5z" />
    <glyph glyph-name="Scircumflex" unicode="&#x15c;" 
d="M426 631l-14 -14l-115 93l-119 -93l-14 14l121 121h21zM483 577q-9 -23 -13 -88q0 -47 24 -76l-79 2q-9 47 -65 67q-22 8 -46 8q-62 0 -84 -34q-7 -11 -7 -24q0 -47 58 -74l106 -42q86 -42 97 -128q2 -14 2 -29q0 -78 -68 -132q-51 -40 -110 -40q-58 0 -114 47
q-8 8 -11 -7q-5 -20 -15 -44l-62 -1l15 42q9 27 9 62q0 28 -18 81q-4 10 -6 14h62l13 -29q29 -52 87 -72q21 -7 40 -7q75 0 89 63q2 11 2 23q0 61 -62 90l-113 42q-78 36 -87 115q-2 12 -2 26q0 79 80 120q46 24 99 24q51 0 101 -35q10 -7 12 0q2 22 9 36h57z" />
    <glyph glyph-name="scircumflex" unicode="&#x15d;" 
d="M424 487l-14 -14l-115 93l-119 -93l-14 14l121 121h21zM480 432q-11 -23 -13 -49q0 -40 24 -62l-66 1q-28 40 -121 40q-67 0 -86 -24q-5 -6 -5 -13q0 -34 58 -57l111 -38q91 -45 94 -118q0 -64 -78 -98q-46 -19 -100 -19q-78 0 -116 26q-8 5 -11 -6l-13 -27h-63l15 33
q9 20 9 39q0 18 -20 50q-2 4 -4 6h63q21 -43 118 -43q102 0 112 33q1 3 1 6q0 30 -57 50l-104 35q-96 39 -102 115q-1 6 -1 13q0 62 84 92q44 15 95 15q72 0 102 -17q10 -7 12 1q1 8 4 12q2 2 4 5z" />
    <glyph glyph-name="Scedilla" unicode="&#x15e;" 
d="M276 -18l-10 -54q62 13 97 -30q31 -38 12 -79q-27 -57 -130 -57q-17 0 -35 2l5 34q90 -12 122 26q9 10 8 20q-6 67 -93 49l-25 -6l12 94zM483 577q-9 -23 -13 -88q0 -47 24 -76l-79 2q-9 47 -65 67q-22 8 -46 8q-62 0 -84 -34q-7 -11 -7 -24q0 -47 58 -74l106 -42
q86 -42 97 -128q2 -14 2 -29q0 -78 -68 -132q-51 -40 -110 -40q-58 0 -114 47q-8 8 -11 -7q-5 -20 -15 -44l-62 -1l15 42q9 27 9 62q0 28 -18 81q-4 10 -6 14h62l13 -29q29 -52 87 -72q21 -7 40 -7q75 0 89 63q2 11 2 23q0 61 -62 90l-113 42q-78 36 -87 115q-2 12 -2 26
q0 79 80 120q46 24 99 24q51 0 101 -35q10 -7 12 0q2 22 9 36h57z" />
    <glyph glyph-name="scedilla" unicode="&#x15f;" 
d="M274 -12l-10 -54q62 13 97 -30q31 -38 12 -79q-27 -57 -130 -57q-17 0 -35 2l5 34q90 -12 122 26q9 10 8 20q-6 67 -93 49l-25 -6l12 94zM480 432q-11 -23 -13 -49q0 -40 24 -62l-66 1q-28 40 -121 40q-67 0 -86 -24q-5 -6 -5 -13q0 -34 58 -57l111 -38q91 -45 94 -118
q0 -64 -78 -98q-46 -19 -100 -19q-78 0 -116 26q-8 5 -11 -6l-13 -27h-63l15 33q9 20 9 39q0 18 -20 50q-2 4 -4 6h63q21 -43 118 -43q102 0 112 33q1 3 1 6q0 30 -57 50l-104 35q-96 39 -102 115q-1 6 -1 13q0 62 84 92q44 15 95 15q72 0 102 -17q10 -7 12 1q1 8 4 12
q2 2 4 5z" />
    <glyph glyph-name="Scaron" unicode="&#x160;" 
d="M426 738l-120 -121h-21l-121 121l14 14l119 -93l115 93zM483 577q-9 -23 -13 -88q0 -47 24 -76l-79 2q-9 47 -65 67q-22 8 -46 8q-62 0 -84 -34q-7 -11 -7 -24q0 -47 58 -74l106 -42q86 -42 97 -128q2 -14 2 -29q0 -78 -68 -132q-51 -40 -110 -40q-58 0 -114 47
q-8 8 -11 -7q-5 -20 -15 -44l-62 -1l15 42q9 27 9 62q0 28 -18 81q-4 10 -6 14h62l13 -29q29 -52 87 -72q21 -7 40 -7q75 0 89 63q2 11 2 23q0 61 -62 90l-113 42q-78 36 -87 115q-2 12 -2 26q0 79 80 120q46 24 99 24q51 0 101 -35q10 -7 12 0q2 22 9 36h57z" />
    <glyph glyph-name="scaron" unicode="&#x161;" 
d="M424 594l-120 -121h-21l-121 121l14 14l119 -93l115 93zM480 432q-11 -23 -13 -49q0 -40 24 -62l-66 1q-28 40 -121 40q-67 0 -86 -24q-5 -6 -5 -13q0 -34 58 -57l111 -38q91 -45 94 -118q0 -64 -78 -98q-46 -19 -100 -19q-78 0 -116 26q-8 5 -11 -6l-13 -27h-63l15 33
q9 20 9 39q0 18 -20 50q-2 4 -4 6h63q21 -43 118 -43q102 0 112 33q1 3 1 6q0 30 -57 50l-104 35q-96 39 -102 115q-1 6 -1 13q0 62 84 92q44 15 95 15q72 0 102 -17q10 -7 12 1q1 8 4 12q2 2 4 5z" />
    <glyph glyph-name="uni0162" unicode="&#x162;" 
d="M281 0l-10 -54q62 13 97 -30q31 -38 12 -79q-27 -57 -130 -57q-17 0 -35 2l5 34q90 -12 122 26q9 10 8 20q-6 67 -93 49l-25 -6l12 94zM495 343l-10 135h-140v-394h122v-84h-333v84h121v394h-140l-10 -135h-71l10 219h512l10 -219h-71z" />
    <glyph glyph-name="uni0163" unicode="&#x163;" 
d="M260 -19l-10 -54q62 13 97 -30q31 -38 12 -79q-27 -57 -130 -57q-17 0 -35 2l5 34q90 -12 122 26q9 10 8 20q-6 67 -93 49l-25 -6l12 94zM27 426h78v136h90v-136h225v-84h-225v-151q0 -58 51 -96q36 -27 82 -27q71 0 155 93l11 13l37 -65q-75 -83 -155 -115
q-33 -13 -60 -13q-113 0 -174 67q-37 41 -37 93v201h-78v84z" />
    <glyph glyph-name="Tcaron" unicode="&#x164;" 
d="M431 723l-120 -121h-21l-121 121l14 14l119 -93l115 93zM495 343l-10 135h-140v-394h122v-84h-333v84h121v394h-140l-10 -135h-71l10 219h512l10 -219h-71z" />
    <glyph glyph-name="tcaron" unicode="&#x165;" 
d="M410 723l-120 -121h-21l-121 121l14 14l119 -93l115 93zM27 426h78v136h90v-136h225v-84h-225v-151q0 -58 51 -96q36 -27 82 -27q71 0 155 93l11 13l37 -65q-75 -83 -155 -115q-33 -13 -60 -13q-113 0 -174 67q-37 41 -37 93v201h-78v84z" />
    <glyph glyph-name="Tbar" unicode="&#x166;" 
d="M495 343l-10 135h-140v-164h75v-90h-75v-140h122v-84h-333v84h121v140h-76v90h76v164h-140l-10 -135h-71l10 219h512l10 -219h-71z" />
    <glyph glyph-name="tbar" unicode="&#x167;" 
d="M27 426h78v136h90v-136h225v-84h-225v-65h80v-90h-80q2 -58 53 -94q35 -25 80 -25q71 0 155 93l11 13l37 -65q-75 -83 -155 -115q-33 -13 -60 -13q-113 0 -174 67q-37 41 -37 93v46h-60v90h60v65h-78v84z" />
    <glyph glyph-name="Utilde" unicode="&#x168;" 
d="M199 603q1 43 39 67q18 11 36 11q15 1 44 -22q16 -13 25 -12q34 3 54 30h5q3 -40 -25 -63q-14 -11 -32 -11q-23 1 -48 22q-15 13 -26 13q-40 -1 -62 -35h-10zM572 478h-47v-299q0 -59 -54 -115q-70 -71 -175 -71q-99 0 -171 77q-52 56 -52 109v299h-45v84h204v-84h-75
v-259q0 -54 38 -97q39 -42 101 -42q84 0 125 71q20 34 20 68v259h-73v84h204v-84z" />
    <glyph glyph-name="utilde" unicode="&#x169;" 
d="M198 467q1 43 39 67q18 11 36 11q15 1 44 -22q16 -13 25 -12q34 3 54 30h5q3 -40 -25 -63q-14 -11 -32 -11q-23 1 -48 22q-15 13 -26 13q-40 -1 -62 -35h-10zM427 38q-88 -52 -150 -52q-85 0 -149 57q-47 42 -47 87v212h-59v84h208v-84h-60v-162q0 -43 36 -78
q30 -29 71 -29q58 0 142 54q4 3 8 5v210h-59v84h208v-84h-60v-258h60v-84h-149v38z" />
    <glyph glyph-name="Umacron" unicode="&#x16a;" 
d="M126 686h347v-84h-347v84zM572 478h-47v-299q0 -59 -54 -115q-70 -71 -175 -71q-99 0 -171 77q-52 56 -52 109v299h-45v84h204v-84h-75v-259q0 -54 38 -97q39 -42 101 -42q84 0 125 71q20 34 20 68v259h-73v84h204v-84z" />
    <glyph glyph-name="umacron" unicode="&#x16b;" 
d="M125 550h347v-84h-347v84zM427 38q-88 -52 -150 -52q-85 0 -149 57q-47 42 -47 87v212h-59v84h208v-84h-60v-162q0 -43 36 -78q30 -29 71 -29q58 0 142 54q4 3 8 5v210h-59v84h208v-84h-60v-258h60v-84h-149v38z" />
    <glyph glyph-name="Ubreve" unicode="&#x16c;" 
d="M403 698q-8 -63 -59 -87q-21 -9 -44 -9q-60 0 -89 51q-12 20 -15 45h24q13 -44 80 -44q59 0 79 44h24zM572 478h-47v-299q0 -59 -54 -115q-70 -71 -175 -71q-99 0 -171 77q-52 56 -52 109v299h-45v84h204v-84h-75v-259q0 -54 38 -97q39 -42 101 -42q84 0 125 71
q20 34 20 68v259h-73v84h204v-84z" />
    <glyph glyph-name="ubreve" unicode="&#x16d;" 
d="M402 562q-8 -63 -59 -87q-21 -9 -44 -9q-60 0 -89 51q-12 20 -15 45h24q13 -44 80 -44q59 0 79 44h24zM427 38q-88 -52 -150 -52q-85 0 -149 57q-47 42 -47 87v212h-59v84h208v-84h-60v-162q0 -43 36 -78q30 -29 71 -29q58 0 142 54q4 3 8 5v210h-59v84h208v-84h-60v-258
h60v-84h-149v38z" />
    <glyph glyph-name="Uring" unicode="&#x16e;" 
d="M300 784q50 0 77 -43q14 -22 14 -48q0 -50 -43 -77q-22 -14 -48 -14q-50 0 -77 43q-14 22 -14 48q0 50 43 77q22 14 48 14zM300 750q-34 0 -51 -31q-6 -12 -6 -26q0 -34 31 -51q12 -6 26 -6q34 0 51 31q6 12 6 26q0 34 -31 51q-12 6 -26 6zM572 478h-47v-299
q0 -59 -54 -115q-70 -71 -175 -71q-99 0 -171 77q-52 56 -52 109v299h-45v84h204v-84h-75v-259q0 -54 38 -97q39 -42 101 -42q84 0 125 71q20 34 20 68v259h-73v84h204v-84z" />
    <glyph glyph-name="uring" unicode="&#x16f;" 
d="M299 648q50 0 77 -43q14 -22 14 -48q0 -50 -43 -77q-22 -14 -48 -14q-50 0 -77 43q-14 22 -14 48q0 50 43 77q22 14 48 14zM299 614q-34 0 -51 -31q-6 -12 -6 -26q0 -34 31 -51q12 -6 26 -6q34 0 51 31q6 12 6 26q0 34 -31 51q-12 6 -26 6zM427 38q-88 -52 -150 -52
q-85 0 -149 57q-47 42 -47 87v212h-59v84h208v-84h-60v-162q0 -43 36 -78q30 -29 71 -29q58 0 142 54q4 3 8 5v210h-59v84h208v-84h-60v-258h60v-84h-149v38z" />
    <glyph glyph-name="Uhungarumlaut" unicode="&#x170;" 
d="M317 777l-169 -175h-46l122 175h93zM499 777l-169 -175h-46l122 175h93zM572 478h-47v-299q0 -59 -54 -115q-70 -71 -175 -71q-99 0 -171 77q-52 56 -52 109v299h-45v84h204v-84h-75v-259q0 -54 38 -97q39 -42 101 -42q84 0 125 71q20 34 20 68v259h-73v84h204v-84z" />
    <glyph glyph-name="uhungarumlaut" unicode="&#x171;" 
d="M316 641l-169 -175h-46l122 175h93zM498 641l-169 -175h-46l122 175h93zM427 38q-88 -52 -150 -52q-85 0 -149 57q-47 42 -47 87v212h-59v84h208v-84h-60v-162q0 -43 36 -78q30 -29 71 -29q58 0 142 54q4 3 8 5v210h-59v84h208v-84h-60v-258h60v-84h-149v38z" />
    <glyph glyph-name="Uogonek" unicode="&#x172;" 
d="M243 -7h42q-38 -6 -48 -49q-4 -15 -2 -31q5 -35 65 -45q53 -9 85 35l20 -25q-35 -56 -100 -55q-62 1 -93 42q-17 21 -17 48q0 54 48 80zM572 478h-47v-299q0 -59 -54 -115q-70 -71 -175 -71q-99 0 -171 77q-52 56 -52 109v299h-45v84h204v-84h-75v-259q0 -54 38 -97
q39 -42 101 -42q84 0 125 71q20 34 20 68v259h-73v84h204v-84z" />
    <glyph glyph-name="uogonek" unicode="&#x173;" 
d="M242 -14h42q-38 -6 -48 -49q-4 -15 -2 -31q5 -35 65 -45q53 -9 85 35l20 -25q-35 -56 -100 -55q-62 1 -93 42q-17 21 -17 48q0 54 48 80zM427 38q-88 -52 -150 -52q-85 0 -149 57q-47 42 -47 87v212h-59v84h208v-84h-60v-162q0 -43 36 -78q30 -29 71 -29q58 0 142 54
q4 3 8 5v210h-59v84h208v-84h-60v-258h60v-84h-149v38z" />
    <glyph glyph-name="Wcircumflex" unicode="&#x174;" 
d="M431 616l-14 -14l-115 93l-119 -93l-14 14l121 121h21zM402 562h198v-84h-24l-129 -493h-57l-90 325l-91 -325h-51l-130 493h-28v84h198v-84h-92l72 -280l78 259h84l78 -254l75 275h-91v84z" />
    <glyph glyph-name="wcircumflex" unicode="&#x175;" 
d="M431 480l-14 -14l-115 93l-119 -93l-14 14l121 121h21zM131 342l56 -205l73 188h80l70 -188l62 205h-73v84h201v-84h-36l-114 -366h-66l-84 220l-87 -220h-61l-113 366h-39v84h201v-84h-70z" />
    <glyph glyph-name="Ycircumflex" unicode="&#x176;" 
d="M431 616l-14 -14l-115 93l-119 -93l-14 14l121 121h21zM343 84h58v-84h-205v84h57v139l-186 255h-35v84h204v-84h-60l124 -166l123 166h-60v84h204v-84h-35l-189 -255v-139z" />
    <glyph glyph-name="ycircumflex" unicode="&#x177;" 
d="M429 480l-14 -14l-115 93l-119 -93l-14 14l121 121h21zM339 -168h-339v84h213l38 81l-174 345h-67v84h216v-84h-53l126 -248l121 248h-46v84h222v-84h-76l-211 -426h30v-84z" />
    <glyph glyph-name="Ydieresis" unicode="&#x178;" 
d="M183 640q0 27 25 36q6 2 13 2q27 0 36 -25q2 -6 2 -13q0 -27 -25 -36q-6 -2 -13 -2q-27 0 -36 25q-2 6 -2 13zM340 640q0 27 25 36q6 2 13 2q27 0 36 -25q2 -6 2 -13q0 -27 -25 -36q-6 -2 -13 -2q-27 0 -36 25q-2 6 -2 13zM343 84h58v-84h-205v84h57v139l-186 255h-35v84
h204v-84h-60l124 -166l123 166h-60v84h204v-84h-35l-189 -255v-139z" />
    <glyph glyph-name="Zacute" unicode="&#x179;" 
d="M405 777l-169 -175h-46l122 175h93zM412 84l9 119h83l-15 -203h-390v20l258 458h-178l-4 -119h-84l9 203h388v-23l-258 -455h182z" />
    <glyph glyph-name="zacute" unicode="&#x17a;" 
d="M407 641l-169 -175h-46l122 175h93zM499 355l-268 -271h211v36h75v-120h-418v74l265 268h-204v-36h-77v120h416v-71z" />
    <glyph glyph-name="Zdotaccent" unicode="&#x17b;" 
d="M334 699v-97h-74v97h74zM412 84l9 119h83l-15 -203h-390v20l258 458h-178l-4 -119h-84l9 203h388v-23l-258 -455h182z" />
    <glyph glyph-name="zdotaccent" unicode="&#x17c;" 
d="M337 563v-97h-74v97h74zM499 355l-268 -271h211v36h75v-120h-418v74l265 268h-204v-36h-77v120h416v-71z" />
    <glyph glyph-name="Zcaron" unicode="&#x17d;" 
d="M429 723l-120 -121h-21l-121 121l14 14l119 -93l115 93zM412 84l9 119h83l-15 -203h-390v20l258 458h-178l-4 -119h-84l9 203h388v-23l-258 -455h182z" />
    <glyph glyph-name="zcaron" unicode="&#x17e;" 
d="M431 587l-120 -121h-21l-121 121l14 14l119 -93l115 93zM499 355l-268 -271h211v36h75v-120h-418v74l265 268h-204v-36h-77v120h416v-71z" />
    <glyph glyph-name="longs" unicode="&#x17f;" 
d="M184 84v257h-73v85h73v79q0 77 90 110q41 15 86 15q83 0 148 -47l-38 -76q-36 26 -60 31q-17 4 -40 4q-72 0 -91 -57q-5 -14 -5 -30v-371h167v-84h-330v84h73z" />
    <glyph glyph-name="uni0182" unicode="&#x182;" 
d="M343 337q-66 0 -110 -51q-30 -35 -30 -77q0 -60 55 -99q39 -28 85 -28q66 0 110 52q29 35 29 76q0 60 -56 100q-38 27 -83 27zM465 478h-263v-103q57 52 141 52q101 0 170 -73q59 -62 59 -144q0 -94 -76 -160q-66 -58 -153 -58q-74 0 -137 51l-3 3v-46h-164v84h73v394
h-77v84h493l11 -145h-66z" />
    <glyph glyph-name="uni0186" unicode="&#x186;" 
d="M289 -6q-63 0 -94 24q-4 2 -8 6q-10 7 -11 3q-1 -1 -1 -4q-3 -26 -12 -40l-62 16q19 52 19 67q0 23 -19 68l73 18q21 -41 69 -63q23 -10 46 -10q63 0 107 61q39 55 39 137q0 92 -54 154q-40 46 -92 46t-100 -54q-3 -3 -6 -7l-65 63q44 56 125 74q24 6 46 6q104 0 174 -90
q64 -81 64 -192q0 -124 -76 -208q-68 -75 -162 -75z" />
    <glyph glyph-name="uni0189" unicode="&#x189;" 
d="M212 84h85q75 0 124 66q42 56 42 134q0 74 -46 133q-47 61 -120 61h-85v-134h74v-90h-74v-170zM52 84h70v170h-74v90h74v134h-70v84h276q113 0 178 -121q41 -78 42 -155q1 -83 -44 -166q-64 -120 -176 -120h-276v84z" />
    <glyph glyph-name="uni018B" unicode="&#x18b;" 
d="M243 337q-66 0 -110 -51q-29 -35 -29 -76q0 -60 54 -100q39 -28 85 -28q66 0 110 51q30 34 30 76q0 60 -55 100q-39 28 -85 28zM121 478l-8 -61h-66l11 145h493v-84h-77v-394h73v-84h-164v46q-52 -42 -102 -51q-18 -3 -38 -3q-99 0 -169 72q-60 63 -60 146q0 95 76 161
q66 56 153 56q84 0 141 -52v103h-263z" />
    <glyph glyph-name="uni018E" unicode="&#x18e;" 
d="M159 170v176h71v-57h144v188h-247l-12 -76h-60l12 160h466v-84h-70v-394h70v-84h-464l-9 151h58l9 -67h247v122h-144v-35h-71z" />
    <glyph glyph-name="uni018F" unicode="&#x18f;" 
d="M445 283q2 17 2 25q0 95 -67 147q-42 32 -95 32q-88 0 -150 -72q-9 -11 -27 -35l-73 54q82 109 176 134q35 9 74 9q118 0 193 -86q66 -75 66 -183q0 -172 -93 -261q-70 -66 -179 -66q-95 0 -166 101q-54 84 -58 157v44h397zM432 196h-282q27 -75 78 -107q22 -14 44 -14
q120 0 160 121z" />
    <glyph glyph-name="uni0190" unicode="&#x190;" 
d="M455 66q-64 -67 -131 -76q-14 -2 -29 -2q-90 0 -140 81q-32 51 -32 111q0 75 52 129q-44 51 -44 110q0 75 64 117q40 26 86 26q65 0 117 -36q1 1 1 3l15 32l63 -25l-16 -45q-3 -14 -2 -20l15 -36l-77 -26l-3 -1q-12 36 -55 58q-25 13 -51 13q-36 0 -58 -32q-9 -14 -9 -28
q0 -38 32 -60q11 -7 20 -7h47h16v-90h-15h-47q-29 0 -49 -34q-12 -21 -12 -48q0 -60 43 -90q18 -12 38 -12q44 0 82 36l14 14z" />
    <glyph glyph-name="uni019C" unicode="&#x19c;" 
d="M287 53q-36 -44 -89 -63q-11 -4 -18 -4q-87 0 -113 87q-8 27 -8 57v348h-59v85h149l-1 -395v-1q0 -94 31 -94q41 0 75 57v348h-59v85h150v-396q0 -70 12 -85q6 -9 18 -9q45 0 69 43q4 8 6 15v347h-59v85h209v-85h-60v-394h60v-84h-124v50q-14 -30 -69 -54
q-21 -10 -31 -10q-73 0 -89 67z" />
    <glyph glyph-name="uni019D" unicode="&#x19d;" 
d="M146 -8q0 -28 -32 -64q-31 -36 -66 -36q-75 0 -94 35q-4 8 -4 17q0 34 28 41q27 8 43 -19q3 -6 5 -13q2 -12 -1 -21q31 -4 31 37v509h-56v84h150v-1l305 -405v322h-77v84h222v-84h-55v-485h-80l-317 422h-2v-423z" />
    <glyph glyph-name="uni019E" unicode="&#x19e;" horiz-adv-x="0" 
d="M-431 146l246 245l59 -59l-245 -246z" />
    <glyph glyph-name="uni019F" unicode="&#x19f;" horiz-adv-x="0" 
d="M-158 -121h-78v20h78v52h20v-124h-20v52z" />
    <glyph glyph-name="Ohorn" unicode="&#x1a0;" 
d="M757 571l-120 -246h-79l82 246h117zM300 571q101 0 172 -91q66 -85 66 -199q0 -122 -74 -209q-69 -81 -164 -81q-101 0 -172 91q-66 85 -66 199q0 122 74 209q69 81 164 81zM300 480q-66 0 -110 -68q-37 -56 -37 -131q0 -100 60 -160q39 -39 87 -39q66 0 110 68
q37 56 37 131q0 100 -60 160q-39 39 -87 39z" />
    <glyph glyph-name="ohorn" unicode="&#x1a1;" 
d="M748 434l-120 -246h-79l82 246h117zM300 434q98 0 168 -73q61 -64 61 -148q0 -94 -75 -161q-66 -60 -154 -60q-98 0 -168 72q-62 65 -62 149q0 94 76 161q67 60 154 60zM300 344q-64 0 -109 -52q-31 -37 -31 -79q0 -59 54 -101q40 -30 86 -30q65 0 109 53q30 36 30 78
q0 60 -54 101q-39 30 -85 30z" />
    <glyph glyph-name="uni01A7" unicode="&#x1a7;" 
d="M122 577h56q7 -13 9 -36q1 -8 8 -3q-1 0 4 3q50 35 101 35q81 0 135 -49q44 -39 44 -95q0 -96 -80 -137q-14 -7 -90 -33q-68 -24 -85 -60q-9 -18 -9 -43q0 -65 56 -81q16 -5 35 -5q58 0 105 49q13 14 22 30l13 29h62q-12 -18 -22 -80q-2 -10 -2 -15q0 -35 9 -62l15 -42
l-62 1q-10 24 -15 44q-3 15 -11 7q-56 -47 -114 -47q-74 0 -129 58q-49 50 -49 114q0 104 90 152q13 7 91 37q64 25 77 58q5 12 5 26q0 38 -51 53q-18 5 -40 5q-60 0 -93 -39q-14 -16 -18 -36l-79 -2q24 29 24 76q-3 58 -12 88z" />
    <glyph glyph-name="uni01A8" unicode="&#x1a8;" 
d="M120 432l54 1q7 -12 7 -11l1 -6q1 -7 6 -4l6 3q30 17 102 17q94 0 146 -43q32 -27 32 -64q0 -84 -97 -126q-9 -4 -95 -32q-64 -21 -70 -47q-1 -4 -1 -8q0 -31 78 -38q16 -1 35 -1q97 0 118 43h62q-14 -15 -22 -48q-1 -5 -1 -8q0 -19 9 -39l14 -33h-62q-12 24 -13 27
q-3 11 -11 6q-38 -26 -116 -26q-91 0 -144 46q-35 30 -35 71q0 76 91 116q7 3 96 34q68 23 76 52q1 5 1 11q0 31 -73 36q-10 1 -18 1q-84 0 -111 -27q-6 -6 -10 -13l-66 -1q24 22 23 62q0 25 -12 49z" />
    <glyph glyph-name="uni01A9" unicode="&#x1a9;" 
d="M32 0v84h64l125 197l-126 197h-63v84h503l49 -181h-72l-37 97h-283l126 -197l-125 -197h282l25 97h71l-36 -181h-503z" />
    <glyph glyph-name="Uhorn" unicode="&#x1af;" 
d="M791 562l-120 -246h-79l82 246h117zM572 478h-47v-299q0 -59 -54 -115q-70 -71 -175 -71q-99 0 -171 77q-52 56 -52 109v299h-45v84h204v-84h-75v-259q0 -54 38 -97q39 -42 101 -42q84 0 125 71q20 34 20 68v259h-73v84h204v-84z" />
    <glyph glyph-name="uhorn" unicode="&#x1b0;" 
d="M795 426l-120 -246h-79l82 246h117zM427 38q-88 -52 -150 -52q-85 0 -149 57q-47 42 -47 87v212h-59v84h208v-84h-60v-162q0 -43 36 -78q30 -29 71 -29q58 0 142 54q4 3 8 5v210h-59v84h208v-84h-60v-258h60v-84h-149v38z" />
    <glyph glyph-name="uni01B1" unicode="&#x1b1;" 
d="M436 487v-18q0 -30 41 -81q50 -62 64 -95q15 -35 15 -72q0 -110 -94 -173q-70 -48 -162 -48q-116 0 -191 71q-65 61 -65 150q0 69 61 147q43 56 50 68q9 18 9 33v18h-82l-29 -79l-53 21l59 142h195v-102q0 -46 -53 -110q-47 -56 -56 -75q-11 -21 -11 -40q0 -98 78 -138
q37 -19 88 -19q95 0 141 70q25 38 25 87q0 38 -48 94t-59 79q-13 26 -13 52v102h195l54 -144l-48 -19l-29 79h-82z" />
    <glyph glyph-name="uni01B5" unicode="&#x1b5;" 
d="M412 84l9 119h83l-15 -203h-390v20l137 244l-49 7l12 84l81 -13l77 136h-178l-4 -119h-84l9 203h388v-23l-119 -210l40 -6l-12 -84l-73 11l-94 -166h182z" />
    <glyph glyph-name="uni01B6" unicode="&#x1b6;" 
d="M499 355l-106 -107l47 -6l-14 -82l-105 15l-90 -91h211v36h75v-120h-418v74l117 118l-41 7l14 82l99 -16l76 77h-204v-36h-77v120h416v-71z" />
    <glyph glyph-name="uni01B7" unicode="&#x1b7;" 
d="M303 383q106 -26 149 -106q23 -41 23 -91q0 -98 -84 -154q-58 -40 -131 -40q-55 0 -111 31q-4 3 -12 7l42 72q41 -24 68 -26h13q73 0 111 50q20 27 20 60q0 66 -64 100q-39 21 -90 21h-86v61l137 111h-97v-21h-84v105h332v-69z" />
    <glyph glyph-name="uni01B8" unicode="&#x1b8;" 
d="M229 383l-136 111v69h332v-105h-84v21h-97l137 -111v-61h-86q-91 0 -133 -57q-21 -28 -21 -64q0 -60 57 -92q33 -18 74 -18q35 0 71 20q4 2 10 6l42 -72q-57 -32 -98 -37q-12 -1 -25 -1q-97 0 -161 64q-54 53 -54 130q0 109 97 167q34 20 75 30z" />
    <glyph glyph-name="uni01B9" unicode="&#x1b9;" 
d="M229 241l-136 110v69h332v-105h-84v21h-97l137 -110v-62h-86q-91 0 -133 -57q-21 -28 -21 -64q0 -60 57 -92q33 -18 74 -18q33 0 70 20q3 3 11 7l42 -73q-57 -32 -98 -37q-12 -1 -25 -1q-97 0 -161 64q-54 53 -54 130q0 112 102 170q32 18 70 28z" />
    <glyph glyph-name="uni01C0" unicode="&#x1c0;" 
d="M332 562v-705h-88v705h88z" />
    <glyph glyph-name="uni01C1" unicode="&#x1c1;" 
d="M278 562v-705h-88v705h88zM398 562v-705h-88v705h88z" />
    <glyph glyph-name="uni01C3" unicode="&#x1c3;" 
d="M323 610l-10 -454h-88l-10 454h108zM194 38q0 39 39 57q16 8 35 8q45 0 66 -35q8 -14 8 -30q0 -37 -37 -56q-17 -8 -37 -8q-45 0 -66 35q-8 14 -8 29z" />
    <glyph glyph-name="uni01CD" unicode="&#x1cd;" 
d="M431 723l-120 -121h-21l-121 121l14 14l119 -93l115 93zM255 295h93l-49 134zM361 84h53l-50 149h-125l-50 -149h53v-84h-213v84h68l126 394h-101v84h233l150 -478h66v-84h-210v84z" />
    <glyph glyph-name="uni01CE" unicode="&#x1ce;" 
d="M434 598l-120 -121h-21l-121 121l14 14l119 -93l115 93zM382 186q-90 26 -159 26q-66 0 -86 -48q-5 -11 -5 -21q0 -26 40 -48q31 -18 67 -18q81 0 143 63v46zM472 84h94v-84h-184v43q-51 -45 -104 -54q-18 -3 -39 -3q-89 0 -149 52q-49 43 -49 105q0 83 75 129
q48 31 107 31q57 0 159 -26v10q0 45 -63 65q-34 11 -82 11q-62 0 -146 -37l-28 65l59 23q71 23 115 23q96 0 171 -48q64 -42 64 -95v-210z" />
    <glyph glyph-name="uni01CF" unicode="&#x1cf;" 
d="M431 723l-120 -121h-21l-121 121l14 14l119 -93l115 93zM258 478h-168v84h421v-84h-164v-394h163v-84h-421v84h169v394z" />
    <glyph glyph-name="uni01D0" unicode="&#x1d0;" 
d="M432 587l-120 -121h-21l-121 121l14 14l119 -93l115 93zM262 342h-159v84h249v-342h147v-84h-396v84h159v258z" />
    <glyph glyph-name="uni01D1" unicode="&#x1d1;" 
d="M431 732l-120 -121h-21l-121 121l14 14l119 -93l115 93zM300 571q101 0 172 -91q66 -85 66 -199q0 -122 -74 -209q-69 -81 -164 -81q-101 0 -172 91q-66 85 -66 199q0 122 74 209q69 81 164 81zM300 480q-66 0 -110 -68q-37 -56 -37 -131q0 -100 60 -160q39 -39 87 -39
q66 0 110 68q37 56 37 131q0 100 -60 160q-39 39 -87 39z" />
    <glyph glyph-name="uni01D2" unicode="&#x1d2;" 
d="M431 595l-120 -121h-21l-121 121l14 14l119 -93l115 93zM300 434q98 0 168 -73q61 -64 61 -148q0 -94 -75 -161q-66 -60 -154 -60q-98 0 -168 72q-62 65 -62 149q0 94 76 161q67 60 154 60zM300 344q-64 0 -109 -52q-31 -37 -31 -79q0 -59 54 -101q40 -30 86 -30
q65 0 109 53q30 36 30 78q0 60 -54 101q-39 30 -85 30z" />
    <glyph glyph-name="uni01D3" unicode="&#x1d3;" 
d="M431 723l-120 -121h-21l-121 121l14 14l119 -93l115 93zM572 478h-47v-299q0 -59 -54 -115q-70 -71 -175 -71q-99 0 -171 77q-52 56 -52 109v299h-45v84h204v-84h-75v-259q0 -54 38 -97q39 -42 101 -42q84 0 125 71q20 34 20 68v259h-73v84h204v-84z" />
    <glyph glyph-name="uni01D4" unicode="&#x1d4;" 
d="M430 587l-120 -121h-21l-121 121l14 14l119 -93l115 93zM427 38q-88 -52 -150 -52q-85 0 -149 57q-47 42 -47 87v212h-59v84h208v-84h-60v-162q0 -43 36 -78q30 -29 71 -29q58 0 142 54q4 3 8 5v210h-59v84h208v-84h-60v-258h60v-84h-149v38z" />
    <glyph glyph-name="uni01D5" unicode="&#x1d5;" 
d="M126 802h347v-84h-347v84zM183 640q0 27 25 36q6 2 13 2q27 0 36 -25q2 -6 2 -13q0 -27 -25 -36q-6 -2 -13 -2q-27 0 -36 25q-2 6 -2 13zM340 640q0 27 25 36q6 2 13 2q27 0 36 -25q2 -6 2 -13q0 -27 -25 -36q-6 -2 -13 -2q-27 0 -36 25q-2 6 -2 13zM572 478h-47v-299
q0 -59 -54 -115q-70 -71 -175 -71q-99 0 -171 77q-52 56 -52 109v299h-45v84h204v-84h-75v-259q0 -54 38 -97q39 -42 101 -42q84 0 125 71q20 34 20 68v259h-73v84h204v-84z" />
    <glyph glyph-name="uni01D6" unicode="&#x1d6;" 
d="M125 666h347v-84h-347v84zM182 504q0 27 25 36q6 2 13 2q27 0 36 -25q2 -6 2 -13q0 -27 -25 -36q-6 -2 -13 -2q-27 0 -36 25q-2 6 -2 13zM339 504q0 27 25 36q6 2 13 2q27 0 36 -25q2 -6 2 -13q0 -27 -25 -36q-6 -2 -13 -2q-27 0 -36 25q-2 6 -2 13zM427 38
q-88 -52 -150 -52q-85 0 -149 57q-47 42 -47 87v212h-59v84h208v-84h-60v-162q0 -43 36 -78q30 -29 71 -29q58 0 142 54q4 3 8 5v210h-59v84h208v-84h-60v-258h60v-84h-149v38z" />
    <glyph glyph-name="uni01D7" unicode="&#x1d7;" 
d="M407 893l-169 -175h-46l122 175h93zM183 640q0 27 25 36q6 2 13 2q27 0 36 -25q2 -6 2 -13q0 -27 -25 -36q-6 -2 -13 -2q-27 0 -36 25q-2 6 -2 13zM340 640q0 27 25 36q6 2 13 2q27 0 36 -25q2 -6 2 -13q0 -27 -25 -36q-6 -2 -13 -2q-27 0 -36 25q-2 6 -2 13zM572 478
h-47v-299q0 -59 -54 -115q-70 -71 -175 -71q-99 0 -171 77q-52 56 -52 109v299h-45v84h204v-84h-75v-259q0 -54 38 -97q39 -42 101 -42q84 0 125 71q20 34 20 68v259h-73v84h204v-84z" />
    <glyph glyph-name="uni01D8" unicode="&#x1d8;" 
d="M406 757l-169 -175h-46l122 175h93zM182 504q0 27 25 36q6 2 13 2q27 0 36 -25q2 -6 2 -13q0 -27 -25 -36q-6 -2 -13 -2q-27 0 -36 25q-2 6 -2 13zM339 504q0 27 25 36q6 2 13 2q27 0 36 -25q2 -6 2 -13q0 -27 -25 -36q-6 -2 -13 -2q-27 0 -36 25q-2 6 -2 13zM427 38
q-88 -52 -150 -52q-85 0 -149 57q-47 42 -47 87v212h-59v84h208v-84h-60v-162q0 -43 36 -78q30 -29 71 -29q58 0 142 54q4 3 8 5v210h-59v84h208v-84h-60v-258h60v-84h-149v38z" />
    <glyph glyph-name="uni01D9" unicode="&#x1d9;" 
d="M431 839l-120 -121h-21l-121 121l14 14l119 -93l115 93zM183 640q0 27 25 36q6 2 13 2q27 0 36 -25q2 -6 2 -13q0 -27 -25 -36q-6 -2 -13 -2q-27 0 -36 25q-2 6 -2 13zM340 640q0 27 25 36q6 2 13 2q27 0 36 -25q2 -6 2 -13q0 -27 -25 -36q-6 -2 -13 -2q-27 0 -36 25
q-2 6 -2 13zM572 478h-47v-299q0 -59 -54 -115q-70 -71 -175 -71q-99 0 -171 77q-52 56 -52 109v299h-45v84h204v-84h-75v-259q0 -54 38 -97q39 -42 101 -42q84 0 125 71q20 34 20 68v259h-73v84h204v-84z" />
    <glyph glyph-name="uni01DA" unicode="&#x1da;" 
d="M430 703l-120 -121h-21l-121 121l14 14l119 -93l115 93zM182 504q0 27 25 36q6 2 13 2q27 0 36 -25q2 -6 2 -13q0 -27 -25 -36q-6 -2 -13 -2q-27 0 -36 25q-2 6 -2 13zM339 504q0 27 25 36q6 2 13 2q27 0 36 -25q2 -6 2 -13q0 -27 -25 -36q-6 -2 -13 -2q-27 0 -36 25
q-2 6 -2 13zM427 38q-88 -52 -150 -52q-85 0 -149 57q-47 42 -47 87v212h-59v84h208v-84h-60v-162q0 -43 36 -78q30 -29 71 -29q58 0 142 54q4 3 8 5v210h-59v84h208v-84h-60v-258h60v-84h-149v38z" />
    <glyph glyph-name="uni01DB" unicode="&#x1db;" 
d="M192 893h93l122 -175h-47zM183 640q0 27 25 36q6 2 13 2q27 0 36 -25q2 -6 2 -13q0 -27 -25 -36q-6 -2 -13 -2q-27 0 -36 25q-2 6 -2 13zM340 640q0 27 25 36q6 2 13 2q27 0 36 -25q2 -6 2 -13q0 -27 -25 -36q-6 -2 -13 -2q-27 0 -36 25q-2 6 -2 13zM572 478h-47v-299
q0 -59 -54 -115q-70 -71 -175 -71q-99 0 -171 77q-52 56 -52 109v299h-45v84h204v-84h-75v-259q0 -54 38 -97q39 -42 101 -42q84 0 125 71q20 34 20 68v259h-73v84h204v-84z" />
    <glyph glyph-name="uni01DC" unicode="&#x1dc;" 
d="M191 757h93l122 -175h-47zM182 504q0 27 25 36q6 2 13 2q27 0 36 -25q2 -6 2 -13q0 -27 -25 -36q-6 -2 -13 -2q-27 0 -36 25q-2 6 -2 13zM339 504q0 27 25 36q6 2 13 2q27 0 36 -25q2 -6 2 -13q0 -27 -25 -36q-6 -2 -13 -2q-27 0 -36 25q-2 6 -2 13zM427 38
q-88 -52 -150 -52q-85 0 -149 57q-47 42 -47 87v212h-59v84h208v-84h-60v-162q0 -43 36 -78q30 -29 71 -29q58 0 142 54q4 3 8 5v210h-59v84h208v-84h-60v-258h60v-84h-149v38z" />
    <glyph glyph-name="uni01DD" unicode="&#x1dd;" 
d="M176 157q38 -75 128 -75q63 0 103 51q11 13 14 24h-245zM80 236h355q-16 53 -60 84q-33 23 -76 23q-84 0 -146 -45l-42 63q62 52 157 62q16 2 31 2q101 0 171 -71q59 -61 59 -142q0 -96 -76 -160q-64 -54 -149 -54q-104 0 -171 73q-51 56 -54 132z" />
    <glyph glyph-name="uni01DE" unicode="&#x1de;" 
d="M126 802h347v-84h-347v84zM183 640q0 27 25 36q6 2 13 2q27 0 36 -25q2 -6 2 -13q0 -27 -25 -36q-6 -2 -13 -2q-27 0 -36 25q-2 6 -2 13zM340 640q0 27 25 36q6 2 13 2q27 0 36 -25q2 -6 2 -13q0 -27 -25 -36q-6 -2 -13 -2q-27 0 -36 25q-2 6 -2 13zM255 295h93l-49 134z
M361 84h53l-50 149h-125l-50 -149h53v-84h-213v84h68l126 394h-101v84h233l150 -478h66v-84h-210v84z" />
    <glyph glyph-name="uni01DF" unicode="&#x1df;" 
d="M130 677h347v-84h-347v84zM187 515q0 27 25 36q6 2 13 2q27 0 36 -25q2 -6 2 -13q0 -27 -25 -36q-6 -2 -13 -2q-27 0 -36 25q-2 6 -2 13zM344 515q0 27 25 36q6 2 13 2q27 0 36 -25q2 -6 2 -13q0 -27 -25 -36q-6 -2 -13 -2q-27 0 -36 25q-2 6 -2 13zM382 186
q-90 26 -159 26q-66 0 -86 -48q-5 -11 -5 -21q0 -26 40 -48q31 -18 67 -18q81 0 143 63v46zM472 84h94v-84h-184v43q-51 -45 -104 -54q-18 -3 -39 -3q-89 0 -149 52q-49 43 -49 105q0 83 75 129q48 31 107 31q57 0 159 -26v10q0 45 -63 65q-34 11 -82 11q-62 0 -146 -37
l-28 65l59 23q71 23 115 23q96 0 171 -48q64 -42 64 -95v-210z" />
    <glyph glyph-name="uni01E0" unicode="&#x1e0;" 
d="M255 295h93l-49 134zM361 84h53l-50 149h-125l-50 -149h53v-84h-213v84h68l126 394h-101v84h233l150 -478h66v-84h-210v84zM145 804h347v-84h-347v84zM351 716v-97h-74v97h74z" />
    <glyph glyph-name="uni01E1" unicode="&#x1e1;" 
d="M382 186q-90 26 -159 26q-66 0 -86 -48q-5 -11 -5 -21q0 -26 40 -48q31 -18 67 -18q81 0 143 63v46zM472 84h94v-84h-184v43q-51 -45 -104 -54q-18 -3 -39 -3q-89 0 -149 52q-49 43 -49 105q0 83 75 129q48 31 107 31q57 0 159 -26v10q0 45 -63 65q-34 11 -82 11
q-62 0 -146 -37l-28 65l59 23q71 23 115 23q96 0 171 -48q64 -42 64 -95v-210zM84 693h347v-84h-347v84zM280 579v-97h-74v97h74z" />
    <glyph glyph-name="uni01E2" unicode="&#x1e2;" 
d="M132 686h347v-84h-347v84zM291 295v134l-44 -134h44zM487 391v-176h-71v57h-36v-188h139l12 76h60l-12 -160h-288v233h-60l-50 -149h53v-84h-213v84h68l126 394h-101v84h463l9 -151h-58l-9 67h-139v-122h36v35h71z" />
    <glyph glyph-name="uni01E3" unicode="&#x1e3;" 
d="M126 561h347v-84h-347v84zM504 268q0 75 -70 75q-64 0 -73 -61q-1 -7 -1 -14h144zM270 186l-54 20q-22 6 -53 6q-62 0 -66 -52v-17q0 -35 35 -55q20 -11 47 -11q45 0 82 44q8 9 9 10v55zM319 58q-57 -69 -140 -72q-94 0 -142 62q-31 39 -31 95q0 95 71 138q37 22 86 22
q40 0 77 -15q17 -7 31 -11q0 80 -79 85q-7 1 -15 1q-40 0 -102 -29q-13 -5 -19 -8l-28 65l59 23l59 20q15 3 31 3q96 0 150 -57q39 39 80 45q12 2 26 2q160 0 160 -205l1 -33h-234q0 -72 42 -97q16 -10 36 -10q46 0 71 26q-11 -12 17 19l43 -63q-50 -50 -97 -60
q-16 -4 -33 -4q-64 0 -106 43q-7 6 -14 15z" />
    <glyph glyph-name="Gcaron" unicode="&#x1e6;" 
d="M434 734l-120 -121h-21l-121 121l14 14l119 -93l115 93zM326 564q72 0 100 -32q10 -8 12 1q3 26 12 40l63 -14q-18 -49 -18 -66q0 -21 19 -69l-74 -18q-33 59 -94 71q-11 2 -21 2q-80 0 -120 -86q-24 -50 -24 -109q0 -119 72 -177q34 -28 69 -28q117 0 122 156h-69v72
h145v-72q-6 -166 -109 -217q-39 -20 -90 -20q-104 0 -173 91q-62 82 -62 193q0 121 77 206q70 76 163 76z" />
    <glyph glyph-name="gcaron" unicode="&#x1e7;" 
d="M438 595l-120 -121h-21l-121 121l14 14l119 -93l115 93zM575 426v-84h-76v-373q0 -63 -77 -115q-75 -51 -156 -51q-94 0 -193 58l16 82q46 -32 126 -48q28 -6 50 -6q82 0 122 50q20 25 21 55v65q-29 -38 -81 -57q-28 -10 -58 -10q-99 0 -169 73q-61 65 -61 148
q0 94 75 161q66 60 154 60q92 0 140 -66v58h167zM269 344q-64 0 -109 -52q-31 -37 -31 -79q0 -59 54 -101q40 -30 86 -30q65 0 109 53q30 36 30 78q0 60 -54 101q-39 30 -85 30z" />
    <glyph glyph-name="uni01E8" unicode="&#x1e8;" 
d="M431 723l-120 -121h-21l-121 121l14 14l119 -93l115 93zM293 562h260v-84h-111l-161 -171q112 -31 207 -193l16 -29h90v-85h-143q-79 144 -137 193q-41 35 -95 48l-43 -46v-111h91v-84h-262v84h82v394h-82v84h247v-84h-76v-155l145 155h-28v84z" />
    <glyph glyph-name="uni01E9" unicode="&#x1e9;" 
d="M448 793l-120 -121h-21l-121 121l14 14l119 -93l115 93zM309 84h35l-100 125l-26 -22v-187h-163v84h73v438l-73 -23v84l163 49v-354l78 64h-33v84h257v-84h-117l-101 -84l143 -174h134v-84h-270v84z" />
    <glyph glyph-name="uni01EA" unicode="&#x1ea;" 
d="M243 -9h42q-38 -6 -48 -49q-4 -15 -2 -31q5 -35 65 -45q53 -9 85 35l20 -25q-35 -56 -100 -55q-62 1 -93 42q-17 21 -17 48q0 54 48 80zM300 571q101 0 172 -91q66 -85 66 -199q0 -122 -74 -209q-69 -81 -164 -81q-101 0 -172 91q-66 85 -66 199q0 122 74 209
q69 81 164 81zM300 480q-66 0 -110 -68q-37 -56 -37 -131q0 -100 60 -160q39 -39 87 -39q66 0 110 68q37 56 37 131q0 100 -60 160q-39 39 -87 39z" />
    <glyph glyph-name="uni01EB" unicode="&#x1eb;" 
d="M242 -8h42q-38 -6 -48 -49q-4 -15 -2 -31q5 -35 65 -45q53 -9 85 35l20 -25q-35 -56 -100 -55q-62 1 -93 42q-17 21 -17 48q0 54 48 80zM300 434q98 0 168 -73q61 -64 61 -148q0 -94 -75 -161q-66 -60 -154 -60q-98 0 -168 72q-62 65 -62 149q0 94 76 161q67 60 154 60z
M300 344q-64 0 -109 -52q-31 -37 -31 -79q0 -59 54 -101q40 -30 86 -30q65 0 109 53q30 36 30 78q0 60 -54 101q-39 30 -85 30z" />
    <glyph glyph-name="uni01EC" unicode="&#x1ec;" 
d="M126 695h347v-84h-347v84zM243 -9h42q-38 -6 -48 -49q-4 -15 -2 -31q5 -35 65 -45q53 -9 85 35l20 -25q-35 -56 -100 -55q-62 1 -93 42q-17 21 -17 48q0 54 48 80zM300 571q101 0 172 -91q66 -85 66 -199q0 -122 -74 -209q-69 -81 -164 -81q-101 0 -172 91
q-66 85 -66 199q0 122 74 209q69 81 164 81zM300 480q-66 0 -110 -68q-37 -56 -37 -131q0 -100 60 -160q39 -39 87 -39q66 0 110 68q37 56 37 131q0 100 -60 160q-39 39 -87 39z" />
    <glyph glyph-name="uni01ED" unicode="&#x1ed;" 
d="M126 558h347v-84h-347v84zM242 -8h42q-38 -6 -48 -49q-4 -15 -2 -31q5 -35 65 -45q53 -9 85 35l20 -25q-35 -56 -100 -55q-62 1 -93 42q-17 21 -17 48q0 54 48 80zM300 434q98 0 168 -73q61 -64 61 -148q0 -94 -75 -161q-66 -60 -154 -60q-98 0 -168 72q-62 65 -62 149
q0 94 76 161q67 60 154 60zM300 344q-64 0 -109 -52q-31 -37 -31 -79q0 -59 54 -101q40 -30 86 -30q65 0 109 53q30 36 30 78q0 60 -54 101q-39 30 -85 30z" />
    <glyph glyph-name="uni01EE" unicode="&#x1ee;" 
d="M422 724l-120 -121h-21l-121 121l14 14l119 -93l115 93zM303 383q106 -26 149 -106q23 -41 23 -91q0 -98 -84 -154q-58 -40 -131 -40q-55 0 -111 31q-4 3 -12 7l42 72q41 -24 68 -26h13q73 0 111 50q20 27 20 60q0 66 -64 100q-39 21 -90 21h-86v61l137 111h-97v-21h-84
v105h332v-69z" />
    <glyph glyph-name="uni01EF" unicode="&#x1ef;" 
d="M398 581l-120 -121h-21l-121 121l14 14l119 -93l115 93zM279 241q111 -28 153 -113q19 -39 19 -85q0 -98 -83 -154q-58 -40 -132 -40q-56 0 -112 32q-3 2 -10 6l41 73q44 -24 67 -26q7 -1 14 -1q74 0 112 51q19 26 19 59q0 67 -65 101q-38 20 -89 20h-86v62l137 110h-97
v-21h-84v105h332v-69z" />
    <glyph glyph-name="uni01F0" unicode="&#x1f0;" 
d="M419 587l-120 -121h-21l-121 121l14 14l119 -93l115 93zM76 -84q33 -23 98 -26h11q31 0 59 35q19 22 19 44v373h-104v84h194v-457q0 -81 -61 -130q-45 -36 -107 -36q-81 0 -125 30z" />
    <glyph glyph-name="uni01F4" unicode="&#x1f4;" 
d="M410 788l-169 -175h-46l122 175h93zM326 564q72 0 100 -32q10 -8 12 1q3 26 12 40l63 -14q-18 -49 -18 -66q0 -21 19 -69l-74 -18q-33 59 -94 71q-11 2 -21 2q-80 0 -120 -86q-24 -50 -24 -109q0 -119 72 -177q34 -28 69 -28q117 0 122 156h-69v72h145v-72
q-6 -166 -109 -217q-39 -20 -90 -20q-104 0 -173 91q-62 82 -62 193q0 121 77 206q70 76 163 76z" />
    <glyph glyph-name="uni01F5" unicode="&#x1f5;" 
d="M414 649l-169 -175h-46l122 175h93zM575 426v-84h-76v-373q0 -63 -77 -115q-75 -51 -156 -51q-94 0 -193 58l16 82q46 -32 126 -48q28 -6 50 -6q82 0 122 50q20 25 21 55v65q-29 -38 -81 -57q-28 -10 -58 -10q-99 0 -169 73q-61 65 -61 148q0 94 75 161q66 60 154 60
q92 0 140 -66v58h167zM269 344q-64 0 -109 -52q-31 -37 -31 -79q0 -59 54 -101q40 -30 86 -30q65 0 109 53q30 36 30 78q0 60 -54 101q-39 30 -85 30z" />
    <glyph glyph-name="uni01F8" unicode="&#x1f8;" 
d="M109 806h93l122 -175h-47zM150 561l305 -405v322h-77v84h222v-84h-55v-485h-80l-317 422h-2v-331h78v-84h-224v84h56v394h-56v84h150v-1z" />
    <glyph glyph-name="uni01F9" unicode="&#x1f9;" 
d="M108 675h93l122 -175h-47zM172 388h-1q88 52 150 52q67 0 134 -50q62 -47 62 -94v-212h59v-84h-208v84h60v162q0 43 -36 78q-30 29 -71 29q-58 0 -142 -54q-4 -3 -8 -5v-210h59v-84h-208v84h60v258h-60v84h150v-38z" />
    <glyph glyph-name="Aringacute" unicode="&#x1fa;" 
d="M407 999l-169 -175h-46l122 175h93zM300 784q50 0 77 -43q14 -22 14 -48q0 -50 -43 -77q-22 -14 -48 -14q-50 0 -77 43q-14 22 -14 48q0 50 43 77q22 14 48 14zM300 750q-34 0 -51 -31q-6 -12 -6 -26q0 -34 31 -51q12 -6 26 -6q34 0 51 31q6 12 6 26q0 34 -31 51
q-12 6 -26 6zM255 295h93l-49 134zM361 84h53l-50 149h-125l-50 -149h53v-84h-213v84h68l126 394h-101v84h233l150 -478h66v-84h-210v84z" />
    <glyph glyph-name="aringacute" unicode="&#x1fb;" 
d="M411 874l-169 -175h-46l122 175h93zM303 659q50 0 77 -43q14 -22 14 -48q0 -50 -43 -77q-22 -14 -48 -14q-50 0 -77 43q-14 22 -14 48q0 50 43 77q22 14 48 14zM303 625q-34 0 -51 -31q-6 -12 -6 -26q0 -34 31 -51q12 -6 26 -6q34 0 51 31q6 12 6 26q0 34 -31 51
q-12 6 -26 6zM382 186q-90 26 -159 26q-66 0 -86 -48q-5 -11 -5 -21q0 -26 40 -48q31 -18 67 -18q81 0 143 63v46zM472 84h94v-84h-184v43q-51 -45 -104 -54q-18 -3 -39 -3q-89 0 -149 52q-49 43 -49 105q0 83 75 129q48 31 107 31q57 0 159 -26v10q0 45 -63 65
q-34 11 -82 11q-62 0 -146 -37l-28 65l59 23q71 23 115 23q96 0 171 -48q64 -42 64 -95v-210z" />
    <glyph glyph-name="AEacute" unicode="&#x1fc;" 
d="M413 777l-169 -175h-46l122 175h93zM291 295v134l-44 -134h44zM487 391v-176h-71v57h-36v-188h139l12 76h60l-12 -160h-288v233h-60l-50 -149h53v-84h-213v84h68l126 394h-101v84h463l9 -151h-58l-9 67h-139v-122h36v35h71z" />
    <glyph glyph-name="aeacute" unicode="&#x1fd;" 
d="M407 652l-169 -175h-46l122 175h93zM504 268q0 75 -70 75q-64 0 -73 -61q-1 -7 -1 -14h144zM270 186l-54 20q-22 6 -53 6q-62 0 -66 -52v-17q0 -35 35 -55q20 -11 47 -11q45 0 82 44q8 9 9 10v55zM319 58q-57 -69 -140 -72q-94 0 -142 62q-31 39 -31 95q0 95 71 138
q37 22 86 22q40 0 77 -15q17 -7 31 -11q0 80 -79 85q-7 1 -15 1q-40 0 -102 -29q-13 -5 -19 -8l-28 65l59 23l59 20q15 3 31 3q96 0 150 -57q39 39 80 45q12 2 26 2q160 0 160 -205l1 -33h-234q0 -72 42 -97q16 -10 36 -10q46 0 71 26q-11 -12 17 19l43 -63q-50 -50 -97 -60
q-16 -4 -33 -4q-64 0 -106 43q-7 6 -14 15z" />
    <glyph glyph-name="Oslashacute" unicode="&#x1fe;" 
d="M405 824l-169 -175h-46l122 175h93zM300 571q61 0 118 -39l53 77l74 -52l-63 -90q56 -83 56 -186q0 -122 -74 -209q-69 -81 -164 -81q-64 0 -122 42l-53 -77l-74 52l64 92q-53 80 -53 181q0 122 74 209q69 81 164 81zM230 107q33 -25 70 -25q66 0 110 68q37 56 37 131
q0 58 -22 105zM300 480q-66 0 -110 -68q-37 -56 -37 -131q0 -54 20 -99l193 276q-31 22 -66 22z" />
    <glyph glyph-name="oslashacute" unicode="&#x1ff;" 
d="M404 689l-169 -175h-46l122 175h93zM180 149l165 187q-22 8 -45 8q-64 0 -109 -52q-31 -37 -31 -79q0 -35 20 -64zM416 281l-166 -189q27 -10 50 -10q65 0 109 53q30 36 30 78q0 37 -23 68zM534 414l-57 -64q52 -62 52 -137q0 -94 -75 -161q-66 -60 -154 -60
q-58 0 -112 30l-60 -69l-68 60l59 66q-49 62 -49 134q0 94 76 161q67 60 154 60q56 0 107 -27l59 67z" />
    <glyph glyph-name="uni0200" unicode="&#x200;" 
d="M299 751h80l103 -149h-39zM118 751h79l104 -149h-40zM255 295h93l-49 134zM361 84h53l-50 149h-125l-50 -149h53v-84h-213v84h68l126 394h-101v84h233l150 -478h66v-84h-210v84z" />
    <glyph glyph-name="uni0201" unicode="&#x201;" 
d="M302 626h80l103 -149h-39zM121 626h79l104 -149h-40zM382 186q-90 26 -159 26q-66 0 -86 -48q-5 -11 -5 -21q0 -26 40 -48q31 -18 67 -18q81 0 143 63v46zM472 84h94v-84h-184v43q-51 -45 -104 -54q-18 -3 -39 -3q-89 0 -149 52q-49 43 -49 105q0 83 75 129q48 31 107 31
q57 0 159 -26v10q0 45 -63 65q-34 11 -82 11q-62 0 -146 -37l-28 65l59 23q71 23 115 23q96 0 171 -48q64 -42 64 -95v-210z" />
    <glyph glyph-name="uni0202" unicode="&#x202;" 
d="M403 602h-24q-20 44 -80 44q-66 0 -79 -44h-24q6 60 57 85q22 11 47 11q60 0 89 -53q11 -19 14 -43zM255 295h93l-49 134zM361 84h53l-50 149h-125l-50 -149h53v-84h-213v84h68l126 394h-101v84h233l150 -478h66v-84h-210v84z" />
    <glyph glyph-name="uni0203" unicode="&#x203;" 
d="M407 477h-24q-20 44 -80 44q-66 0 -79 -44h-24q6 60 57 85q22 11 47 11q60 0 89 -53q11 -19 14 -43zM382 186q-90 26 -159 26q-66 0 -86 -48q-5 -11 -5 -21q0 -26 40 -48q31 -18 67 -18q81 0 143 63v46zM472 84h94v-84h-184v43q-51 -45 -104 -54q-18 -3 -39 -3
q-89 0 -149 52q-49 43 -49 105q0 83 75 129q48 31 107 31q57 0 159 -26v10q0 45 -63 65q-34 11 -82 11q-62 0 -146 -37l-28 65l59 23q71 23 115 23q96 0 171 -48q64 -42 64 -95v-210z" />
    <glyph glyph-name="uni0204" unicode="&#x204;" 
d="M312 751h80l103 -149h-39zM131 751h79l104 -149h-40zM448 391v-176h-71v57h-144v-188h247l12 76h60l-12 -160h-466v84h70v394h-70v84h464l9 -151h-58l-9 67h-247v-122h144v35h71z" />
    <glyph glyph-name="uni0205" unicode="&#x205;" 
d="M293 616h80l103 -149h-39zM112 616h79l104 -149h-40zM422 268q-38 75 -128 75q-63 0 -103 -51q-11 -13 -14 -24h245zM519 189h-356q16 -53 60 -84q33 -23 76 -23q84 0 146 45l42 -63q-62 -52 -157 -62q-16 -2 -31 -2q-101 0 -171 71q-59 61 -59 142q0 96 76 160
q64 54 149 54q103 0 170 -72q52 -57 55 -133v-33z" />
    <glyph glyph-name="uni0206" unicode="&#x206;" 
d="M416 602h-24q-20 44 -80 44q-66 0 -79 -44h-24q6 60 57 85q22 11 47 11q60 0 89 -53q11 -19 14 -43zM448 391v-176h-71v57h-144v-188h247l12 76h60l-12 -160h-466v84h70v394h-70v84h464l9 -151h-58l-9 67h-247v-122h144v35h71z" />
    <glyph glyph-name="uni0207" unicode="&#x207;" 
d="M397 467h-24q-20 44 -80 44q-66 0 -79 -44h-24q6 60 57 85q22 11 47 11q60 0 89 -53q11 -19 14 -43zM422 268q-38 75 -128 75q-63 0 -103 -51q-11 -13 -14 -24h245zM519 189h-356q16 -53 60 -84q33 -23 76 -23q84 0 146 45l42 -63q-62 -52 -157 -62q-16 -2 -31 -2
q-101 0 -171 71q-59 61 -59 142q0 96 76 160q64 54 149 54q103 0 170 -72q52 -57 55 -133v-33z" />
    <glyph glyph-name="uni0208" unicode="&#x208;" 
d="M299 751h80l103 -149h-39zM118 751h79l104 -149h-40zM258 478h-168v84h421v-84h-164v-394h163v-84h-421v84h169v394z" />
    <glyph glyph-name="uni0209" unicode="&#x209;" 
d="M300 615h80l103 -149h-39zM119 615h79l104 -149h-40zM262 342h-159v84h249v-342h147v-84h-396v84h159v258z" />
    <glyph glyph-name="uni020A" unicode="&#x20a;" 
d="M403 602h-24q-20 44 -80 44q-66 0 -79 -44h-24q6 60 57 85q22 11 47 11q60 0 89 -53q11 -19 14 -43zM258 478h-168v84h421v-84h-164v-394h163v-84h-421v84h169v394z" />
    <glyph glyph-name="uni020B" unicode="&#x20b;" 
d="M404 466h-24q-20 44 -80 44q-66 0 -79 -44h-24q6 60 57 85q22 11 47 11q60 0 89 -53q11 -19 14 -43zM262 342h-159v84h249v-342h147v-84h-396v84h159v258z" />
    <glyph glyph-name="uni020C" unicode="&#x20c;" 
d="M299 760h80l103 -149h-39zM118 760h79l104 -149h-40zM300 571q101 0 172 -91q66 -85 66 -199q0 -122 -74 -209q-69 -81 -164 -81q-101 0 -172 91q-66 85 -66 199q0 122 74 209q69 81 164 81zM300 480q-66 0 -110 -68q-37 -56 -37 -131q0 -100 60 -160q39 -39 87 -39
q66 0 110 68q37 56 37 131q0 100 -60 160q-39 39 -87 39z" />
    <glyph glyph-name="uni020D" unicode="&#x20d;" 
d="M298 623h80l103 -149h-39zM117 623h79l104 -149h-40zM300 434q98 0 168 -73q61 -64 61 -148q0 -94 -75 -161q-66 -60 -154 -60q-98 0 -168 72q-62 65 -62 149q0 94 76 161q67 60 154 60zM300 344q-64 0 -109 -52q-31 -37 -31 -79q0 -59 54 -101q40 -30 86 -30
q65 0 109 53q30 36 30 78q0 60 -54 101q-39 30 -85 30z" />
    <glyph glyph-name="uni020E" unicode="&#x20e;" 
d="M403 611h-24q-20 44 -80 44q-66 0 -79 -44h-24q6 60 57 85q22 11 47 11q60 0 89 -53q11 -19 14 -43zM300 571q101 0 172 -91q66 -85 66 -199q0 -122 -74 -209q-69 -81 -164 -81q-101 0 -172 91q-66 85 -66 199q0 122 74 209q69 81 164 81zM300 480q-66 0 -110 -68
q-37 -56 -37 -131q0 -100 60 -160q39 -39 87 -39q66 0 110 68q37 56 37 131q0 100 -60 160q-39 39 -87 39z" />
    <glyph glyph-name="uni020F" unicode="&#x20f;" 
d="M403 474h-24q-20 44 -80 44q-66 0 -79 -44h-24q6 60 57 85q22 11 47 11q60 0 89 -53q11 -19 14 -43zM300 434q98 0 168 -73q61 -64 61 -148q0 -94 -75 -161q-66 -60 -154 -60q-98 0 -168 72q-62 65 -62 149q0 94 76 161q67 60 154 60zM300 344q-64 0 -109 -52
q-31 -37 -31 -79q0 -59 54 -101q40 -30 86 -30q65 0 109 53q30 36 30 78q0 60 -54 101q-39 30 -85 30z" />
    <glyph glyph-name="uni0210" unicode="&#x210;" 
d="M282 751h80l103 -149h-39zM101 751h79l104 -149h-40zM169 306h184q78 0 105 45q11 18 11 41q0 74 -76 84q-16 2 -40 2h-184v-172zM359 222q39 -22 87 -101q14 -22 20 -37h91v-84h-148q-37 99 -72 142q-29 36 -85 80h-83v-138h103v-84h-263v84h70v394h-70v84h377
q83 0 132 -51q39 -41 39 -107q0 -106 -77 -155q-42 -27 -94 -27h-27z" />
    <glyph glyph-name="uni0211" unicode="&#x211;" 
d="M250 629h80l103 -149h-39zM69 629h79l104 -149h-40zM406 307q-33 46 -85 46q-58 0 -142 -54q-4 -3 -8 -5v-210h59v-84h-208v84h60v258h-60v84h149v-38q88 52 150 52t124 -41q23 -16 36 -32z" />
    <glyph glyph-name="uni0212" unicode="&#x212;" 
d="M386 602h-24q-20 44 -80 44q-66 0 -79 -44h-24q6 60 57 85q22 11 47 11q60 0 89 -53q11 -19 14 -43zM169 306h184q78 0 105 45q11 18 11 41q0 74 -76 84q-16 2 -40 2h-184v-172zM359 222q39 -22 87 -101q14 -22 20 -37h91v-84h-148q-37 99 -72 142q-29 36 -85 80h-83
v-138h103v-84h-263v84h70v394h-70v84h377q83 0 132 -51q39 -41 39 -107q0 -106 -77 -155q-42 -27 -94 -27h-27z" />
    <glyph glyph-name="uni0213" unicode="&#x213;" 
d="M355 480h-24q-20 44 -80 44q-66 0 -79 -44h-24q6 60 57 85q22 11 47 11q60 0 89 -53q11 -19 14 -43zM406 307q-33 46 -85 46q-58 0 -142 -54q-4 -3 -8 -5v-210h59v-84h-208v84h60v258h-60v84h149v-38q88 52 150 52t124 -41q23 -16 36 -32z" />
    <glyph glyph-name="uni0214" unicode="&#x214;" 
d="M299 751h80l103 -149h-39zM118 751h79l104 -149h-40zM572 478h-47v-299q0 -59 -54 -115q-70 -71 -175 -71q-99 0 -171 77q-52 56 -52 109v299h-45v84h204v-84h-75v-259q0 -54 38 -97q39 -42 101 -42q84 0 125 71q20 34 20 68v259h-73v84h204v-84z" />
    <glyph glyph-name="uni0215" unicode="&#x215;" 
d="M298 615h80l103 -149h-39zM117 615h79l104 -149h-40zM427 38q-88 -52 -150 -52q-85 0 -149 57q-47 42 -47 87v212h-59v84h208v-84h-60v-162q0 -43 36 -78q30 -29 71 -29q58 0 142 54q4 3 8 5v210h-59v84h208v-84h-60v-258h60v-84h-149v38z" />
    <glyph glyph-name="uni0216" unicode="&#x216;" 
d="M403 602h-24q-20 44 -80 44q-66 0 -79 -44h-24q6 60 57 85q22 11 47 11q60 0 89 -53q11 -19 14 -43zM572 478h-47v-299q0 -59 -54 -115q-70 -71 -175 -71q-99 0 -171 77q-52 56 -52 109v299h-45v84h204v-84h-75v-259q0 -54 38 -97q39 -42 101 -42q84 0 125 71
q20 34 20 68v259h-73v84h204v-84z" />
    <glyph glyph-name="uni0217" unicode="&#x217;" 
d="M402 466h-24q-20 44 -80 44q-66 0 -79 -44h-24q6 60 57 85q22 11 47 11q60 0 89 -53q11 -19 14 -43zM427 38q-88 -52 -150 -52q-85 0 -149 57q-47 42 -47 87v212h-59v84h208v-84h-60v-162q0 -43 36 -78q30 -29 71 -29q58 0 142 54q4 3 8 5v210h-59v84h208v-84h-60v-258
h60v-84h-149v38z" />
    <glyph glyph-name="Scommaaccent" unicode="&#x218;" 
d="M148 -165q-15 -53 -70 -80q-16 -7 -32 -10l-13 16q24 5 40 30q12 19 2 33q-28 17 -23 53q6 36 39 44q8 2 18 1q40 -2 49 -39q6 -27 -10 -48zM483 577q-9 -23 -13 -88q0 -47 24 -76l-79 2q-9 47 -65 67q-22 8 -46 8q-62 0 -84 -34q-7 -11 -7 -24q0 -47 58 -74l106 -42
q86 -42 97 -128q2 -14 2 -29q0 -78 -68 -132q-51 -40 -110 -40q-58 0 -114 47q-8 8 -11 -7q-5 -20 -15 -44l-62 -1l15 42q9 27 9 62q0 28 -18 81q-4 10 -6 14h62l13 -29q29 -52 87 -72q21 -7 40 -7q75 0 89 63q2 11 2 23q0 61 -62 90l-113 42q-78 36 -87 115q-2 12 -2 26
q0 79 80 120q46 24 99 24q51 0 101 -35q10 -7 12 0q2 22 9 36h57z" />
    <glyph glyph-name="scommaaccent" unicode="&#x219;" 
d="M179 -159q-15 -53 -70 -80q-16 -7 -32 -10l-13 16q24 5 40 30q12 19 2 33q-28 17 -23 53q6 36 39 44q8 2 18 1q40 -2 49 -39q6 -27 -10 -48zM480 432q-11 -23 -13 -49q0 -40 24 -62l-66 1q-28 40 -121 40q-67 0 -86 -24q-5 -6 -5 -13q0 -34 58 -57l111 -38
q91 -45 94 -118q0 -64 -78 -98q-46 -19 -100 -19q-78 0 -116 26q-8 5 -11 -6l-13 -27h-63l15 33q9 20 9 39q0 18 -20 50q-2 4 -4 6h63q21 -43 118 -43q102 0 112 33q1 3 1 6q0 30 -57 50l-104 35q-96 39 -102 115q-1 6 -1 13q0 62 84 92q44 15 95 15q72 0 102 -17
q10 -7 12 1q1 8 4 12q2 2 4 5z" />
    <glyph glyph-name="Tcommaaccent" unicode="&#x21a;" 
d="M353 -147q-15 -53 -70 -80q-16 -7 -32 -10l-13 16q24 5 40 30q12 19 2 33q-28 17 -23 53q6 36 39 44q8 2 18 1q40 -2 49 -39q6 -27 -10 -48zM495 343l-10 135h-140v-394h122v-84h-333v84h121v394h-140l-10 -135h-71l10 219h512l10 -219h-71z" />
    <glyph glyph-name="tcommaaccent" unicode="&#x21b;" 
d="M368 -166q-15 -53 -70 -80q-16 -7 -32 -10l-13 16q24 5 40 30q12 19 2 33q-28 17 -23 53q6 36 39 44q8 2 18 1q40 -2 49 -39q6 -27 -10 -48zM27 426h78v136h90v-136h225v-84h-225v-151q0 -58 51 -96q36 -27 82 -27q71 0 155 93l11 13l37 -65q-75 -83 -155 -115
q-33 -13 -60 -13q-113 0 -174 67q-37 41 -37 93v201h-78v84z" />
    <glyph glyph-name="uni021E" unicode="&#x21e;" 
d="M431 752l-120 -121h-21l-121 121l14 14l119 -93l115 93zM190 386h220v92h-71v84h230v-84h-69v-394h68v-84h-230v84h72v214h-220v-214h71v-84h-230v84h69v394h-69v84h230v-84h-71v-92z" />
    <glyph glyph-name="uni021F" unicode="&#x21f;" 
d="M430 814l-120 -121h-21l-121 121l14 14l119 -93l115 93zM172 388h-1q88 52 150 52q67 0 134 -50q62 -47 62 -94v-212h59v-84h-208v84h60v162q0 43 -36 78q-30 29 -71 29q-58 0 -142 -54q-4 -3 -8 -5v-210h59v-84h-208v84h60v446l-60 -18v84l150 37v-245z" />
    <glyph glyph-name="uni0226" unicode="&#x226;" 
d="M276 728v-97h-74v97h74zM255 295h93l-49 134zM361 84h53l-50 149h-125l-50 -149h53v-84h-213v84h68l126 394h-101v84h233l150 -478h66v-84h-210v84z" />
    <glyph glyph-name="uni0227" unicode="&#x227;" 
d="M274 594v-97h-74v97h74zM382 186q-90 26 -159 26q-66 0 -86 -48q-5 -11 -5 -21q0 -26 40 -48q31 -18 67 -18q81 0 143 63v46zM472 84h94v-84h-184v43q-51 -45 -104 -54q-18 -3 -39 -3q-89 0 -149 52q-49 43 -49 105q0 83 75 129q48 31 107 31q57 0 159 -26v10
q0 45 -63 65q-34 11 -82 11q-62 0 -146 -37l-28 65l59 23q71 23 115 23q96 0 171 -48q64 -42 64 -95v-210z" />
    <glyph glyph-name="uni0228" unicode="&#x228;" 
d="M326 8l-10 -54q62 13 97 -30q31 -38 12 -79q-27 -57 -130 -57q-17 0 -35 2l5 34q90 -12 122 26q9 10 8 20q-6 67 -93 49l-25 -6l12 94zM448 391v-176h-71v57h-144v-188h247l12 76h60l-12 -160h-466v84h70v394h-70v84h464l9 -151h-58l-9 67h-247v-122h144v35h71z" />
    <glyph glyph-name="uni0229" unicode="&#x229;" 
d="M318 8l-10 -54q62 13 97 -30q31 -38 12 -79q-27 -57 -130 -57q-17 0 -35 2l5 34q90 -12 122 26q9 10 8 20q-6 67 -93 49l-25 -6l12 94zM422 268q-38 75 -128 75q-63 0 -103 -51q-11 -13 -14 -24h245zM519 189h-356q16 -53 60 -84q33 -23 76 -23q84 0 146 45l42 -63
q-62 -52 -157 -62q-16 -2 -31 -2q-101 0 -171 71q-59 61 -59 142q0 96 76 160q64 54 149 54q103 0 170 -72q52 -57 55 -133v-33z" />
    <glyph glyph-name="uni022A" unicode="&#x22a;" 
d="M126 831h347v-84h-347v84zM183 649q0 27 25 36q6 2 13 2q27 0 36 -25q2 -6 2 -13q0 -27 -25 -36q-6 -2 -13 -2q-27 0 -36 25q-2 6 -2 13zM340 649q0 27 25 36q6 2 13 2q27 0 36 -25q2 -6 2 -13q0 -27 -25 -36q-6 -2 -13 -2q-27 0 -36 25q-2 6 -2 13zM300 571
q101 0 172 -91q66 -85 66 -199q0 -122 -74 -209q-69 -81 -164 -81q-101 0 -172 91q-66 85 -66 199q0 122 74 209q69 81 164 81zM300 480q-66 0 -110 -68q-37 -56 -37 -131q0 -100 60 -160q39 -39 87 -39q66 0 110 68q37 56 37 131q0 100 -60 160q-39 39 -87 39z" />
    <glyph glyph-name="uni022B" unicode="&#x22b;" 
d="M126 694h347v-84h-347v84zM183 512q0 27 25 36q6 2 13 2q27 0 36 -25q2 -6 2 -13q0 -27 -25 -36q-6 -2 -13 -2q-27 0 -36 25q-2 6 -2 13zM340 512q0 27 25 36q6 2 13 2q27 0 36 -25q2 -6 2 -13q0 -27 -25 -36q-6 -2 -13 -2q-27 0 -36 25q-2 6 -2 13zM300 434
q98 0 168 -73q61 -64 61 -148q0 -94 -75 -161q-66 -60 -154 -60q-98 0 -168 72q-62 65 -62 149q0 94 76 161q67 60 154 60zM300 344q-64 0 -109 -52q-31 -37 -31 -79q0 -59 54 -101q40 -30 86 -30q65 0 109 53q30 36 30 78q0 60 -54 101q-39 30 -85 30z" />
    <glyph glyph-name="uni022C" unicode="&#x22c;" 
d="M100 833h347v-84h-347v84zM199 612q1 43 39 67q18 11 36 11q15 1 44 -22q16 -13 25 -12q34 3 54 30h5q3 -40 -25 -63q-14 -11 -32 -11q-23 1 -48 22q-15 13 -26 13q-40 -1 -62 -35h-10zM300 571q101 0 172 -91q66 -85 66 -199q0 -122 -74 -209q-69 -81 -164 -81
q-101 0 -172 91q-66 85 -66 199q0 122 74 209q69 81 164 81zM300 480q-66 0 -110 -68q-37 -56 -37 -131q0 -100 60 -160q39 -39 87 -39q66 0 110 68q37 56 37 131q0 100 -60 160q-39 39 -87 39z" />
    <glyph glyph-name="uni022D" unicode="&#x22d;" 
d="M99 696h347v-84h-347v84zM198 475q1 43 39 67q18 11 36 11q15 1 44 -22q16 -13 25 -12q34 3 54 30h5q3 -40 -25 -63q-14 -11 -32 -11q-23 1 -48 22q-15 13 -26 13q-40 -1 -62 -35h-10zM300 434q98 0 168 -73q61 -64 61 -148q0 -94 -75 -161q-66 -60 -154 -60
q-98 0 -168 72q-62 65 -62 149q0 94 76 161q67 60 154 60zM300 344q-64 0 -109 -52q-31 -37 -31 -79q0 -59 54 -101q40 -30 86 -30q65 0 109 53q30 36 30 78q0 60 -54 101q-39 30 -85 30z" />
    <glyph glyph-name="uni022E" unicode="&#x22e;" 
d="M337 728v-97h-74v97h74zM300 571q101 0 172 -91q66 -85 66 -199q0 -122 -74 -209q-69 -81 -164 -81q-101 0 -172 91q-66 85 -66 199q0 122 74 209q69 81 164 81zM300 480q-66 0 -110 -68q-37 -56 -37 -131q0 -100 60 -160q39 -39 87 -39q66 0 110 68q37 56 37 131
q0 100 -60 160q-39 39 -87 39z" />
    <glyph glyph-name="uni022F" unicode="&#x22f;" 
d="M337 591v-97h-74v97h74zM300 434q98 0 168 -73q61 -64 61 -148q0 -94 -75 -161q-66 -60 -154 -60q-98 0 -168 72q-62 65 -62 149q0 94 76 161q67 60 154 60zM300 344q-64 0 -109 -52q-31 -37 -31 -79q0 -59 54 -101q40 -30 86 -30q65 0 109 53q30 36 30 78q0 60 -54 101
q-39 30 -85 30z" />
    <glyph glyph-name="uni0230" unicode="&#x230;" 
d="M126 872h347v-84h-347v84zM337 728v-97h-74v97h74zM300 571q101 0 172 -91q66 -85 66 -199q0 -122 -74 -209q-69 -81 -164 -81q-101 0 -172 91q-66 85 -66 199q0 122 74 209q69 81 164 81zM300 480q-66 0 -110 -68q-37 -56 -37 -131q0 -100 60 -160q39 -39 87 -39
q66 0 110 68q37 56 37 131q0 100 -60 160q-39 39 -87 39z" />
    <glyph glyph-name="uni0231" unicode="&#x231;" 
d="M126 735h347v-84h-347v84zM337 591v-97h-74v97h74zM300 434q98 0 168 -73q61 -64 61 -148q0 -94 -75 -161q-66 -60 -154 -60q-98 0 -168 72q-62 65 -62 149q0 94 76 161q67 60 154 60zM300 344q-64 0 -109 -52q-31 -37 -31 -79q0 -59 54 -101q40 -30 86 -30q65 0 109 53
q30 36 30 78q0 60 -54 101q-39 30 -85 30z" />
    <glyph glyph-name="uni0232" unicode="&#x232;" 
d="M126 715h347v-84h-347v84zM343 84h58v-84h-205v84h57v139l-186 255h-35v84h204v-84h-60l124 -166l123 166h-60v84h204v-84h-35l-189 -255v-139z" />
    <glyph glyph-name="uni0233" unicode="&#x233;" 
d="M129 578h347v-84h-347v84zM339 -168h-339v84h213l38 81l-174 345h-67v84h216v-84h-53l126 -248l121 248h-46v84h222v-84h-76l-211 -426h30v-84z" />
    <glyph glyph-name="uni0250" unicode="&#x250;" 
d="M198 240q90 -26 159 -26q66 0 86 48q5 11 5 21q0 26 -40 48q-31 18 -67 18q-81 0 -143 -63v-46zM108 342h-93v84h183v-43q51 45 104 54q18 3 39 3q89 0 149 -52q49 -43 49 -105q0 -83 -76 -130q-48 -29 -106 -29q-61 0 -159 25v-10q0 -45 63 -65q34 -11 82 -11
q62 0 146 37l28 -65l-59 -23q-68 -22 -115 -22q-97 0 -171 48q-64 41 -64 94v210z" />
    <glyph glyph-name="uni0254" unicode="&#x254;" 
d="M156 34l-15 -32l-62 25l15 44q4 14 2 21l-15 35l78 27q22 -45 79 -63q21 -7 42 -7q68 0 113 58q26 34 26 68q0 66 -59 109q-38 28 -79 28q-70 0 -124 -38q-2 -2 -4 -3l-42 67q50 41 134 53q17 2 32 2q111 0 180 -76q53 -58 53 -137q0 -97 -76 -161q-63 -53 -148 -53
q-62 0 -116 34q-9 7 -14 -1z" />
    <glyph glyph-name="uni0258" unicode="&#x258;" 
d="M167 268h245q-9 28 -45 53q-33 22 -72 22q-91 0 -128 -75zM70 189v33q3 97 83 157q62 47 142 47q102 0 169 -73q55 -60 55 -140q0 -96 -78 -159q-65 -54 -151 -54q-93 0 -168 49q-11 7 -20 15l42 63q60 -45 146 -45q84 0 126 83q7 13 10 24h-356z" />
    <glyph glyph-name="uni0259" unicode="&#x259;" 
d="M176 157q38 -75 128 -75q63 0 103 51q11 13 14 24h-245zM80 236h355q-16 53 -60 84q-33 23 -76 23q-84 0 -146 -45l-42 63q62 52 157 62q16 2 31 2q101 0 171 -71q59 -61 59 -142q0 -96 -76 -160q-64 -54 -149 -54q-104 0 -171 73q-51 56 -54 132z" />
    <glyph glyph-name="uni025B" unicode="&#x25b;" 
d="M114 133q0 71 60 97q6 3 13 5q-57 17 -66 71q-2 9 -2 19q0 61 83 88q38 13 77 13q62 0 89 -19q1 -1 3 -2q9 -13 12 1q2 16 4 20h71q-14 -38 -14 -71q0 -21 19 -69h-75q-14 48 -56 58q-20 5 -53 5q-63 0 -72 -29q-1 -3 -1 -6q0 -29 64 -36q15 -2 31 -2h39v-74h-34
q-81 0 -100 -40q-5 -10 -5 -22q0 -38 58 -52q16 -4 29 -4q51 0 77 25q6 6 14 16l67 -47q-55 -69 -136 -80q-11 -1 -22 -1q-72 0 -125 39q-49 37 -49 97z" />
    <glyph glyph-name="uni025C" unicode="&#x25c;" 
d="M466 133q0 -84 -92 -120q-41 -16 -82 -16q-82 0 -145 66q-7 7 -13 15l67 47q28 -34 63 -39q11 -2 28 -2q44 0 71 24q16 13 16 32q0 54 -86 61q-9 1 -18 1h-35v74h39q78 0 93 29q2 4 2 9q0 23 -39 32q-15 3 -34 3q-70 0 -93 -30q-10 -13 -16 -33h-74q18 51 18 69
q0 33 -14 71h71q3 -4 4 -16v-4q2 -14 12 -1q27 21 92 21q74 0 123 -35q37 -27 37 -66q0 -63 -59 -87q-4 -2 -9 -3q55 -16 69 -70q4 -15 4 -32z" />
    <glyph glyph-name="uni0260" unicode="&#x260;" 
d="M575 426v-84h-76v-373q0 -63 -77 -115q-75 -51 -156 -51q-94 0 -193 58l16 82q46 -32 126 -48q28 -6 50 -6q82 0 122 50q20 25 21 55v65q-29 -38 -81 -57q-28 -10 -58 -10q-99 0 -169 73q-61 65 -61 148q0 94 75 161q66 60 154 60q92 0 140 -66v58h167zM269 344
q-64 0 -109 -52q-31 -37 -31 -79q0 -59 54 -101q40 -30 86 -30q65 0 109 53q30 36 30 78q0 60 -54 101q-39 30 -85 30z" />
    <glyph glyph-name="uni0261" unicode="&#x261;" 
d="M326 426q72 0 100 -32q10 -8 12 1q3 26 12 40l63 -14q-18 -49 -18 -66q0 -21 19 -69l-74 -18q-30 54 -95 70q-14 3 -27 3q-73 0 -114 -54q-23 -31 -23 -69q0 -68 61 -112q37 -27 72 -27q82 0 118 52q11 15 12 28h-69v72h145v-72v0q-2 -64 -65 -114q-59 -47 -134 -47
q-98 0 -170 72q-65 65 -65 146q0 90 85 155q73 55 155 55z" />
    <glyph glyph-name="uni0262" unicode="&#x262;" 
d="M326 426q72 0 100 -32q10 -8 12 1q3 26 12 40l63 -14q-18 -49 -18 -66q0 -21 19 -69l-74 -18q-30 54 -95 70q-14 3 -27 3q-73 0 -114 -54q-23 -31 -23 -69q0 -68 61 -112q37 -27 72 -27q82 0 118 52q11 15 12 28h-69v72h145v-72v0q-2 -64 -65 -114q-59 -47 -134 -47
q-98 0 -170 72q-65 65 -65 146q0 90 85 155q73 55 155 55z" />
    <glyph glyph-name="uni0265" unicode="&#x265;" 
d="M430 244q-86 -51 -149 -51q-68 0 -136 51q-61 46 -61 92v212h-58v84h208v-84h-60v-162q0 -42 36 -77q30 -29 71 -29q58 0 143 54l6 4v210h-58v84h208v-84h-60v-446l60 18v-84l-150 -37v245z" />
    <glyph glyph-name="uni0268" unicode="&#x268;" 
d="M262 342h-159v84h249v-158h86v-90h-86v-94h147v-84h-396v84h159v94h-86v90h86v74zM326 562v-97h-74v97h74z" />
    <glyph glyph-name="uni0269" unicode="&#x269;" 
d="M352 161q0 -38 32 -74q22 -24 44 -24q33 0 52 28q-13 3 -23 22q-2 4 -2 7q0 55 33 68q26 9 44 -16q11 -16 10 -40q-2 -67 -47 -111q-32 -32 -74 -32q-78 0 -124 51q-35 39 -35 99v203h-159v84h249v-265z" />
    <glyph glyph-name="uni026A" unicode="&#x26a;" 
d="M258 343h-168v84h421v-84h-164v-259h163v-84h-421v84h169v259z" />
    <glyph glyph-name="uni026F" unicode="&#x26f;" 
d="M286 55q-36 -44 -89 -63q-11 -4 -18 -4q-88 0 -114 88q-7 26 -7 56v211h-59v85h149v-260q0 -93 30 -93q39 0 69 47q4 5 6 10v211h-58v85h149v-260q0 -72 15 -86q6 -7 16 -7q43 0 67 42q5 8 7 15v211h-58v85h208v-85h-60v-257h60v-84h-124v50q-14 -30 -68 -54
q-21 -10 -32 -10q-71 0 -89 67z" />
    <glyph glyph-name="uni0274" unicode="&#x274;" 
d="M150 425l305 -291v208h-77v84h222v-84h-55v-349h-80l-317 301h-2v-210h78v-84h-224v84h56v258h-56v84h150v-1z" />
    <glyph glyph-name="uni0278" unicode="&#x278;" 
d="M258 211v127q-38 -27 -38 -64q0 -36 38 -63zM348 340l-1 -131q41 26 41 65t-40 66zM257 478h-167v84h421v-84h-164v-40q75 -21 111 -87q20 -36 20 -77q0 -79 -66 -130q-29 -23 -65 -33v-27h163v-84h-421v84h169v28q-72 20 -108 85q-20 37 -20 77q0 79 65 131q28 22 62 32
v41z" />
    <glyph glyph-name="uni0279" unicode="&#x279;" 
d="M122 119q33 -46 85 -46q58 0 139 52q6 4 10 7v210h-58v84h208v-84h-60v-258h60v-84h-150v38q-88 -52 -149 -52q-62 0 -124 41q-23 16 -36 32z" />
    <glyph glyph-name="uni027A" unicode="&#x27a;" 
d="M122 119q33 -46 85 -46q58 0 139 52q6 4 10 7v418h-58v84h208v-84h-60v-466h60v-84h-150v38q-88 -52 -149 -52q-62 0 -124 41q-23 16 -36 32z" />
    <glyph glyph-name="uni0280" unicode="&#x280;" 
d="M169 240h219q81 0 81 53q0 38 -37 46q-16 3 -44 3h-219v-102zM402 156q36 -20 58 -61q-6 11 6 -11h91v-84h-148q-18 64 -106 143q-9 8 -16 13h-118v-72h103v-84h-263v84h70v258h-70v84h377q112 0 153 -59q18 -26 18 -62q0 -95 -75 -133q-37 -18 -80 -16z" />
    <glyph glyph-name="uni0281" unicode="&#x281;" 
d="M169 185v-102h219q63 0 76 23q5 10 5 26q0 53 -81 53h-219zM402 269q78 4 122 -50q33 -39 33 -99q0 -92 -109 -115q-29 -6 -62 -6h-377v84h70v258h-70v84h263v-84h-103v-72h118q52 41 92 97q23 33 30 59h148v-84h-91q-22 -41 -42 -57q-10 -8 -22 -15z" />
    <glyph glyph-name="uni0287" unicode="&#x287;" 
d="M562 125h-79v-136h-90v136h-225v84h225v151q0 58 -50 96q-36 27 -83 27q-70 0 -155 -93l-11 -13l-36 65q69 78 147 111q37 16 67 16q114 0 175 -67q36 -41 36 -92v-201h79v-84z" />
    <glyph glyph-name="uni028B" unicode="&#x28b;" 
d="M298 -14q-137 0 -196 101q-37 62 -35 158q0 31 14 97h-59v84h158l-18 -112q-5 -39 -5 -63q0 -90 56 -143q37 -35 85 -35q85 0 122 85q18 43 18 97q0 32 -11 87h-67v84h156l10 -142q1 -15 1 -27q0 -117 -69 -197q-65 -74 -160 -74z" />
    <glyph glyph-name="uni028C" unicode="&#x28c;" 
d="M8 85h74l173 355l83 1l176 -356h74v-84h-217v84h49l-122 253l-122 -253h49v-84h-217v84z" />
    <glyph glyph-name="uni028D" unicode="&#x28d;" 
d="M470 83l-56 205l-73 -188h-80l-70 188l-62 -205h73v-84h-201v84h36l114 366h66l84 -220l87 220h61l113 -366h39v-84h-201v84h70z" />
    <glyph glyph-name="uni028E" unicode="&#x28e;" 
d="M259 595h339v-84h-213l-38 -81l174 -345h67v-84h-216v84h53l-126 248l-121 -248h47v-84h-223v84h76l211 426h-30v84z" />
    <glyph glyph-name="uni028F" unicode="&#x28f;" 
d="M343 84h58v-84h-205v84h57v73l-186 185h-35v84h204v-84h-35l99 -96l96 96h-33v84h204v-84h-35l-189 -185v-73z" />
    <glyph glyph-name="uni0292" unicode="&#x292;" 
d="M279 241q111 -28 153 -113q19 -39 19 -85q0 -98 -83 -154q-58 -40 -132 -40q-56 0 -112 32q-3 2 -10 6l41 73q44 -24 67 -26q7 -1 14 -1q74 0 112 51q19 26 19 59q0 67 -65 101q-38 20 -89 20h-86v62l137 110h-97v-21h-84v105h332v-69z" />
    <glyph glyph-name="uni0299" unicode="&#x299;" 
d="M233 320h189q27 0 29 8q1 1 1 4q0 10 -30 10h-189v-22zM233 84h159q30 0 52 34q14 21 14 45q0 44 -42 65q-13 7 -24 7h-159v-151zM470 274q53 -18 67 -64q7 -24 7 -59q0 -134 -108 -149q-13 -2 -26 -2h-329v84h62v258h-62v84h328q126 -4 130 -81q0 -61 -69 -71z" />
    <glyph glyph-name="uni029C" unicode="&#x29c;" 
d="M191 295h220v62h-72v69h230v-69h-68v-288h67v-69h-230v69h73v139h-220v-139h70v-69h-230v69h70v288h-70v69h230v-69h-70v-62z" />
    <glyph glyph-name="uni029E" unicode="&#x29e;" 
d="M287 549h-35l100 -125l26 22v187h163v-84h-73v-438l73 23v-84l-163 -49v354l-78 -64h33v-84h-257v84h117l100 84l-142 174h-134v84h270v-84z" />
    <glyph glyph-name="uni029F" unicode="&#x29f;" 
d="M156 342h-84v84h261v-84h-87v-258h226l15 131h61l-19 -215h-458v84h85v258z" />
    <glyph glyph-name="uni02B0" unicode="&#x2b0;" 
d="M142 516q53 30 90 30q46 0 89 -37q29 -25 29 -49v-127h35v-50h-125v50h36v97q0 30 -27 51q-16 13 -37 13q-39 0 -90 -35v-126h35v-50h-125v50h36v268l-36 -11v50l90 23v-147z" />
    <glyph glyph-name="uni02B1" unicode="&#x2b1;" 
 />
    <glyph glyph-name="uni02B2" unicode="&#x2b2;" 
d="M53 195q24 -16 66 -16q21 0 38 25q8 11 8 22v224h-62v51h117v-275q0 -54 -45 -83q-24 -16 -56 -16q-51 0 -75 18zM203 582v-58h-44v58h44z" />
    <glyph glyph-name="uni02B3" unicode="&#x2b3;" 
d="M269 428q-19 28 -51 28q-34 0 -90 -35v-126h35v-51h-125v51h36v155h-36v50h90v-23q50 31 90 31q43 0 82 -30q8 -6 14 -13z" />
    <glyph glyph-name="uni02B4" unicode="&#x2b4;" 
d="M88 316q19 -28 50 -28q38 0 90 35v126h-35v51h125v-51h-36v-154h36v-51h-90v23q-50 -31 -90 -31q-43 0 -82 30q-8 7 -14 14z" />
    <glyph glyph-name="uni02B5" unicode="&#x2b5;" 
 />
    <glyph glyph-name="uni02B6" unicode="&#x2b6;" 
d="M118 354v-62h131q42 0 48 19q1 5 1 11q0 32 -49 32h-131zM258 404q53 2 79 -38q13 -22 13 -51q0 -60 -77 -71q-12 -2 -25 -2h-226v50h41v155h-41v51h158v-51h-62v-43h71q61 52 73 94h88v-51h-54q-16 -29 -38 -43z" />
    <glyph glyph-name="uni02B7" unicode="&#x2b7;" 
d="M115 448l34 -123l44 113h48l42 -113l37 123h-44v50h121v-50h-22l-68 -220h-40l-50 132l-53 -132h-36l-68 220h-23v50h120v-50h-42z" />
    <glyph glyph-name="uni02B8" unicode="&#x2b8;" 
d="M235 123h-204v51h128l23 48l-105 207h-40v51h130v-51h-32l76 -148l72 148h-28v51h134v-51h-46l-126 -255h18v-51z" />
    <glyph glyph-name="uni02B9" unicode="&#x2b9;" 
d="M52 661h52l-35 -151h-24z" />
    <glyph glyph-name="uni02BA" unicode="&#x2ba;" 
d="M52 661h52l-35 -151h-24zM141 661h52l-35 -151h-24z" />
    <glyph glyph-name="uni02BB" unicode="&#x2bb;" 
d="M197 453l138 204h46l-91 -204h-93z" />
    <glyph glyph-name="afii57929" unicode="&#x2bc;" horiz-adv-x="0" 
d="M370 541q-15 -53 -70 -80q-16 -7 -32 -10l-13 16q24 5 40 30q12 19 2 33q-28 17 -23 53q6 36 39 44q8 2 18 1q40 -2 49 -39q6 -27 -10 -48z" />
    <glyph glyph-name="afii64937" unicode="&#x2bd;" 
d="M-185 672q-21 27 -6 59q13 26 45 28q41 3 54 -34q12 -34 -12 -58q-3 -3 -8 -6q-15 -21 16 -48q13 -12 26 -15l-13 -16q-58 11 -89 61q-9 14 -13 29z" />
    <glyph glyph-name="uni02BE" unicode="&#x2be;" 
d="M328 537l1 33q34 0 41 31q8 30 -15 46q-10 8 -25 8v29q52 -1 68 -46q15 -42 -13 -75q-21 -25 -57 -26z" />
    <glyph glyph-name="uni02BF" unicode="&#x2bf;" 
d="M392 537q-52 2 -69 48q-16 42 11 75q20 24 56 24v-29q-33 0 -41 -31q-7 -31 17 -47q11 -7 25 -7z" />
    <glyph glyph-name="uni02C0" unicode="&#x2c0;" 
 />
    <glyph glyph-name="uni02C1" unicode="&#x2c1;" 
 />
    <glyph glyph-name="uni02C2" unicode="&#x2c2;" 
d="M545 390l-292 -138l292 -149v-88l-484 237l484 229v-91z" />
    <glyph glyph-name="uni02C3" unicode="&#x2c3;" 
d="M52 390v91l484 -229l-484 -237v88l292 149z" />
    <glyph glyph-name="uni02C4" unicode="&#x2c4;" 
d="M433 99l-139 292l-148 -292h-88l237 483l229 -483h-91z" />
    <glyph glyph-name="uni02C5" unicode="&#x2c5;" 
d="M433 505h91l-229 -484l-237 484h88l148 -292z" />
    <glyph glyph-name="circumflex" unicode="&#x2c6;" 
d="M431 400l-14 -14l-115 93l-119 -93l-14 14l121 121h21z" />
    <glyph glyph-name="caron" unicode="&#x2c7;" 
d="M431 521l-120 -121h-21l-121 121l14 14l119 -93l115 93z" />
    <glyph glyph-name="uni02C8" unicode="&#x2c8;" 
d="M52 661h52l-14 -122h-24z" />
    <glyph glyph-name="uni02C9" unicode="&#x2c9;" 
d="M71 562h347v-84h-347v84z" />
    <glyph glyph-name="uni02CA" unicode="&#x2ca;" 
d="M318 715l-148 -153h-40l106 153h82z" />
    <glyph glyph-name="uni02CB" unicode="&#x2cb;" 
d="M119 715h79l103 -149h-39z" />
    <glyph glyph-name="uni02CC" unicode="&#x2cc;" 
d="M73 -1h52l-14 -122h-24z" />
    <glyph glyph-name="uni02CD" unicode="&#x2cd;" 
d="M71 -127h347v-84h-347v84z" />
    <glyph glyph-name="uni02CE" unicode="&#x2ce;" 
d="M119 -93h79l103 -148h-39z" />
    <glyph glyph-name="uni02CF" unicode="&#x2cf;" 
d="M318 -91l-148 -153h-40l106 153h82z" />
    <glyph glyph-name="uni02D0" unicode="&#x2d0;" 
d="M43 462h112l-56 -56zM43 0l56 56l56 -56h-112z" />
    <glyph glyph-name="uni02D1" unicode="&#x2d1;" 
d="M43 462h112l-56 -56z" />
    <glyph glyph-name="uni02D2" unicode="&#x2d2;" 
d="M328 166l1 33q34 0 41 31q8 30 -15 46q-10 8 -25 8v29q52 -1 68 -46q15 -42 -13 -75q-21 -25 -57 -26z" />
    <glyph glyph-name="uni02D3" unicode="&#x2d3;" 
d="M392 154q-52 2 -69 48q-16 42 11 75q20 24 56 24v-29q-33 0 -41 -31q-7 -31 17 -47q11 -7 25 -7z" />
    <glyph glyph-name="uni02D4" unicode="&#x2d4;" 
d="M186 302h98v-27h-223v27h98v96h27v-96z" />
    <glyph glyph-name="uni02D5" unicode="&#x2d5;" 
d="M186 384v-96h-27v96h-98v27h223v-27h-98z" />
    <glyph glyph-name="uni02D6" unicode="&#x2d6;" 
d="M96 308h115v116h72v-116h120v-72h-120v-120h-72v120h-115v72z" />
    <glyph glyph-name="uni02D7" unicode="&#x2d7;" 
d="M77 315h385v-87h-385v87z" />
    <glyph glyph-name="breve" unicode="&#x2d8;" 
d="M361 787q-8 -63 -59 -87q-21 -9 -44 -9q-60 0 -89 51q-12 20 -15 45h24q13 -44 80 -44q59 0 79 44h24z" />
    <glyph glyph-name="dotaccent" unicode="&#x2d9;" 
d="M326 562v-97h-74v97h74z" />
    <glyph glyph-name="ring" unicode="&#x2da;" 
d="M244 628q50 0 77 -43q14 -22 14 -48q0 -50 -43 -77q-22 -14 -48 -14q-50 0 -77 43q-14 22 -14 48q0 50 43 77q22 14 48 14zM244 594q-34 0 -51 -31q-6 -12 -6 -26q0 -34 31 -51q12 -6 26 -6q34 0 51 31q6 12 6 26q0 34 -31 51q-12 6 -26 6z" />
    <glyph glyph-name="ogonek" unicode="&#x2db;" 
d="M123 0h42q-38 -6 -48 -49q-4 -15 -2 -31q5 -35 65 -45q53 -9 85 35l20 -25q-35 -56 -100 -55q-62 1 -93 42q-17 21 -17 48q0 54 48 80z" />
    <glyph glyph-name="tilde" unicode="&#x2dc;" 
d="M283 708q1 43 39 67q18 11 36 11q15 1 44 -22q16 -13 25 -12q34 3 54 30h5q3 -40 -25 -63q-14 -11 -32 -11q-23 1 -48 22q-15 13 -26 13q-40 -1 -62 -35h-10z" />
    <glyph glyph-name="hungarumlaut" unicode="&#x2dd;" 
d="M383 657l-169 -175h-46l122 175h93zM565 657l-169 -175h-46l122 175h93z" />
    <glyph glyph-name="uni02DE" unicode="&#x2de;" 
d="M49 228q22 7 42 34q5 7 7 13l9 -52q20 -75 56 -75q24 0 44 35q9 16 20 7q8 -8 2 -17q-35 -46 -64 -49q-53 0 -73 84l-4 20q-9 -17 -32 -24l-22 -6l-4 24z" />
    <glyph glyph-name="uni02E0" unicode="&#x2e0;" 
 />
    <glyph glyph-name="uni02E1" unicode="&#x2e1;" 
d="M158 604l-81 -21v51l135 29v-329h114v-50h-249v50h81v270z" />
    <glyph glyph-name="uni02E2" unicode="&#x2e2;" 
d="M302 502q-7 -12 -7 -30q-1 -22 14 -37l-40 1q-13 24 -73 24q-48 0 -54 -23q0 -21 44 -37q62 -21 72 -27q42 -22 42 -63q0 -43 -56 -62q-24 -8 -51 -8q-46 0 -70 15q-4 3 -6 -3q-1 -4 -8 -17h-38l9 20q6 14 6 23q0 14 -15 34h38q13 -26 71 -26q68 0 68 24q0 19 -43 32
q-62 21 -77 30q-39 23 -39 65t60 59q22 6 47 6q44 0 62 -10q6 -4 7 0t5 10h32z" />
    <glyph glyph-name="uni02E3" unicode="&#x2e3;" 
d="M176 242h-145v51h51l88 77l-89 78h-50v50h145v-50h-29l56 -50l56 50h-30v50h147v-50h-52l-88 -78l87 -77h53v-51h-147v51h28l-54 47l-55 -47h28v-51z" />
    <glyph glyph-name="uni02E4" unicode="&#x2e4;" 
 />
    <glyph glyph-name="uni02E5" unicode="&#x2e5;" 
d="M0 653h178v-653h-32v623h-146v30z" />
    <glyph glyph-name="uni02E6" unicode="&#x2e6;" 
d="M0 526h146v127h32v-653h-32v496h-146v30z" />
    <glyph glyph-name="uni02E7" unicode="&#x2e7;" 
d="M0 361h146v292h32v-653h-32v331h-146v30z" />
    <glyph glyph-name="uni02E8" unicode="&#x2e8;" 
d="M0 126v30h146v496h32v-653h-32v127h-146z" />
    <glyph glyph-name="uni02E9" unicode="&#x2e9;" 
d="M0 0v30h146v623h32v-653h-178z" />
    <glyph glyph-name="gravecomb" unicode="&#x300;" horiz-adv-x="0" 
d="M-144 715h79l104 -149h-39z" />
    <glyph glyph-name="acutecomb" unicode="&#x301;" horiz-adv-x="0" 
d="M89 715l-148 -153h-40l106 153h82z" />
    <glyph glyph-name="uni0302" unicode="&#x302;" horiz-adv-x="0" 
d="M23 672l-31 -24l-112 72l-111 -65l-25 17l140 109z" />
    <glyph glyph-name="tildecomb" unicode="&#x303;" horiz-adv-x="0" 
d="M-302 668q1 39 37 61q15 10 31 10q14 1 41 -21q14 -11 22 -10q30 3 49 27h5q2 -37 -24 -57q-13 -10 -28 -10q-21 1 -44 20q-13 12 -24 12q-36 -1 -56 -32h-9z" />
    <glyph glyph-name="uni0304" unicode="&#x304;" horiz-adv-x="0" 
d="M-381 684h347v-84h-347v84z" />
    <glyph glyph-name="uni0305" unicode="&#x305;" horiz-adv-x="0" 
d="M-585 692h582v-82h-582v82z" />
    <glyph glyph-name="uni0306" unicode="&#x306;" horiz-adv-x="0" 
d="M-118 787q-8 -63 -59 -87q-21 -9 -44 -9q-60 0 -89 51q-12 20 -15 45h24q13 -44 79 -44q60 0 80 44h24z" />
    <glyph glyph-name="uni0307" unicode="&#x307;" horiz-adv-x="0" 
d="M11 715v-97h-74v97h74z" />
    <glyph glyph-name="uni0308" unicode="&#x308;" horiz-adv-x="0" 
d="M-202 687q0 27 25 36q6 2 13 2q27 0 36 -25q2 -6 2 -13q0 -27 -25 -36q-6 -2 -13 -2q-27 0 -36 25q-2 6 -2 13zM-45 687q0 27 25 36q6 2 13 2q27 0 36 -25q2 -6 2 -13q0 -27 -25 -36q-6 -2 -13 -2q-27 0 -36 25q-2 6 -2 13z" />
    <glyph glyph-name="hookabovecomb" unicode="&#x309;" horiz-adv-x="0" 
d="M-114 758q0 22 -17 22q-7 0 -14 -10l-15 -8q-1 15 17 23q5 2 10 2q41 1 43 -30q1 -17 -18 -34q-15 -14 -17 -28q-1 -4 -1 -8h-12v9q1 12 15 34q9 14 9 28z" />
    <glyph glyph-name="uni030A" unicode="&#x30a;" horiz-adv-x="0" 
d="M-257 772q52 0 78 -44q13 -21 13 -47q0 -52 -44 -78q-21 -13 -47 -13q-50 0 -77 43q-14 22 -14 48q0 52 44 78q22 13 47 13zM-257 738q-36 0 -51 -32q-6 -12 -6 -25q0 -34 31 -51q12 -6 26 -6q36 0 51 33q6 11 6 24q0 37 -34 52q-11 5 -23 5z" />
    <glyph glyph-name="uni030B" unicode="&#x30b;" horiz-adv-x="0" 
d="M-39 715l-148 -153h-41l107 153h82zM-219 715l-148 -153h-40l106 153h82z" />
    <glyph glyph-name="uni030C" unicode="&#x30c;" horiz-adv-x="0" 
d="M-183 674l-97 -98h-17l-98 98l11 12l97 -76l93 76z" />
    <glyph glyph-name="uni030D" unicode="&#x30d;" horiz-adv-x="0" 
d="M-124 786h52l-14 -122h-24z" />
    <glyph glyph-name="uni030E" unicode="&#x30e;" horiz-adv-x="0" 
d="M-99 785h52l-14 -122h-24zM-241 785h52l-14 -122h-24z" />
    <glyph glyph-name="uni030F" unicode="&#x30f;" horiz-adv-x="0" 
d="M-278 672h80l103 -149h-39zM-459 672h79l104 -149h-40z" />
    <glyph glyph-name="uni0310" unicode="&#x310;" horiz-adv-x="0" 
d="M-124 731q-8 -64 -61 -87q-20 -8 -43 -8q-60 0 -89 50q-12 20 -14 45h24q13 -43 79 -43q59 0 80 43h24zM-29 731v-97h-74v97h74z" />
    <glyph glyph-name="uni0311" unicode="&#x311;" horiz-adv-x="0" 
d="M-118 691h-24q-20 44 -80 44q-66 0 -79 -44h-24q6 60 57 85q22 11 47 11q60 0 89 -53q11 -19 14 -43z" />
    <glyph glyph-name="uni0312" unicode="&#x312;" horiz-adv-x="0" 
d="M-165 734q15 53 70 80q16 7 32 10l13 -16q-24 -6 -40 -30q-12 -19 -2 -33q28 -17 23 -53q-6 -36 -39 -44q-8 -2 -18 -1q-40 2 -49 39q-6 27 10 48z" />
    <glyph glyph-name="uni0313" unicode="&#x313;" horiz-adv-x="0" 
d="M-99 672q-15 -53 -70 -80q-16 -7 -32 -10l-13 16q24 6 40 30q12 19 2 33q-28 17 -23 53q6 36 39 44q8 2 18 1q40 -2 49 -39q6 -27 -10 -48z" />
    <glyph glyph-name="uni0314" unicode="&#x314;" horiz-adv-x="0" 
d="M-189 672q-21 27 -6 59q13 26 45 28q41 3 54 -34q12 -34 -12 -58q-3 -3 -8 -6q-15 -21 16 -48q13 -12 26 -15l-13 -16q-58 11 -89 61q-9 14 -13 29z" />
    <glyph glyph-name="uni0315" unicode="&#x315;" horiz-adv-x="0" 
d="M-99 672q-15 -53 -70 -80q-16 -7 -32 -10l-13 16q24 6 40 30q12 19 2 33q-28 17 -23 53q6 36 39 44q8 2 18 1q40 -2 49 -39q6 -27 -10 -48z" />
    <glyph glyph-name="uni0316" unicode="&#x316;" horiz-adv-x="0" 
d="M-486 -16h79l104 -149h-39z" />
    <glyph glyph-name="uni0317" unicode="&#x317;" horiz-adv-x="0" 
d="M-222 -17l-148 -153h-40l106 153h82z" />
    <glyph glyph-name="uni0318" unicode="&#x318;" horiz-adv-x="0" 
d="M-158 -121h-78v20h78v52h20v-124h-20v52z" />
    <glyph glyph-name="uni0319" unicode="&#x319;" horiz-adv-x="0" 
d="M-214 -121v-52h-20v124h20v-52h78v-20h-78z" />
    <glyph glyph-name="uni031A" unicode="&#x31a;" horiz-adv-x="0" 
d="M-164 600h-30v91h-229v30h259v-121z" />
    <glyph glyph-name="uni031B" unicode="&#x31b;" horiz-adv-x="0" 
d="M-99 672q-15 -53 -70 -80q-16 -7 -32 -10l-13 16q24 6 40 30q12 19 2 33q-28 17 -23 53q6 36 39 44q8 2 18 1q40 -2 49 -39q6 -27 -10 -48z" />
    <glyph glyph-name="uni031C" unicode="&#x31c;" horiz-adv-x="0" 
d="M-134 -163q-52 2 -69 48q-16 42 11 75q20 24 56 24v-29q-33 0 -41 -31q-7 -31 17 -47q11 -7 25 -7z" />
    <glyph glyph-name="uni031D" unicode="&#x31d;" horiz-adv-x="0" 
d="M-197 -136v78h20v-78h52v-20h-124v20h52z" />
    <glyph glyph-name="uni031E" unicode="&#x31e;" horiz-adv-x="0" 
d="M-197 -68h-52v20h124v-20h-52v-78h-20v78z" />
    <glyph glyph-name="uni031F" unicode="&#x31f;" horiz-adv-x="0" 
d="M-383 -121v-52h-20v52h-52v20h52v52h20v-52h52v-20h-52z" />
    <glyph glyph-name="uni0320" unicode="&#x320;" horiz-adv-x="0" 
d="M-345 -79h254v-82h-254v82z" />
    <glyph glyph-name="uni0321" unicode="&#x321;" horiz-adv-x="0" 
d="M-110 -132q0 -43 -38 -60q-13 -6 -29 -6q-23 -1 -24 17q-1 15 16 19q14 0 14 -12q1 -6 -4 -12q-3 -5 -6 -6q2 0 10 2q21 6 33 28q5 9 5 20v102h23v-92z" />
    <glyph glyph-name="uni0322" unicode="&#x322;" horiz-adv-x="0" 
d="M-164 -132v92h23v-102q0 -29 32 -45q3 -2 6 -3q8 -2 10 -2q-3 1 -6 6q-11 12 0 21q4 3 10 3q14 -1 16 -16q1 -17 -18 -20h-6q-50 1 -64 44q-3 10 -3 22z" />
    <glyph glyph-name="dotbelowcomb" unicode="&#x323;" horiz-adv-x="0" 
d="M-208 -57v-97h-74v97h74z" />
    <glyph glyph-name="uni0324" unicode="&#x324;" horiz-adv-x="0" 
d="M-432 -101q0 27 25 36q6 2 13 2q27 0 36 -25q2 -6 2 -13q0 -27 -25 -36q-6 -2 -13 -2q-27 0 -36 25q-2 6 -2 13zM-275 -101q0 27 25 36q6 2 13 2q27 0 36 -25q2 -6 2 -13q0 -27 -25 -36q-6 -2 -13 -2q-27 0 -36 25q-2 6 -2 13z" />
    <glyph glyph-name="uni0325" unicode="&#x325;" horiz-adv-x="0" 
d="M-369 -22q50 0 77 -43q14 -22 14 -48q0 -50 -43 -77q-22 -14 -48 -14q-50 0 -77 43q-14 22 -14 48q0 50 43 77q22 14 48 14zM-369 -56q-37 0 -52 -34q-5 -11 -5 -23q0 -36 32 -51q12 -6 25 -6q34 0 51 31q6 12 6 26q0 36 -33 51q-11 6 -24 6z" />
    <glyph glyph-name="uni0326" unicode="&#x326;" horiz-adv-x="0" 
d="M-99 -139q-15 -53 -70 -80q-16 -7 -32 -10l-13 16q24 6 40 30q12 19 2 33q-28 17 -23 53q6 36 39 44q8 2 18 1q40 -2 49 -39q6 -27 -10 -48z" />
    <glyph glyph-name="uni0327" unicode="&#x327;" horiz-adv-x="0" 
d="M-102 26l-10 -54q62 13 97 -30q31 -38 12 -79q-27 -57 -130 -57q-17 0 -35 2l5 34q90 -12 122 26q9 10 8 20q-5 64 -84 51l-8 -2l-26 -6l12 94z" />
    <glyph glyph-name="uni0328" unicode="&#x328;" horiz-adv-x="0" 
d="M-228 0h42q-38 -6 -48 -48q-4 -15 -2 -32q4 -35 65 -45q53 -9 85 35l20 -25q-35 -56 -100 -55q-62 1 -93 42q-17 21 -17 48q0 54 48 80z" />
    <glyph glyph-name="uni0329" unicode="&#x329;" horiz-adv-x="0" 
d="M-124 -68h38v-122h-39z" />
    <glyph glyph-name="uni032A" unicode="&#x32a;" horiz-adv-x="0" 
d="M-333 -165v131h279v-131h-30v101h-219v-101h-30z" />
    <glyph glyph-name="uni032B" unicode="&#x32b;" horiz-adv-x="0" 
d="M-217 -47h30v-81q4 -17 43 -20q29 0 40 13q3 3 3 7v81h30v-81q0 -35 -48 -47q-13 -3 -25 -3q-36 0 -58 19q-22 -19 -58 -19q-45 0 -65 26q-8 11 -8 24v81h30v-81q4 -17 43 -20q29 0 40 13q3 3 3 7v81z" />
    <glyph glyph-name="uni032C" unicode="&#x32c;" horiz-adv-x="0" 
d="M-152 -63l-96 -97h-17l-97 97l12 11l95 -74l91 74z" />
    <glyph glyph-name="uni032D" unicode="&#x32d;" horiz-adv-x="0" 
d="M-123 -167l-30 -24l-112 72l-111 -65l-25 17l140 109z" />
    <glyph glyph-name="uni032E" unicode="&#x32e;" horiz-adv-x="0" 
d="M-118 -63q-8 -63 -59 -87q-21 -9 -44 -9q-60 0 -89 51q-12 20 -15 45h24q13 -44 79 -44q60 0 80 44h24z" />
    <glyph glyph-name="uni032F" unicode="&#x32f;" horiz-adv-x="0" 
d="M-118 -162h-24q-20 43 -80 43q-66 0 -79 -43h-24q7 61 59 85q21 10 45 10q61 0 89 -52q11 -19 14 -43z" />
    <glyph glyph-name="uni0330" unicode="&#x330;" horiz-adv-x="0" 
d="M-302 -179q1 41 38 62q15 9 30 9q14 1 42 -21q14 -10 21 -10q31 3 49 28h5q2 -38 -26 -59q-12 -9 -26 -9q-21 1 -44 21q-13 11 -24 11q-35 0 -56 -32h-9z" />
    <glyph glyph-name="uni0331" unicode="&#x331;" horiz-adv-x="0" 
d="M-381 -84h347v-84h-347v84z" />
    <glyph glyph-name="uni0332" unicode="&#x332;" horiz-adv-x="0" 
d="M-600 -73h582v-81h-582v81z" />
    <glyph glyph-name="uni0333" unicode="&#x333;" horiz-adv-x="0" 
d="M-630 -19h582v-82h-582v82zM-630 -107h582v-82h-582v82z" />
    <glyph glyph-name="uni0334" unicode="&#x334;" horiz-adv-x="0" 
d="M-302 268q1 39 37 61q15 10 31 10q14 1 41 -21q14 -11 22 -10q30 3 49 27h5q2 -37 -24 -57q-13 -10 -28 -10q-21 1 -44 20q-13 12 -24 12q-36 -1 -56 -32h-9z" />
    <glyph glyph-name="uni0335" unicode="&#x335;" horiz-adv-x="0" 
d="M-381 284h347v-84h-347v84z" />
    <glyph glyph-name="uni0336" unicode="&#x336;" horiz-adv-x="0" 
d="M-622 292h582v-82h-582v82z" />
    <glyph glyph-name="uni0337" unicode="&#x337;" horiz-adv-x="0" 
d="M-431 146l246 245l59 -59l-245 -246z" />
    <glyph glyph-name="uni0338" unicode="&#x338;" horiz-adv-x="0" 
d="M-923 -62l601 601l57 -58l-600 -600z" />
    <glyph glyph-name="uni0339" unicode="&#x339;" horiz-adv-x="0" 
d="M-192 -163l1 33q34 0 41 31q8 30 -15 46q-10 8 -25 8v29q52 -1 68 -46q15 -42 -13 -75q-21 -25 -57 -26z" />
    <glyph glyph-name="uni033A" unicode="&#x33a;" horiz-adv-x="0" 
d="M-462 -33h30v-101h219v101h30v-131h-279v131z" />
    <glyph glyph-name="uni033B" unicode="&#x33b;" horiz-adv-x="0" 
d="M-153 -30v-146h-146v146h146zM-173 -50h-106v-106h106v106z" />
    <glyph glyph-name="uni033C" unicode="&#x33c;" horiz-adv-x="0" 
d="M-217 -106q-4 17 -43 20q-30 0 -44 -11q-19 -15 -20 -1q-2 12 10 20q25 18 37 20q8 2 17 2q36 0 58 -19q22 19 58 19q33 0 58 -29q11 -12 2 -18q-6 -5 -15 2q-19 14 -45 15q-29 0 -40 -13q-3 -3 -3 -7q0 -37 -14 -40q-10 -2 -15 22q-1 8 -1 18z" />
    <glyph glyph-name="uni033D" unicode="&#x33d;" horiz-adv-x="0" 
d="M-140 661l-79 43l-79 -43l-15 26l63 34l-63 34l15 26l79 -43l79 43l15 -26l-63 -34l63 -34z" />
    <glyph glyph-name="uni033E" unicode="&#x33e;" horiz-adv-x="0" 
d="M-279 616v8q27 18 27 49q0 9 -14 25q-13 15 -13 33q-1 30 32 42q13 4 26 3v-4q-21 -16 -24 -42q0 -6 15 -27q13 -16 12 -28q-1 -33 -33 -51q-13 -8 -28 -8z" />
    <glyph glyph-name="uni033F" unicode="&#x33f;" horiz-adv-x="0" 
d="M-603 805h581v-81h-581v81zM-603 664h581v-81h-581v81z" />
    <glyph glyph-name="uni0340" unicode="&#x340;" horiz-adv-x="0" 
d="M-144 715h79l104 -149h-39z" />
    <glyph glyph-name="uni0341" unicode="&#x341;" horiz-adv-x="0" 
d="M89 715l-148 -153h-40l106 153h82z" />
    <glyph glyph-name="uni0342" unicode="&#x342;" horiz-adv-x="0" 
d="M-302 668q1 39 37 61q15 10 31 10q14 1 41 -21q14 -11 22 -10q30 3 49 27h5q2 -37 -24 -57q-13 -10 -28 -10q-21 1 -44 20q-13 12 -24 12q-36 -1 -56 -32h-9z" />
    <glyph glyph-name="uni0343" unicode="&#x343;" horiz-adv-x="0" 
d="M-99 672q-15 -53 -70 -80q-16 -7 -32 -10l-13 16q24 6 40 30q12 19 2 33q-28 17 -23 53q6 36 39 44q8 2 18 1q40 -2 49 -39q6 -27 -10 -48z" />
    <glyph glyph-name="uni0344" unicode="&#x344;" horiz-adv-x="0" 
d="M22 940l-169 -175h-46l122 175h93zM-202 687q0 27 25 36q6 2 13 2q27 0 36 -25q2 -6 2 -13q0 -27 -25 -36q-6 -2 -13 -2q-27 0 -36 25q-2 6 -2 13zM-45 687q0 27 25 36q6 2 13 2q27 0 36 -25q2 -6 2 -13q0 -27 -25 -36q-6 -2 -13 -2q-27 0 -36 25q-2 6 -2 13z" />
    <glyph glyph-name="uni0345" unicode="&#x345;" horiz-adv-x="0" 
d="M-412 -35h56l-1 -46q-1 -35 28 -52q27 -15 59 6q14 9 18 -4q4 -12 -6 -19q-46 -36 -97 -20q-50 16 -56 72q-1 7 -1 14v49z" />
    <glyph glyph-name="uni0360" unicode="&#x360;" horiz-adv-x="0" 
d="M217 774q5 -38 -43 -65q-37 -21 -89 -20t-108 26q-35 15 -61 15q-88 -1 -142 -41h-21q2 40 67 68q48 20 103 21q34 1 101 -25q38 -14 57 -13q74 1 123 34h13z" />
    <glyph glyph-name="uni0361" unicode="&#x361;" horiz-adv-x="0" 
d="M208 787q-14 -55 -100 -82q-48 -14 -106 -14q-121 0 -179 51q-24 20 -29 45h28q26 -44 179 -44q114 0 167 33q9 5 14 11h26z" />
    <glyph glyph-name="uni0374" unicode="&#x374;" 
d="M209 661h52l-35 -151h-24z" />
    <glyph glyph-name="uni0375" unicode="&#x375;" 
d="M209 -17h52l-35 -151h-24z" />
    <glyph glyph-name="uni037A" unicode="&#x37a;" 
d="M213 -35h56l-1 -46q-1 -35 28 -52q27 -15 59 6q14 9 18 -4q4 -12 -6 -19q-46 -36 -97 -20q-50 16 -56 72q-1 7 -1 14v49z" />
    <glyph glyph-name="uni037E" unicode="&#x37e;" 
d="M183 351q0 42 41 62q19 10 41 10q48 0 72 -37q10 -16 10 -35q0 -40 -40 -61q-19 -10 -42 -10q-48 0 -72 37q-10 16 -10 34zM335 112l-120 -246h-79l82 246h117z" />
    <glyph glyph-name="tonos" unicode="&#x384;" 
d="M52 661h52l-14 -122h-24z" />
    <glyph glyph-name="dieresistonos" unicode="&#x385;" 
d="M219 720h52l-14 -122h-24zM129 520q0 27 25 36q6 2 13 2q27 0 36 -25q2 -6 2 -13q0 -27 -25 -36q-6 -2 -13 -2q-27 0 -36 25q-2 6 -2 13zM286 520q0 27 25 36q6 2 13 2q27 0 36 -25q2 -6 2 -13q0 -27 -25 -36q-6 -2 -13 -2q-27 0 -36 25q-2 6 -2 13z" />
    <glyph glyph-name="Alphatonos" unicode="&#x386;" 
d="M-63 562h52l-14 -122h-24zM255 295h93l-49 134zM361 84h53l-50 149h-125l-50 -149h53v-84h-213v84h68l126 394h-101v84h233l150 -478h66v-84h-210v84z" />
    <glyph glyph-name="anoteleia" unicode="&#x387;" 
d="M221 248q0 41 41 62q19 9 41 9q50 0 73 -38q9 -15 9 -33q0 -40 -40 -61q-19 -10 -42 -10q-48 0 -72 37q-10 16 -10 34z" />
    <glyph glyph-name="Epsilontonos" unicode="&#x388;" 
d="M-18 562h52l-14 -122h-24zM448 391v-176h-71v57h-144v-188h247l12 76h60l-12 -160h-466v84h70v394h-70v84h464l9 -151h-58l-9 67h-247v-122h144v35h71z" />
    <glyph glyph-name="Etatonos" unicode="&#x389;" 
d="M-61 562h52l-14 -122h-24zM190 386h220v92h-71v84h230v-84h-69v-394h68v-84h-230v84h72v214h-220v-214h71v-84h-230v84h69v394h-69v84h230v-84h-71v-92z" />
    <glyph glyph-name="Iotatonos" unicode="&#x38a;" 
d="M-3 562h52l-14 -122h-24zM258 478h-168v84h421v-84h-164v-394h163v-84h-421v84h169v394z" />
    <glyph glyph-name="Omicrontonos" unicode="&#x38c;" 
d="M-30 571h52l-14 -122h-24zM300 571q101 0 172 -91q66 -85 66 -199q0 -122 -74 -209q-69 -81 -164 -81q-101 0 -172 91q-66 85 -66 199q0 122 74 209q69 81 164 81zM300 480q-66 0 -110 -68q-37 -56 -37 -131q0 -100 60 -160q39 -39 87 -39q66 0 110 68q37 56 37 131
q0 100 -60 160q-39 39 -87 39z" />
    <glyph glyph-name="Upsilontonos" unicode="&#x38e;" 
d="M-60 562h52l-14 -122h-24zM343 84h58v-84h-205v84h57v139l-186 255h-35v84h204v-84h-60l124 -166l123 166h-60v84h204v-84h-35l-189 -255v-139z" />
    <glyph glyph-name="Omegatonos" unicode="&#x38f;" 
d="M-92 572h52l-14 -122h-24zM436 84h82l29 79l48 -19l-54 -144h-195v102q0 46 52 107q46 55 55 72q13 24 13 46q0 82 -64 127q-43 30 -102 30q-105 0 -147 -76q-19 -35 -19 -81q0 -36 48 -92q49 -58 60 -84q12 -25 12 -49v-102h-195l-59 142l53 21l29 -79h82v18
q0 27 -41 78q-53 66 -67 105q-12 32 -12 65q0 109 93 173q70 49 163 49q116 0 191 -71q65 -62 65 -151q0 -68 -59 -142q-43 -55 -50 -67q-11 -20 -11 -39v-18z" />
    <glyph glyph-name="iotadieresistonos" unicode="&#x390;" 
d="M300 732h52l-14 -122h-24zM210 532q0 27 25 36q6 2 13 2q27 0 36 -25q2 -6 2 -13q0 -27 -25 -36q-6 -2 -13 -2q-27 0 -36 25q-2 6 -2 13zM367 532q0 27 25 36q6 2 13 2q27 0 36 -25q2 -6 2 -13q0 -27 -25 -36q-6 -2 -13 -2q-27 0 -36 25q-2 6 -2 13zM352 -21
q0 -38 32 -74q22 -24 44 -24q33 0 52 28q-13 3 -23 22q-2 4 -2 7q0 55 33 68q26 9 44 -16q11 -16 10 -40q-2 -67 -47 -111q-32 -32 -74 -32q-78 0 -124 51q-35 39 -35 99v385h-159v84h249v-447z" />
    <glyph glyph-name="Alpha" unicode="&#x391;" 
d="M255 295h93l-49 134zM361 84h53l-50 149h-125l-50 -149h53v-84h-213v84h68l126 394h-101v84h233l150 -478h66v-84h-210v84z" />
    <glyph glyph-name="Beta" unicode="&#x392;" 
d="M233 386h150q69 0 69 48q0 37 -46 43q-9 1 -22 1h-151v-92zM233 84h137q51 0 74 47q14 26 14 65q0 69 -53 96q-17 9 -34 9h-138v-217zM470 340q74 -49 74 -156t-62 -158q-32 -26 -72 -26h-329v84h62v394h-62v84h328q64 0 104 -46q26 -31 26 -72q0 -78 -69 -104z" />
    <glyph glyph-name="Gamma" unicode="&#x393;" 
d="M133 84v394h-85v84h457l20 -223h-87l-17 139h-198v-394h87v-84h-261v84h84z" />
    <glyph glyph-name="uni0394" unicode="&#x394;" 
d="M289 562l280 -475v-88h-558l-1 88zM289 422l-186 -336h373z" />
    <glyph glyph-name="Epsilon" unicode="&#x395;" 
d="M448 391v-176h-71v57h-144v-188h247l12 76h60l-12 -160h-466v84h70v394h-70v84h464l9 -151h-58l-9 67h-247v-122h144v35h71z" />
    <glyph glyph-name="Zeta" unicode="&#x396;" 
d="M412 84l9 119h83l-15 -203h-390v20l258 458h-178l-4 -119h-84l9 203h388v-23l-258 -455h182z" />
    <glyph glyph-name="Eta" unicode="&#x397;" 
d="M190 386h220v92h-71v84h230v-84h-69v-394h68v-84h-230v84h72v214h-220v-214h71v-84h-230v84h69v394h-69v84h230v-84h-71v-92z" />
    <glyph glyph-name="Theta" unicode="&#x398;" 
d="M185 327h229v-84h-229v84zM300 571q101 0 172 -91q66 -85 66 -199q0 -122 -74 -209q-69 -81 -164 -81q-101 0 -172 91q-66 85 -66 199q0 122 74 209q69 81 164 81zM300 480q-66 0 -110 -68q-37 -56 -37 -131q0 -100 60 -160q39 -39 87 -39q66 0 110 68q37 56 37 131
q0 100 -60 160q-39 39 -87 39z" />
    <glyph glyph-name="Iota" unicode="&#x399;" 
d="M258 478h-168v84h421v-84h-164v-394h163v-84h-421v84h169v394z" />
    <glyph glyph-name="Kappa" unicode="&#x39a;" 
d="M293 562h260v-84h-111l-161 -171q112 -31 207 -193l16 -29h90v-85h-143q-79 144 -137 193q-41 35 -95 48l-43 -46v-111h91v-84h-262v84h82v394h-82v84h247v-84h-76v-155l145 155h-28v84z" />
    <glyph glyph-name="Lambda" unicode="&#x39b;" 
d="M587 83v-84h-196v84h60l-151 384l-150 -384h59v-84h-196v84h43l201 494h87l199 -494h44z" />
    <glyph glyph-name="Mu" unicode="&#x39c;" 
d="M546 478v-394h42v-84h-210v84h78v302h-4l-140 -265h-21l-140 260h-7v-297h77v-84h-213v84h46v394h-46v84h148v-11l144 -251l149 254v8h143v-84h-46z" />
    <glyph glyph-name="Nu" unicode="&#x39d;" 
d="M150 561l305 -405v322h-77v84h222v-84h-55v-485h-80l-317 422h-2v-331h78v-84h-224v84h56v394h-56v84h150v-1z" />
    <glyph glyph-name="Xi" unicode="&#x39e;" 
d="M109 140l-9 -54h307l8 54h77l-24 -140h-458l23 140h76zM390 225l4 33h-229l-5 -33h-77l25 147v2l76 1l-6 -35h230l6 33l76 1l-24 -149h-76zM450 422l9 54h-307l-8 -54h-77l24 140h458l-23 -140h-76z" />
    <glyph glyph-name="Omicron" unicode="&#x39f;" 
d="M300 571q101 0 172 -91q66 -85 66 -199q0 -122 -74 -209q-69 -81 -164 -81q-101 0 -172 91q-66 85 -66 199q0 122 74 209q69 81 164 81zM300 480q-66 0 -110 -68q-37 -56 -37 -131q0 -100 60 -160q39 -39 87 -39q66 0 110 68q37 56 37 131q0 100 -60 160q-39 39 -87 39z
" />
    <glyph glyph-name="Pi" unicode="&#x3a0;" 
d="M30 84h66v394h-67v84h543v-84h-67v-394h67v-84h-223v84h67v394h-231v-394h67v-84h-222v84z" />
    <glyph glyph-name="Rho" unicode="&#x3a1;" 
d="M212 270h152q53 0 85 37q24 27 24 67q0 87 -81 102q-14 2 -28 2h-152v-208zM53 84h69v394h-69v84h333q87 0 135 -61q36 -46 36 -115q0 -98 -69 -159q-47 -41 -102 -41h-174v-102h110v-84h-269v84z" />
    <glyph glyph-name="Sigma" unicode="&#x3a3;" 
d="M32 0v84h64l125 197l-126 197h-63v84h503l49 -181h-72l-37 97h-283l126 -197l-125 -197h282l25 97h71l-36 -181h-503z" />
    <glyph glyph-name="Tau" unicode="&#x3a4;" 
d="M495 343l-10 135h-140v-394h122v-84h-333v84h121v394h-140l-10 -135h-71l10 219h512l10 -219h-71z" />
    <glyph glyph-name="Upsilon" unicode="&#x3a5;" 
d="M343 84h58v-84h-205v84h57v139l-186 255h-35v84h204v-84h-60l124 -166l123 166h-60v84h204v-84h-35l-189 -255v-139z" />
    <glyph glyph-name="Phi" unicode="&#x3a6;" 
d="M258 211v127q-38 -27 -38 -64q0 -36 38 -63zM348 340l-1 -131q41 26 41 65t-40 66zM257 478h-167v84h421v-84h-164v-40q75 -21 111 -87q20 -36 20 -77q0 -79 -66 -130q-29 -23 -65 -33v-27h163v-84h-421v84h169v28q-72 20 -108 85q-20 37 -20 77q0 79 65 131q28 22 62 32
v41z" />
    <glyph glyph-name="Chi" unicode="&#x3a7;" 
d="M501 478l-146 -197l146 -197h79v-84h-241v84h53l-91 118l-91 -118h53v-84h-243v84h80l144 197l-145 197h-72v84h243v-84h-60l91 -120l90 120h-60v84h242v-84h-72z" />
    <glyph glyph-name="Psi" unicode="&#x3a8;" 
d="M552 478h-27v-83q0 -59 -54 -115q-51 -52 -124 -66v-130h38v-84h-166v84h39v128q-90 16 -148 92q-37 48 -37 91v83h-29v84h141v-84h-28v-43q0 -53 38 -95q26 -29 63 -39v177h-38v84h166v-84h-39v-173q63 23 86 88q8 22 8 42v43h-26v84h137v-84z" />
    <glyph glyph-name="uni03A9" unicode="&#x3a9;" 
d="M436 84h82l29 79l48 -19l-54 -144h-195v102q0 46 52 107q46 55 55 72q13 24 13 46q0 82 -64 127q-43 30 -102 30q-105 0 -147 -76q-19 -35 -19 -81q0 -36 48 -92q49 -58 60 -84q12 -25 12 -49v-102h-195l-59 142l53 21l29 -79h82v18q0 27 -41 78q-53 66 -67 105
q-12 32 -12 65q0 109 93 173q70 49 163 49q116 0 191 -71q65 -62 65 -151q0 -68 -59 -142q-43 -55 -50 -67q-11 -20 -11 -39v-18z" />
    <glyph glyph-name="Iotadieresis" unicode="&#x3aa;" 
d="M183 640q0 27 25 36q6 2 13 2q27 0 36 -25q2 -6 2 -13q0 -27 -25 -36q-6 -2 -13 -2q-27 0 -36 25q-2 6 -2 13zM340 640q0 27 25 36q6 2 13 2q27 0 36 -25q2 -6 2 -13q0 -27 -25 -36q-6 -2 -13 -2q-27 0 -36 25q-2 6 -2 13zM258 478h-168v84h421v-84h-164v-394h163v-84
h-421v84h169v394z" />
    <glyph glyph-name="Upsilondieresis" unicode="&#x3ab;" 
d="M183 640q0 27 25 36q6 2 13 2q27 0 36 -25q2 -6 2 -13q0 -27 -25 -36q-6 -2 -13 -2q-27 0 -36 25q-2 6 -2 13zM340 640q0 27 25 36q6 2 13 2q27 0 36 -25q2 -6 2 -13q0 -27 -25 -36q-6 -2 -13 -2q-27 0 -36 25q-2 6 -2 13zM343 84h58v-84h-205v84h57v139l-186 255h-35v84
h204v-84h-60l124 -166l123 166h-60v84h204v-84h-35l-189 -255v-139z" />
    <glyph glyph-name="alphatonos" unicode="&#x3ac;" 
d="M274 597h52l-14 -122h-24zM393 205q-61 140 -163 140q-63 0 -103 -54q-27 -37 -27 -82q0 -64 53 -104q34 -25 74 -25q103 0 166 125zM429 426h161v-65h-49q-27 -99 -51 -158q22 -66 36 -133h64v-70h-164v70h9l-6 23q-78 -103 -201 -103q-94 0 -160 72q-58 63 -58 147
q0 98 72 166q63 60 147 60q128 0 207 -119l12 45h-19v65z" />
    <glyph glyph-name="epsilontonos" unicode="&#x3ad;" 
d="M262 588h52l-14 -122h-24zM114 133q0 71 60 97q6 3 13 5q-57 17 -66 71q-2 9 -2 19q0 61 83 88q38 13 77 13q62 0 89 -19q1 -1 3 -2q9 -13 12 1q2 16 4 20h71q-14 -38 -14 -71q0 -21 19 -69h-75q-14 48 -56 58q-20 5 -53 5q-63 0 -72 -29q-1 -3 -1 -6q0 -29 64 -36
q15 -2 31 -2h39v-74h-34q-81 0 -100 -40q-5 -10 -5 -22q0 -38 58 -52q16 -4 29 -4q51 0 77 25q6 6 14 16l67 -47q-55 -69 -136 -80q-11 -1 -22 -1q-72 0 -125 39q-49 37 -49 97z" />
    <glyph glyph-name="etatonos" unicode="&#x3ae;" 
d="M273 602h52l-14 -122h-24zM172 388h-1q88 52 150 52q67 0 134 -50q62 -47 62 -94v-404h59v-84h-208v84h60v354q0 43 -36 78q-30 29 -71 29q-58 0 -142 -54q-4 -3 -8 -5v-210h59v-84h-208v84h60v258h-60v84h150v-38z" />
    <glyph glyph-name="iotatonos" unicode="&#x3af;" 
d="M296 588h52l-14 -122h-24zM352 -21q0 -38 32 -74q22 -24 44 -24q33 0 52 28q-13 3 -23 22q-2 4 -2 7q0 55 33 68q26 9 44 -16q11 -16 10 -40q-2 -67 -47 -111q-32 -32 -74 -32q-78 0 -124 51q-35 39 -35 99v385h-159v84h249v-447z" />
    <glyph glyph-name="upsilondieresistonos" unicode="&#x3b0;" 
d="M283 732h52l-14 -122h-24zM192 532q0 27 25 36q6 2 13 2q27 0 36 -25q2 -6 2 -13q0 -27 -25 -36q-6 -2 -13 -2q-27 0 -36 25q-2 6 -2 13zM349 532q0 27 25 36q6 2 13 2q27 0 36 -25q2 -6 2 -13q0 -27 -25 -36q-6 -2 -13 -2q-27 0 -36 25q-2 6 -2 13zM298 -14
q-137 0 -196 101q-37 62 -35 158q0 31 14 97h-59v84h158l-18 -112q-5 -39 -5 -63q0 -90 56 -143q37 -35 85 -35q85 0 122 85q18 43 18 97q0 32 -11 87h-67v84h156l10 -142q1 -15 1 -27q0 -117 -69 -197q-65 -74 -160 -74z" />
    <glyph glyph-name="alpha" unicode="&#x3b1;" 
d="M393 205q-61 140 -163 140q-63 0 -103 -54q-27 -37 -27 -82q0 -64 53 -104q34 -25 74 -25q103 0 166 125zM429 426h161v-65h-49q-27 -99 -51 -158q22 -66 36 -133h64v-70h-164v70h9l-6 23q-78 -103 -201 -103q-94 0 -160 72q-58 63 -58 147q0 98 72 166q63 60 147 60
q128 0 207 -119l12 45h-19v65z" />
    <glyph glyph-name="beta" unicode="&#x3b2;" 
d="M425 321q88 -62 90 -160q0 -89 -70 -143q-51 -39 -117 -39q-67 0 -132 51v-116h60v-90h-200v90h50v572q0 70 57 125q53 50 120 50q75 0 137 -53q65 -55 65 -135q0 -85 -60 -152zM196 159q70 -90 132 -90q59 0 85 47q12 21 12 45q0 51 -52 87q-32 22 -63 22h-46v90h51
q41 0 64 44q16 29 16 69q0 45 -45 77q-31 21 -67 21q-42 0 -71 -41q-16 -22 -16 -44v-327z" />
    <glyph glyph-name="gamma" unicode="&#x3b3;" 
d="M341 32q-44 -69 -44 -109q0 -35 19 -45q3 -1 6 -1q17 0 32 23q9 13 9 26q0 35 -22 106zM-18 322q62 132 166 132q99 0 198 -189q12 -22 23 -46q41 50 61 77q57 76 90 139l80 -42q-44 -82 -156 -223l-37 -47q46 -130 46 -197q0 -58 -47 -103q-37 -36 -84 -36q-64 0 -98 70
q-17 34 -17 66q0 81 97 213q-73 181 -133 220q-12 8 -23 8q-46 0 -84 -80z" />
    <glyph glyph-name="delta" unicode="&#x3b4;" 
d="M300 344q-64 0 -109 -52q-31 -37 -31 -79q0 -59 54 -101q40 -30 86 -30q65 0 109 53q30 36 30 78q0 60 -54 101q-39 30 -85 30zM400 551q-24 11 -38 11q-19 0 -20 -24q-3 -56 37 -98q5 -5 69 -60q81 -73 81 -167t-75 -161q-66 -60 -154 -60q-98 0 -168 72q-62 65 -62 149
q0 94 76 161q56 51 130 59q-27 46 -27 108q0 54 45 88q30 23 68 23q34 0 74 -19z" />
    <glyph glyph-name="epsilon" unicode="&#x3b5;" 
d="M114 133q0 71 60 97q6 3 13 5q-57 17 -66 71q-2 9 -2 19q0 61 83 88q38 13 77 13q62 0 89 -19q1 -1 3 -2q9 -13 12 1q2 16 4 20h71q-14 -38 -14 -71q0 -21 19 -69h-75q-14 48 -56 58q-20 5 -53 5q-63 0 -72 -29q-1 -3 -1 -6q0 -29 64 -36q15 -2 31 -2h39v-74h-34
q-81 0 -100 -40q-5 -10 -5 -22q0 -38 58 -52q16 -4 29 -4q51 0 77 25q6 6 14 16l67 -47q-55 -69 -136 -80q-11 -1 -22 -1q-72 0 -125 39q-49 37 -49 97z" />
    <glyph glyph-name="zeta" unicode="&#x3b6;" 
d="M318 543q48 13 67 44q7 10 7 20q-4 8 -22 7q-13 0 -52 -71zM252 634q-33 -37 -22 -66q80 136 140 136q77 0 103 -54q9 -19 9 -43q0 -81 -89 -130q-52 -28 -100 -28q-15 0 -22 1q-83 -180 -83 -248q0 -86 40 -110q28 -17 87 -17q164 0 164 -135q0 -71 -79 -111
q-42 -21 -81 -21q-57 0 -122 55q-11 9 -19 17l64 62q30 -30 67 -42q6 -2 10 -2q41 0 64 30q6 7 6 12q0 30 -20 38q-16 7 -54 7q-190 0 -213 164q-4 24 -4 53q0 84 68 239l20 44q-56 46 -50 113q3 40 31 75q5 7 17 21z" />
    <glyph glyph-name="eta" unicode="&#x3b7;" 
d="M172 388h-1q88 52 150 52q67 0 134 -50q62 -47 62 -94v-404h59v-84h-208v84h60v354q0 43 -36 78q-30 29 -71 29q-58 0 -142 -54q-4 -3 -8 -5v-210h59v-84h-208v84h60v258h-60v84h150v-38z" />
    <glyph glyph-name="theta" unicode="&#x3b8;" 
d="M300 634q82 0 135 -102q48 -92 48 -215q0 -144 -62 -240q-51 -78 -121 -78q-82 0 -135 102q-48 92 -48 215q0 144 62 240q51 78 121 78zM205 274q5 -160 73 -183q10 -4 22 -4q89 0 95 187h-190zM300 546q-73 0 -91 -137q-3 -24 -4 -50h190q-6 187 -95 187z" />
    <glyph glyph-name="iota" unicode="&#x3b9;" 
d="M352 -21q0 -38 32 -74q22 -24 44 -24q33 0 52 28q-13 3 -23 22q-2 4 -2 7q0 55 33 68q26 9 44 -16q11 -16 10 -40q-2 -67 -47 -111q-32 -32 -74 -32q-78 0 -124 51q-35 39 -35 99v385h-159v84h249v-447z" />
    <glyph glyph-name="kappa" unicode="&#x3ba;" 
d="M293 426h260v-84h-111l-105 -85q-21 -16 -31 -22q95 -27 164 -103q19 -23 34 -47h90v-85h-143q-80 131 -227 174q-5 -4 -48 -33v-57h91v-84h-262v84h82v258h-82v84h247v-84h-76v-110q68 35 141 106l4 4h-28v84z" />
    <glyph glyph-name="lambda" unicode="&#x3bb;" 
d="M343 561v-84h-30l197 -393h76v-84h-222v84h46l-121 248l-126 -248h53v-84h-216v84h67l174 345l-24 48h-213v84h339z" />
    <glyph glyph-name="uni03BC" unicode="&#x3bc;" 
d="M427 38q-88 -52 -150 -52q-55 0 -106 28v-206h-90v534h-59v84h149v-254q6 -48 45 -79q27 -20 61 -20q58 0 142 54q4 3 8 5v210h-59v84h148v-342h60v-84h-149v38z" />
    <glyph glyph-name="nu" unicode="&#x3bd;" 
d="M590 342h-74l-173 -355h-83l-175 355h-75v84h218v-84h-49l121 -253l122 253h-49v84h217v-84z" />
    <glyph glyph-name="xi" unicode="&#x3be;" 
d="M247 -64q39 -44 64 -49q8 -2 16 -2q36 0 51 32q5 10 5 21q0 23 -49 48l-89 44q-110 71 -114 172q0 84 57 145q11 12 24 22q-40 50 -40 113q0 71 52 122q43 41 100 41q64 0 116 -38l-54 -72q-27 20 -62 20q-31 0 -51 -34q-11 -18 -11 -39q0 -50 38 -71q14 -8 28 -8h59v-90
h-73q-46 0 -74 -46q-19 -29 -19 -65q0 -55 68 -94l108 -54q76 -46 76 -116q0 -73 -60 -116q-39 -27 -86 -27q-75 0 -139 73q-4 4 -9 10z" />
    <glyph glyph-name="omicron" unicode="&#x3bf;" 
d="M300 434q98 0 168 -73q61 -64 61 -148q0 -94 -75 -161q-66 -60 -154 -60q-98 0 -168 72q-62 65 -62 149q0 94 76 161q67 60 154 60zM300 344q-64 0 -109 -52q-31 -37 -31 -79q0 -59 54 -101q40 -30 86 -30q65 0 109 53q30 36 30 78q0 60 -54 101q-39 30 -85 30z" />
    <glyph glyph-name="pi" unicode="&#x3c0;" 
d="M40 84h71v257h-72v85h522v-85h-72v-257h72v-84h-224v84h64v257h-202v-257h65v-84h-224v84z" />
    <glyph glyph-name="rho" unicode="&#x3c1;" 
d="M109 -102v444h-73v84h164v-46q52 42 102 51q18 3 38 3q98 0 168 -73q61 -64 61 -148q0 -94 -74 -161q-67 -60 -155 -60q-82 0 -140 55v-149h78v-90h-245v90h76zM340 82q65 0 109 53q30 36 30 78q0 60 -54 101q-39 30 -85 30q-64 0 -109 -52q-31 -37 -31 -79
q0 -59 54 -101q40 -30 86 -30z" />
    <glyph glyph-name="sigma1" unicode="&#x3c2;" 
d="M192 -7h-1q11 23 13 49q0 40 -24 62l66 -1q20 -36 60 -39q8 -1 27 -1q56 0 56 37q0 34 -56 57l-106 38q-88 44 -91 118q0 64 78 97q46 20 101 20q78 0 116 -26q8 -5 11 6q1 3 13 27h62l-14 -33q-9 -20 -9 -39t19 -50q2 -4 4 -6h-62q-21 43 -118 43q-102 0 -112 -33
q-1 -3 -1 -6q0 -29 54 -50l100 -35q93 -39 99 -117v-11q0 -78 -85 -100q-27 -7 -59 -7q-39 0 -52 7q-7 3 -16 10q-10 7 -12 -1q-1 -8 -4 -12q-2 -2 -4 -5z" />
    <glyph glyph-name="sigma" unicode="&#x3c3;" 
d="M300 344q-64 0 -109 -52q-31 -37 -31 -79q0 -59 54 -101q40 -30 86 -30q65 0 109 53q30 36 30 78q0 60 -54 101q-39 30 -85 30zM300 435h291l-49 -90h-60q47 -60 47 -132q0 -94 -75 -161q-66 -60 -154 -60q-98 0 -168 72q-62 65 -62 149q0 91 66 157q65 65 164 65z" />
    <glyph glyph-name="tau" unicode="&#x3c4;" 
d="M46 426h393l-38 -84h-206v-151q0 -58 51 -96q36 -27 82 -27q71 0 155 93l11 13l37 -65q-75 -83 -155 -115q-33 -13 -60 -13q-113 0 -174 67q-37 41 -37 93v201h-98z" />
    <glyph glyph-name="upsilon" unicode="&#x3c5;" 
d="M298 -14q-137 0 -196 101q-37 62 -35 158q0 31 14 97h-59v84h158l-18 -112q-5 -39 -5 -63q0 -90 56 -143q37 -35 85 -35q85 0 122 85q18 43 18 97q0 32 -11 87h-67v84h156l10 -142q1 -15 1 -27q0 -117 -69 -197q-65 -74 -160 -74z" />
    <glyph glyph-name="phi" unicode="&#x3c6;" 
d="M345 289v-158q18 -40 46 -47q9 -2 18 -2q43 0 60 78q6 27 6 56q0 78 -32 117q-16 19 -37 19q-48 0 -59 -46q-2 -8 -2 -17zM255 131v157q0 45 -35 59q-12 5 -26 5q-35 0 -56 -62q-13 -37 -13 -74q0 -60 30 -107q17 -27 36 -27q39 0 60 42zM255 -73v103q-15 -27 -38 -32
q-10 -3 -26 -3q-84 0 -129 103q-25 58 -25 118q0 84 43 152q44 72 114 72q53 0 95 -39q6 -6 11 -12q33 41 88 50q9 1 18 1q86 0 131 -103q26 -59 26 -121q0 -82 -41 -150q-44 -71 -113 -71q-39 0 -56 24l-8 11v-103h68v-84h-230v84h72z" />
    <glyph glyph-name="chi" unicode="&#x3c7;" 
d="M254 0h-241v84h85l146 128l-148 130h-83v84h242v-84h-49l94 -82l92 82h-49v84h244v-84h-86l-147 -130l145 -128h88v-84h-244v84h47l-91 79l-91 -79h46v-84z" />
    <glyph glyph-name="psi" unicode="&#x3c8;" 
d="M186 -57h69v167q-35 -19 -67 -19q-111 0 -155 109q-20 50 -20 113q0 44 32 92q10 14 19 21h99v-71h-40q-23 -28 -25 -58q0 -81 51 -109q17 -10 38 -10q32 0 68 25v152h-57v71h201v-71h-54v-152q36 -25 67 -25q69 0 86 75q4 20 4 44q0 35 -25 58h-48v71h108q23 -19 40 -71
q8 -24 8 -42q0 -112 -61 -175q-44 -47 -111 -47q-33 0 -68 19v-167h66v-84h-225v84z" />
    <glyph glyph-name="omega" unicode="&#x3c9;" 
d="M346 426l-1 -310q0 -22 40 -30q7 -1 12 -1q58 0 92 79q22 52 22 117q0 50 -25 70h-57v75h117q48 -56 48 -136q0 -140 -61 -222q-51 -70 -136 -70q-58 0 -93 27q-2 1 -4 3q-32 -28 -97 -30q-121 0 -171 137q-26 70 -26 155q0 83 48 136h142v-75h-81q-26 -22 -26 -70
q0 -101 46 -159q29 -37 68 -37q28 0 45 16q7 7 7 15v310h91z" />
    <glyph glyph-name="iotadieresis" unicode="&#x3ca;" 
d="M206 504q0 27 25 36q6 2 13 2q27 0 36 -25q2 -6 2 -13q0 -27 -25 -36q-6 -2 -13 -2q-27 0 -36 25q-2 6 -2 13zM363 504q0 27 25 36q6 2 13 2q27 0 36 -25q2 -6 2 -13q0 -27 -25 -36q-6 -2 -13 -2q-27 0 -36 25q-2 6 -2 13zM352 -21q0 -38 32 -74q22 -24 44 -24
q33 0 52 28q-13 3 -23 22q-2 4 -2 7q0 55 33 68q26 9 44 -16q11 -16 10 -40q-2 -67 -47 -111q-32 -32 -74 -32q-78 0 -124 51q-35 39 -35 99v385h-159v84h249v-447z" />
    <glyph glyph-name="upsilondieresis" unicode="&#x3cb;" 
d="M158 504q0 27 25 36q6 2 13 2q27 0 36 -25q2 -6 2 -13q0 -27 -25 -36q-6 -2 -13 -2q-27 0 -36 25q-2 6 -2 13zM315 504q0 27 25 36q6 2 13 2q27 0 36 -25q2 -6 2 -13q0 -27 -25 -36q-6 -2 -13 -2q-27 0 -36 25q-2 6 -2 13zM298 -14q-137 0 -196 101q-37 62 -35 158
q0 31 14 97h-59v84h158l-18 -112q-5 -39 -5 -63q0 -90 56 -143q37 -35 85 -35q85 0 122 85q18 43 18 97q0 32 -11 87h-67v84h156l10 -142q1 -15 1 -27q0 -117 -69 -197q-65 -74 -160 -74z" />
    <glyph glyph-name="omicrontonos" unicode="&#x3cc;" 
d="M273 596h52l-14 -122h-24zM300 434q98 0 168 -73q61 -64 61 -148q0 -94 -75 -161q-66 -60 -154 -60q-98 0 -168 72q-62 65 -62 149q0 94 76 161q67 60 154 60zM300 344q-64 0 -109 -52q-31 -37 -31 -79q0 -59 54 -101q40 -30 86 -30q65 0 109 53q30 36 30 78
q0 60 -54 101q-39 30 -85 30z" />
    <glyph glyph-name="upsilontonos" unicode="&#x3cd;" 
d="M248 588h52l-14 -122h-24zM298 -14q-137 0 -196 101q-37 62 -35 158q0 31 14 97h-59v84h158l-18 -112q-5 -39 -5 -63q0 -90 56 -143q37 -35 85 -35q85 0 122 85q18 43 18 97q0 32 -11 87h-67v84h156l10 -142q1 -15 1 -27q0 -117 -69 -197q-65 -74 -160 -74z" />
    <glyph glyph-name="omegatonos" unicode="&#x3ce;" 
d="M274 588h52l-14 -122h-24zM346 426l-1 -310q0 -22 40 -30q7 -1 12 -1q58 0 92 79q22 52 22 117q0 50 -25 70h-57v75h117q48 -56 48 -136q0 -140 -61 -222q-51 -70 -136 -70q-58 0 -93 27q-2 1 -4 3q-32 -28 -97 -30q-121 0 -171 137q-26 70 -26 155q0 83 48 136h142v-75
h-81q-26 -22 -26 -70q0 -101 46 -159q29 -37 68 -37q28 0 45 16q7 7 7 15v310h91z" />
    <glyph glyph-name="Upsilon1" unicode="&#x3d2;" 
d="M434 423q-8 33 -46 48q-17 6 -34 6q-59 0 -59 -88v-305h59v-84h-212v84h63v305q0 88 -59 88q-47 0 -72 -36q-6 -9 -8 -18l-36 58q11 50 66 73q24 10 50 10q62 0 98 -50q3 -4 6 -9q31 52 91 58q7 1 13 1q61 0 97 -44q14 -18 19 -39z" />
    <glyph glyph-name="uni03D3" unicode="&#x3d3;" 
d="M-62 564h52l-14 -122h-24zM434 423q-8 33 -46 48q-17 6 -34 6q-59 0 -59 -88v-305h59v-84h-212v84h63v305q0 88 -59 88q-47 0 -72 -36q-6 -9 -8 -18l-36 58q11 50 66 73q24 10 50 10q62 0 98 -50q3 -4 6 -9q31 52 91 58q7 1 13 1q61 0 97 -44q14 -18 19 -39z" />
    <glyph glyph-name="uni03D4" unicode="&#x3d4;" 
d="M133 642q0 27 25 36q6 2 13 2q27 0 36 -25q2 -6 2 -13q0 -27 -25 -36q-6 -2 -13 -2q-27 0 -36 25q-2 6 -2 13zM290 642q0 27 25 36q6 2 13 2q27 0 36 -25q2 -6 2 -13q0 -27 -25 -36q-6 -2 -13 -2q-27 0 -36 25q-2 6 -2 13zM434 423q-8 33 -46 48q-17 6 -34 6
q-59 0 -59 -88v-305h59v-84h-212v84h63v305q0 88 -59 88q-47 0 -72 -36q-6 -9 -8 -18l-36 58q11 50 66 73q24 10 50 10q62 0 98 -50q3 -4 6 -9q31 52 91 58q7 1 13 1q61 0 97 -44q14 -18 19 -39z" />
    <glyph glyph-name="uni03DC" unicode="&#x3dc;" 
d="M233 478v-113h181v-146h-73v62h-108v-197h169v-84h-357v84h97v394h-97v84h512l12 -190h-52l-11 106h-273z" />
    <glyph glyph-name="uni03E4" unicode="&#x3e4;" 
d="M427 160q-88 -52 -150 -52q-67 0 -134 50q-62 47 -62 94v90h-59v84h208v-84h-60v-40q0 -43 36 -78q30 -29 71 -29q58 0 142 54q4 3 8 5v88h-59v84h208v-84h-60v-255h60v-87h-149v160z" />
    <glyph glyph-name="uni03E5" unicode="&#x3e5;" 
d="M427 245q-88 -52 -150 -52q-67 0 -134 50q-62 47 -62 94v140h-59v84h208v-84h-60v-90q0 -43 36 -78q30 -29 71 -29q58 0 142 54q4 3 8 5v138h-59v84h208v-84h-60v-390h60v-87h-149v245z" />
    <glyph glyph-name="uni03F3" unicode="&#x3f3;" 
d="M76 -84q33 -23 98 -26h11q31 0 59 35q19 22 19 44v373h-104v84h194v-457q0 -81 -61 -130q-45 -36 -107 -36q-81 0 -125 30zM342 562v-97h-74v97h74z" />
    <glyph glyph-name="uni0400" unicode="&#x400;" 
d="M205 777h93l122 -175h-47zM448 391v-176h-71v57h-144v-188h247l12 76h60l-12 -160h-466v84h70v394h-70v84h464l9 -151h-58l-9 67h-247v-122h144v35h71z" />
    <glyph glyph-name="afii10023" unicode="&#x401;" 
d="M196 640q0 27 25 36q6 2 13 2q27 0 36 -25q2 -6 2 -13q0 -27 -25 -36q-6 -2 -13 -2q-27 0 -36 25q-2 6 -2 13zM353 640q0 27 25 36q6 2 13 2q27 0 36 -25q2 -6 2 -13q0 -27 -25 -36q-6 -2 -13 -2q-27 0 -36 25q-2 6 -2 13zM448 391v-176h-71v57h-144v-188h247l12 76h60
l-12 -160h-466v84h70v394h-70v84h464l9 -151h-58l-9 67h-247v-122h144v35h71z" />
    <glyph glyph-name="afii10051" unicode="&#x402;" 
d="M494 562v-90h-218v-70q106 0 174 -69q55 -56 55 -134q0 -98 -84 -156q-62 -43 -145 -43h-164v84h73v388h-90v90h399zM275 312v-222q79 0 118 48q22 27 22 61q0 62 -63 95q-35 18 -77 18z" />
    <glyph glyph-name="afii10052" unicode="&#x403;" 
d="M397 777l-169 -175h-46l122 175h93zM133 84v394h-85v84h457l20 -223h-87l-17 139h-198v-394h87v-84h-261v84h84z" />
    <glyph glyph-name="afii10053" unicode="&#x404;" 
d="M325 564q63 0 94 -24q4 -2 8 -6q10 -9 12 0q3 22 12 41l62 -16q-19 -52 -19 -67q0 -22 19 -69l-73 -17q-21 41 -69 63q-23 10 -46 10q-64 0 -107 -61q-26 -37 -35 -87h127v35h71v-176h-71v57h-129q12 -90 70 -138q34 -28 74 -28q52 0 100 54q3 3 6 7l65 -63
q-45 -56 -125 -75q-24 -6 -46 -6q-104 0 -174 89q-64 82 -64 194q0 124 76 208q68 75 162 75z" />
    <glyph glyph-name="afii10054" unicode="&#x405;" 
d="M483 577q-9 -23 -13 -88q0 -47 24 -76l-79 2q-9 47 -65 67q-22 8 -46 8q-62 0 -84 -34q-7 -11 -7 -24q0 -47 58 -74l106 -42q86 -42 97 -128q2 -14 2 -29q0 -78 -68 -132q-51 -40 -110 -40q-58 0 -114 47q-8 8 -11 -7q-5 -20 -15 -44l-62 -1l15 42q9 27 9 62q0 28 -18 81
q-4 10 -6 14h62l13 -29q29 -52 87 -72q21 -7 40 -7q75 0 89 63q2 11 2 23q0 61 -62 90l-113 42q-78 36 -87 115q-2 12 -2 26q0 79 80 120q46 24 99 24q51 0 101 -35q10 -7 12 0q2 22 9 36h57z" />
    <glyph glyph-name="afii10055" unicode="&#x406;" 
d="M258 478h-168v84h421v-84h-164v-394h163v-84h-421v84h169v394z" />
    <glyph glyph-name="afii10056" unicode="&#x407;" 
d="M183 640q0 27 25 36q6 2 13 2q27 0 36 -25q2 -6 2 -13q0 -27 -25 -36q-6 -2 -13 -2q-27 0 -36 25q-2 6 -2 13zM340 640q0 27 25 36q6 2 13 2q27 0 36 -25q2 -6 2 -13q0 -27 -25 -36q-6 -2 -13 -2q-27 0 -36 25q-2 6 -2 13zM258 478h-168v84h421v-84h-164v-394h163v-84
h-421v84h169v394z" />
    <glyph glyph-name="afii10057" unicode="&#x408;" 
d="M146 278q0 -87 6 -114q17 -77 92 -77t94 64q5 16 5 32v295h-174v84h361v-84h-97v-335q0 -54 -50 -98q-54 -46 -138 -46q-87 0 -145 67q-41 48 -41 102v110h87z" />
    <glyph glyph-name="afii10058" unicode="&#x409;" 
d="M446 562v-90h-61l-1 -70q115 0 169 -85q32 -50 32 -118q0 -113 -83 -167q-49 -32 -118 -32h-130v84h40v388h-107l-16 -456q-3 -84 -49 -125q-28 -26 -70 -26q-72 0 -116 57q-7 9 -15 21l76 48q19 -30 36 -34q7 -2 19 -2q13 0 21 23q7 17 8 42l16 452h-76v90h425zM384 312
v-222q93 0 108 80q3 13 3 29q0 84 -68 107q-19 6 -43 6z" />
    <glyph glyph-name="afii10059" unicode="&#x40a;" 
d="M415 562v-84h-42l-1 -93q117 0 176 -76q38 -49 38 -118q0 -107 -88 -159q-53 -32 -126 -32h-121v84h40v214h-142v-214h40v-84h-168v84h38v394h-38v84h168v-84h-40v-92h142v92h-40v84h164zM372 295v-205q96 0 118 65q6 17 6 36q0 75 -72 97q-24 7 -52 7z" />
    <glyph glyph-name="afii10060" unicode="&#x40b;" 
d="M345 356q32 35 79 40q5 1 10 1q58 0 102 -56q34 -43 34 -88v-169h30v-84h-151v84h31v119q0 86 -39 103q-8 4 -18 4q-39 0 -78 -59v-167h36v-84h-161v84h35v394h-140l-10 -73h-71l10 157h512l10 -157h-71l-10 73h-140v-122z" />
    <glyph glyph-name="afii10061" unicode="&#x40c;" 
d="M407 777l-169 -175h-46l122 175h93zM293 562h260v-84h-111l-161 -171q112 -31 207 -193l16 -29h90v-85h-143q-79 144 -137 193q-41 35 -95 48l-43 -46v-111h91v-84h-262v84h82v394h-82v84h247v-84h-76v-155l145 155h-28v84z" />
    <glyph glyph-name="uni040D" unicode="&#x40d;" 
d="M186 777h93l122 -175h-47zM178 250l231 191v37h-53v84h197v-84h-54v-394h54v-84h-197v84h53v244l-231 -200v-44h52v-84h-197v84h55v394h-55v84h197v-84h-52v-228z" />
    <glyph glyph-name="afii10062" unicode="&#x40e;" 
d="M406 697q-8 -63 -59 -87q-21 -9 -44 -9q-60 0 -89 51q-12 20 -15 45h24q13 -44 80 -44q59 0 79 44h24zM353 -1h-339v84h213l24 49l-174 345h-67v84h216v-84h-53l126 -248l121 248h-46v84h222v-84h-76l-197 -394h30v-84z" />
    <glyph glyph-name="afii10145" unicode="&#x40f;" 
d="M572 478h-67v-394h67v-84h-227v-136h-90v136h-226v84h67v394h-67v84h223v-84h-67v-394h231v394h-67v84h223v-84z" />
    <glyph glyph-name="afii10017" unicode="&#x410;" 
d="M255 295h93l-49 134zM361 84h53l-50 149h-125l-50 -149h53v-84h-213v84h68l126 394h-101v84h233l150 -478h66v-84h-210v84z" />
    <glyph glyph-name="afii10018" unicode="&#x411;" 
d="M343 337q-66 0 -110 -51q-30 -35 -30 -77q0 -60 55 -99q39 -28 85 -28q66 0 110 52q29 35 29 76q0 60 -56 100q-38 27 -83 27zM465 478h-263v-103q57 52 141 52q101 0 170 -73q59 -62 59 -144q0 -94 -76 -160q-66 -58 -153 -58q-74 0 -137 51l-3 3v-46h-164v84h73v394
h-77v84h493l11 -145h-66z" />
    <glyph glyph-name="afii10019" unicode="&#x412;" 
d="M233 386h150q69 0 69 48q0 37 -46 43q-9 1 -22 1h-151v-92zM233 84h137q51 0 74 47q14 26 14 65q0 69 -53 96q-17 9 -34 9h-138v-217zM470 340q74 -49 74 -156t-62 -158q-32 -26 -72 -26h-329v84h62v394h-62v84h328q64 0 104 -46q26 -31 26 -72q0 -78 -69 -104z" />
    <glyph glyph-name="afii10020" unicode="&#x413;" 
d="M133 84v394h-85v84h457l20 -223h-87l-17 139h-198v-394h87v-84h-261v84h84z" />
    <glyph glyph-name="afii10021" unicode="&#x414;" 
d="M79 84q37 11 51 60q6 19 6 41v294h-58v84h455v-84h-61v-395h109v-243h-84v159h-389v-156h-84v240h55zM226 479v-294q0 -51 -29 -101h185v395h-156z" />
    <glyph glyph-name="afii10022" unicode="&#x415;" 
d="M448 391v-176h-71v57h-144v-188h247l12 76h60l-12 -160h-466v84h70v394h-70v84h464l9 -151h-58l-9 67h-247v-122h144v35h71z" />
    <glyph glyph-name="afii10024" unicode="&#x416;" 
d="M423 562h165v-84h-51l-122 -171q51 -14 76 -73l36 -96q14 -31 34 -53h27v-85h-80q-16 31 -57 138q-29 76 -64 101q-7 5 -14 9l-28 -34v-130h37v-84h-163v84h37v130l-28 34q-42 -22 -72 -93l-48 -123q-7 -16 -15 -32h-80v85h27q29 33 56 110q22 66 47 89q17 16 43 23
l-122 171h-51v84h165v-84h-28l106 -155v155h-31v84h151v-84h-31v-155l106 155h-28v84z" />
    <glyph glyph-name="afii10025" unicode="&#x417;" 
d="M141 66l66 62q42 -44 79 -49q8 -1 16 -1q42 0 67 44q14 26 14 58q0 51 -36 74q-12 8 -24 8h-47h-15v90h15h47q22 0 40 28q12 18 12 39q0 30 -32 50q-17 10 -34 10q-54 0 -90 -44q-11 -13 -16 -27l-3 1l-78 26l15 36q4 17 -17 65l62 25l15 -32q1 -1 1 -3q54 36 117 36
q72 0 117 -54q33 -38 33 -89q0 -61 -43 -110q50 -51 51 -129q0 -84 -55 -142q-48 -50 -116 -50q-83 0 -152 68q-4 5 -9 10z" />
    <glyph glyph-name="afii10026" unicode="&#x418;" 
d="M178 250l231 191v37h-53v84h197v-84h-54v-394h54v-84h-197v84h53v244l-231 -200v-44h52v-84h-197v84h55v394h-55v84h197v-84h-52v-228z" />
    <glyph glyph-name="afii10027" unicode="&#x419;" 
d="M396 698q-8 -63 -59 -87q-21 -9 -44 -9q-60 0 -89 51q-12 20 -15 45h24q13 -44 80 -44q59 0 79 44h24zM178 250l231 191v37h-53v84h197v-84h-54v-394h54v-84h-197v84h53v244l-231 -200v-44h52v-84h-197v84h55v394h-55v84h197v-84h-52v-228z" />
    <glyph glyph-name="afii10028" unicode="&#x41a;" 
d="M293 562h260v-84h-111l-161 -171q112 -31 207 -193l16 -29h90v-85h-143q-79 144 -137 193q-41 35 -95 48l-43 -46v-111h91v-84h-262v84h82v394h-82v84h247v-84h-76v-155l145 155h-28v84z" />
    <glyph glyph-name="afii10029" unicode="&#x41b;" 
d="M30 478l-1 84h543v-84h-67v-394h67v-84h-223v84h67v394h-229l-16 -462q-3 -84 -49 -125q-28 -26 -70 -26q-72 0 -116 57q-7 9 -15 21l76 48q20 -30 37 -34q7 -2 18 -2q13 0 21 23q7 17 8 42q5 157 16 458h-67z" />
    <glyph glyph-name="afii10030" unicode="&#x41c;" 
d="M546 478v-394h42v-84h-210v84h78v302h-4l-140 -265h-21l-140 260h-7v-297h77v-84h-213v84h46v394h-46v84h148v-11l144 -251l149 254v8h143v-84h-46z" />
    <glyph glyph-name="afii10031" unicode="&#x41d;" 
d="M190 386h220v92h-71v84h230v-84h-69v-394h68v-84h-230v84h72v214h-220v-214h71v-84h-230v84h69v394h-69v84h230v-84h-71v-92z" />
    <glyph glyph-name="afii10032" unicode="&#x41e;" 
d="M300 571q101 0 172 -91q66 -85 66 -199q0 -122 -74 -209q-69 -81 -164 -81q-101 0 -172 91q-66 85 -66 199q0 122 74 209q69 81 164 81zM300 480q-66 0 -110 -68q-37 -56 -37 -131q0 -100 60 -160q39 -39 87 -39q66 0 110 68q37 56 37 131q0 100 -60 160q-39 39 -87 39z
" />
    <glyph glyph-name="afii10033" unicode="&#x41f;" 
d="M30 84h66v394h-67v84h543v-84h-67v-394h67v-84h-223v84h67v394h-231v-394h67v-84h-222v84z" />
    <glyph glyph-name="afii10034" unicode="&#x420;" 
d="M212 270h152q53 0 85 37q24 27 24 67q0 87 -81 102q-14 2 -28 2h-152v-208zM53 84h69v394h-69v84h333q87 0 135 -61q36 -46 36 -115q0 -98 -69 -159q-47 -41 -102 -41h-174v-102h110v-84h-269v84z" />
    <glyph glyph-name="afii10035" unicode="&#x421;" 
d="M325 564q63 0 94 -24q4 -2 8 -6q10 -7 11 -5t1 5q3 22 12 41l62 -16q-19 -52 -19 -67q0 -22 19 -69l-73 -17q-21 41 -69 63q-23 10 -46 10q-63 0 -107 -61q-39 -55 -39 -137q0 -92 54 -154q40 -46 92 -46t100 54q3 3 6 7l65 -63q-45 -56 -125 -75q-24 -6 -46 -6
q-104 0 -174 89q-64 82 -64 194q0 124 76 208q68 75 162 75z" />
    <glyph glyph-name="afii10036" unicode="&#x422;" 
d="M495 343l-10 135h-140v-394h122v-84h-333v84h121v394h-140l-10 -135h-71l10 219h512l10 -219h-71z" />
    <glyph glyph-name="afii10037" unicode="&#x423;" 
d="M353 -1h-339v84h213l24 49l-174 345h-67v84h216v-84h-53l126 -248l121 248h-46v84h222v-84h-76l-197 -394h30v-84z" />
    <glyph glyph-name="afii10038" unicode="&#x424;" 
d="M258 211v127q-38 -27 -38 -64q0 -36 38 -63zM348 340l-1 -131q41 26 41 65t-40 66zM257 478h-167v84h421v-84h-164v-40q75 -21 111 -87q20 -36 20 -77q0 -79 -66 -130q-29 -23 -65 -33v-27h163v-84h-421v84h169v28q-72 20 -108 85q-20 37 -20 77q0 79 65 131q28 22 62 32
v41z" />
    <glyph glyph-name="afii10039" unicode="&#x425;" 
d="M501 478l-146 -197l146 -197h79v-84h-241v84h53l-91 118l-91 -118h53v-84h-243v84h80l144 197l-145 197h-72v84h243v-84h-60l91 -120l90 120h-60v84h242v-84h-72z" />
    <glyph glyph-name="afii10040" unicode="&#x426;" 
d="M572 478h-67v-394h66v-198h-90v114h-452v84h67v394h-67v84h223v-84h-67v-394h231v394h-67v84h223v-84z" />
    <glyph glyph-name="afii10041" unicode="&#x427;" 
d="M427 245q-88 -52 -150 -52q-67 0 -134 50q-62 47 -62 94v140h-59v84h208v-84h-60v-90q0 -43 36 -78q30 -29 71 -29q58 0 142 54q4 3 8 5v138h-59v84h208v-84h-60v-390h60v-87h-149v245z" />
    <glyph glyph-name="afii10042" unicode="&#x428;" 
d="M261 84v394h-36v84h162v-84h-36v-394h111v394h-36v84h166v-84h-40v-394h40v-84h-569v84h40v394h-40v84h166v-84h-36v-394h108z" />
    <glyph glyph-name="afii10043" unicode="&#x429;" 
d="M261 84v394h-36v84h162v-84h-36v-394h111v394h-36v84h166v-84h-40v-394h40v-218h-90v134h-479v84h40v394h-40v84h166v-84h-36v-394h108z" />
    <glyph glyph-name="afii10044" unicode="&#x42a;" 
d="M373 312v-222q83 0 113 58q11 23 11 51q0 71 -61 100q-28 13 -63 13zM120 478l-17 -139h-87l20 223h449v-84h-111v-76q109 0 170 -76q43 -53 43 -127q0 -104 -81 -160q-56 -39 -133 -39h-163v84h73v394h-163z" />
    <glyph glyph-name="afii10045" unicode="&#x42b;" 
d="M444 478h-43v84h180v-84h-47v-394h46v-84h-180v84h44v394zM296 562v-90h-112v-70q110 0 171 -76q43 -54 43 -127q0 -104 -81 -160q-56 -39 -133 -39h-163v84h73v388h-73v90h275zM184 312v-222q82 0 112 57q12 23 12 52q0 69 -60 99q-28 14 -64 14z" />
    <glyph glyph-name="afii10046" unicode="&#x42c;" 
d="M387 562v-90h-112v-70q109 0 170 -75q44 -54 44 -128q0 -104 -81 -160q-56 -39 -133 -39h-164v84h73v388h-73v90h276zM274 312v-222q83 0 113 57q12 23 12 52q0 70 -61 99q-28 14 -64 14z" />
    <glyph glyph-name="afii10047" unicode="&#x42d;" 
d="M283 564q104 0 174 -89q64 -82 64 -194q0 -124 -76 -208q-68 -75 -162 -75q-75 0 -139 50q-19 14 -32 31l65 63q48 -59 106 -61q69 0 113 75q24 41 31 91h-129v-57h-71v176h71v-35h127q-17 93 -83 132q-29 16 -59 16q-54 0 -97 -47q-11 -13 -18 -26l-73 17q19 47 19 69
q0 15 -19 67l62 16q9 -14 12 -41q1 -9 8 -3q2 1 4 3q31 25 70 29q14 1 32 1z" />
    <glyph glyph-name="afii10048" unicode="&#x42e;" 
d="M452 103q29 59 29 178q0 120 -30 179q-29 -59 -29 -178q0 -120 30 -179zM332 298h-142v-214h71v-84h-230v84h69v394h-69v84h230v-84h-71v-92h149q30 171 112 177q88 0 113 -180q7 -51 7 -101q0 -141 -39 -221q-31 -61 -80 -61q-88 0 -113 180q-7 51 -7 101v17z" />
    <glyph glyph-name="afii10049" unicode="&#x42f;" 
d="M410 306v172h-184q-83 0 -105 -38q-11 -19 -11 -48q0 -66 78 -82q18 -4 38 -4h184zM220 222h-27q-87 0 -136 66q-35 47 -35 116q0 107 97 144q35 14 74 14h377v-84h-70v-394h70v-84h-263v84h103v138h-83q-80 -62 -113 -121q-18 -32 -44 -101h-148v84h91q18 45 65 100
q24 28 42 38z" />
    <glyph glyph-name="afii10065" unicode="&#x430;" 
d="M382 186q-90 26 -159 26q-66 0 -86 -48q-5 -11 -5 -21q0 -26 40 -48q31 -18 67 -18q81 0 143 63v46zM472 84h94v-84h-184v43q-51 -45 -104 -54q-18 -3 -39 -3q-89 0 -149 52q-49 43 -49 105q0 83 75 129q48 31 107 31q57 0 159 -26v10q0 45 -63 65q-34 11 -82 11
q-62 0 -146 -37l-28 65l59 23q71 23 115 23q96 0 171 -48q64 -42 64 -95v-210z" />
    <glyph glyph-name="afii10066" unicode="&#x431;" 
d="M300 434q98 0 168 -73q61 -64 61 -148q0 -94 -75 -161q-66 -60 -154 -60q-98 0 -168 72q-62 65 -62 149q0 28 8 57q18 149 104 231q50 48 118 62q56 12 68 19q26 14 34 55l82 -18q-18 -83 -79 -113q-28 -13 -87 -25q-56 -11 -96 -61q39 14 78 14zM300 344q-64 0 -109 -52
q-31 -37 -31 -79q0 -59 54 -101q40 -30 86 -30q65 0 109 53q30 36 30 78q0 60 -54 101q-39 30 -85 30z" />
    <glyph glyph-name="afii10067" unicode="&#x432;" 
d="M233 320h189q27 0 29 8q1 1 1 4q0 10 -30 10h-189v-22zM233 84h159q30 0 52 34q14 21 14 45q0 44 -42 65q-13 7 -24 7h-159v-151zM470 274q53 -18 67 -64q7 -24 7 -59q0 -134 -108 -149q-13 -2 -26 -2h-329v84h62v258h-62v84h328q126 -4 130 -81q0 -61 -69 -71z" />
    <glyph glyph-name="afii10068" unicode="&#x433;" 
d="M147 85v258h-85v84h458l19 -215h-61l-15 131h-226v-258h87v-84h-261v84h84z" />
    <glyph glyph-name="afii10069" unicode="&#x434;" 
d="M79 84q37 11 51 60q6 19 6 41v158h-58v84h455v-84h-61v-259h109v-243h-84v159h-389v-156h-84v240h55zM226 343v-158q0 -51 -29 -101h185v259h-156z" />
    <glyph glyph-name="afii10070" unicode="&#x435;" 
d="M422 268q-38 75 -128 75q-63 0 -103 -51q-11 -13 -14 -24h245zM519 189h-356q16 -53 60 -84q33 -23 76 -23q84 0 146 45l42 -63q-62 -52 -157 -62q-16 -2 -31 -2q-101 0 -171 71q-59 61 -59 142q0 96 76 160q64 54 149 54q103 0 170 -72q52 -57 55 -133v-33z" />
    <glyph glyph-name="afii10072" unicode="&#x436;" 
d="M423 426h165v-84h-51l-122 -101q56 -15 81 -55l39 -67q11 -18 26 -34h27v-85h-80q-56 110 -84 142q-26 28 -67 50l-12 -12v-96h37v-84h-163v84h37v96l-13 13q-55 -29 -89 -81q-18 -27 -61 -112h-80v85h27q25 28 56 85q22 40 51 56q16 9 39 15l-122 101h-51v84h165v-84
h-22l100 -85v85h-31v84h151v-84h-31v-85l99 85h-21v84z" />
    <glyph glyph-name="afii10073" unicode="&#x437;" 
d="M481 133q0 -84 -92 -120q-41 -16 -82 -16q-82 0 -145 66q-7 7 -13 15l67 47q27 -34 64 -39q11 -2 27 -2q44 0 71 24q16 13 16 32q0 54 -87 61q-9 1 -18 1h-34v74h39q77 0 92 28q3 5 3 10q0 23 -39 32q-15 3 -34 3q-70 0 -93 -30q-10 -13 -16 -33h-75q19 48 19 69
q0 33 -14 71h71q2 -4 4 -20q2 -14 12 -1q27 21 92 21q74 0 123 -35q37 -27 37 -66q0 -64 -60 -87q-5 -2 -9 -3q57 -16 70 -72q4 -14 4 -30z" />
    <glyph glyph-name="afii10074" unicode="&#x438;" 
d="M178 225l231 86v31h-53v84h197v-84h-54v-258h54v-84h-197v84h53v134l-231 -95v-39h52v-84h-197v84h55v258h-55v84h197v-84h-52v-117z" />
    <glyph glyph-name="afii10075" unicode="&#x439;" 
d="M396 562q-8 -63 -59 -87q-21 -9 -44 -9q-60 0 -89 51q-12 20 -15 45h24q13 -44 80 -44q59 0 79 44h24zM178 225l231 86v31h-53v84h197v-84h-54v-258h54v-84h-197v84h53v134l-231 -95v-39h52v-84h-197v84h55v258h-55v84h197v-84h-52v-117z" />
    <glyph glyph-name="afii10076" unicode="&#x43a;" 
d="M293 426h260v-84h-111l-105 -85q-21 -16 -31 -22q95 -27 164 -103q19 -23 34 -47h90v-85h-143q-80 131 -227 174q-5 -4 -48 -33v-57h91v-84h-262v84h82v258h-82v84h247v-84h-76v-110q68 35 141 106l4 4h-28v84z" />
    <glyph glyph-name="afii10077" unicode="&#x43b;" 
d="M30 341l-1 84h543v-84h-67v-257h67v-84h-223v84h67v257h-229q-5 -140 -16 -325q-6 -96 -59 -133q-26 -18 -60 -18q-72 0 -116 57q-7 9 -15 21l76 48q20 -30 37 -34q7 -2 18 -2q13 0 22 24q6 16 7 41q13 242 16 321h-67z" />
    <glyph glyph-name="afii10078" unicode="&#x43c;" 
d="M546 342v-258h42v-84h-210v84h78v201h-4l-140 -231h-21l-140 226h-7v-196h77v-84h-213v84h46v258h-46v84h148v-11l144 -223l149 226v8h143v-84h-46z" />
    <glyph glyph-name="afii10079" unicode="&#x43d;" 
d="M191 295h220v62h-72v69h230v-69h-68v-288h67v-69h-230v69h73v139h-220v-139h70v-69h-230v69h70v288h-70v69h230v-69h-70v-62zM185 662h93l122 -175h-46z" />
    <glyph glyph-name="afii10080" unicode="&#x43e;" 
d="M300 434q98 0 168 -73q61 -64 61 -148q0 -94 -75 -161q-66 -60 -154 -60q-98 0 -168 72q-62 65 -62 149q0 94 76 161q67 60 154 60zM300 344q-64 0 -109 -52q-31 -37 -31 -79q0 -59 54 -101q40 -30 86 -30q65 0 109 53q30 36 30 78q0 60 -54 101q-39 30 -85 30z" />
    <glyph glyph-name="afii10081" unicode="&#x43f;" 
d="M40 84h71v257h-72v85h522v-85h-72v-257h72v-84h-224v84h64v257h-202v-257h65v-84h-224v84z" />
    <glyph glyph-name="afii10082" unicode="&#x440;" 
d="M109 -102v444h-73v84h164v-46q52 42 102 51q18 3 38 3q98 0 168 -73q61 -64 61 -148q0 -94 -74 -161q-67 -60 -155 -60q-82 0 -140 55v-149h78v-90h-245v90h76zM340 82q65 0 109 53q30 36 30 78q0 60 -54 101q-39 30 -85 30q-64 0 -109 -52q-31 -37 -31 -79
q0 -59 54 -101q40 -30 86 -30z" />
    <glyph glyph-name="afii10083" unicode="&#x441;" 
d="M424 394l15 32l62 -25l-15 -44q-4 -14 -2 -21l15 -36l-78 -26q-22 45 -79 63q-21 7 -42 7q-68 0 -113 -58q-26 -34 -26 -68q0 -66 59 -109q38 -28 79 -28q70 0 124 38q2 2 4 3l42 -67q-50 -41 -134 -53q-17 -2 -32 -2q-111 0 -180 75q-54 59 -54 138q0 96 76 160
q64 54 149 54q64 0 116 -35q10 -7 14 2z" />
    <glyph glyph-name="afii10084" unicode="&#x442;" 
d="M495 223l-10 119h-140v-258h122v-84h-333v84h121v258h-140l-10 -119h-71l10 203h512l10 -203h-71z" />
    <glyph glyph-name="afii10085" unicode="&#x443;" 
d="M339 -168h-339v84h213l38 81l-174 345h-67v84h216v-84h-53l126 -248l121 248h-46v84h222v-84h-76l-211 -426h30v-84z" />
    <glyph glyph-name="afii10086" unicode="&#x444;" 
d="M255 131v157q0 45 -35 59q-12 5 -26 5q-35 0 -56 -62q-13 -37 -13 -74q0 -60 30 -107q17 -27 36 -27q39 0 60 42zM345 288v-157q18 -40 46 -47q9 -2 18 -2q43 0 60 78q6 27 6 56q0 78 -32 117q-16 19 -37 19q-48 0 -59 -46q-2 -9 -2 -18zM255 534l-136 -35v84l226 49
v-208q30 16 61 16q86 0 131 -103q26 -59 26 -121q0 -82 -41 -150q-44 -71 -113 -71q-39 0 -56 24l-8 11v-103h68v-84h-230v84h72v103q-15 -27 -38 -32q-10 -3 -26 -3q-84 0 -129 103q-25 58 -25 118q0 84 43 152q44 72 114 72q31 0 61 -16v110z" />
    <glyph glyph-name="afii10087" unicode="&#x445;" 
d="M254 0h-241v84h85l146 128l-148 130h-83v84h242v-84h-49l94 -82l92 82h-49v84h244v-84h-86l-147 -130l145 -128h88v-84h-244v84h47l-91 79l-91 -79h46v-84z" />
    <glyph glyph-name="afii10088" unicode="&#x446;" 
d="M561 342h-72v-257h71v-184h-90v99h-431v85h72v257h-72v84h224v-84h-64v-257h202v257h-65v84h225v-84z" />
    <glyph glyph-name="afii10089" unicode="&#x447;" 
d="M427 160q-88 -52 -150 -52q-67 0 -134 50q-62 47 -62 94v90h-59v84h208v-84h-60v-40q0 -43 36 -78q30 -29 71 -29q58 0 142 54q4 3 8 5v88h-59v84h208v-84h-60v-255h60v-87h-149v160z" />
    <glyph glyph-name="afii10090" unicode="&#x448;" 
d="M261 84v259h-36v84h162v-84h-36v-259h111v259h-36v84h166v-84h-40v-259h40v-84h-569v84h40v259h-40v84h166v-84h-36v-259h108z" />
    <glyph glyph-name="afii10091" unicode="&#x449;" 
d="M261 84v259h-36v84h162v-84h-36v-259h111v259h-36v84h166v-84h-40v-259h40v-218h-90v134h-479v84h40v259h-40v84h166v-84h-36v-259h108z" />
    <glyph glyph-name="afii10092" unicode="&#x44a;" 
d="M357 180v-90q100 0 118 24q6 8 6 19q0 38 -61 45q-22 2 -63 2zM100 343l-15 -131h-61l19 215l408 -1h18v-84h-111l-1 -72q133 0 178 -41q36 -32 36 -96q0 -96 -86 -121q-43 -12 -128 -12h-163v84h73v258l-159 1h-8z" />
    </font>
</defs>
</svg>
